<?xml version="1.0" encoding="utf-8"?>
<svg xmlns="http://www.w3.org/2000/svg" viewBox="0 0 500 500" xmlns:bx="https://boxy-svg.com" width="500px" height="500px"><defs><bx:export><bx:file format="svg"/><bx:file format="svg" href="#object-0" path="Untitled 2.svg"/><bx:file format="svg" href="#object-1" path="Untitled 3.svg"/><bx:file format="svg" href="#object-2" path="Untitled 4.svg"/><bx:file format="svg" href="#object-3" path="Untitled 5.svg"/><bx:file format="svg" href="#object-4" path="Untitled 6.svg"/><bx:file format="svg" href="#object-5" path="Untitled 7.svg"/></bx:export></defs><path d="M 89.618 3.23 C 91.24 3.312 92.261 4.085 93.431 5.136 L 93.703 5.682 L 94.333 6.022 C 95.065 6.498 95.065 6.498 95.506 7.315 C 96.471 8.532 97.671 8.661 99.149 8.949 L 98.912 8.443 L 98.605 7.775 L 98.299 7.116 C 98.059 6.498 98.059 6.498 98.059 5.682 L 99.422 6.226 L 99.422 7.043 L 100.512 6.77 L 100.239 7.587 L 100.783 7.587 L 100.774 6.893 L 100.767 5.99 L 100.757 5.088 C 100.783 4.319 100.783 4.319 101.055 3.776 L 101.872 4.048 C 101.959 4.614 102.023 5.181 102.077 5.749 C 102.295 6.999 102.295 6.999 103.125 7.889 C 104.294 8.415 105.522 8.698 106.773 8.949 C 106.662 7.027 106.662 7.027 105.685 5.409 L 105.956 4.592 C 106.9 4.984 107.362 5.447 107.966 6.261 L 108.459 6.921 L 108.953 7.587 L 109.429 8.206 C 110.552 9.662 110.552 9.662 110.86 10.583 L 111.676 10.583 L 111.88 9.989 C 112.25 9.156 112.719 8.552 113.31 7.86 L 114.127 8.132 C 113.955 8.93 113.695 9.592 113.31 10.31 L 112.765 10.31 L 112.765 10.855 L 113.515 10.466 C 114.199 10.136 114.752 9.907 115.488 9.766 L 115.761 10.855 L 116.34 10.907 C 117.729 11.301 118.524 12.118 119.267 13.307 C 119.567 14.106 119.647 14.643 119.574 15.484 C 120.837 14.324 121.515 13.033 122.024 11.4 C 122.054 10.512 121.939 9.829 121.751 8.949 L 122.841 8.949 C 123.687 10.22 123.488 11.544 123.386 13.033 C 123.292 13.453 123.184 13.866 123.062 14.279 L 122.841 15.212 C 123.171 15.77 123.171 15.77 123.658 16.029 L 123.606 15.163 C 123.66 14.077 123.776 13.587 124.475 12.762 L 125.564 12.762 L 125.292 14.123 L 124.747 14.123 C 124.8 14.654 124.8 14.654 125.019 15.212 C 125.91 15.866 126.937 15.931 128.014 16.029 L 128.831 15.757 L 128.696 14.871 C 128.559 13.85 128.559 13.85 128.559 12.762 C 129.069 12.932 129.069 12.932 129.648 13.307 C 130.203 14.499 130.246 15.545 130.193 16.846 L 130.772 16.285 C 131.555 15.757 131.555 15.757 132.458 15.825 L 133.189 16.029 L 133.189 16.574 L 134.006 16.846 L 134.278 19.297 L 135.367 19.57 L 135.47 19.06 C 135.639 18.48 135.639 18.48 136.185 17.935 C 136.112 16.462 135.884 15.651 135.095 14.396 L 135.367 13.579 C 136.214 13.993 136.688 14.338 137.24 15.112 C 137.869 17.001 137.304 18.655 136.456 20.387 C 137.038 19.864 137.374 19.403 137.783 18.719 C 138.362 17.935 138.362 17.935 139.111 17.698 L 139.724 17.663 L 139.724 19.024 L 138.636 19.57 L 138.907 20.658 L 142.72 20.387 L 143.264 19.024 C 143.843 18.804 143.843 18.804 144.354 18.752 C 144.062 20.149 143.716 21.484 143.264 22.837 L 143.264 23.654 L 144.081 23.654 L 143.809 21.476 L 144.422 21.358 C 145.151 21.222 145.151 21.222 145.766 21.018 L 146.26 20.93 C 146.804 21.476 146.804 21.476 146.804 22.293 L 148.167 22.293 L 148.167 23.381 L 147.621 23.381 L 147.621 23.927 L 148.083 23.959 C 150.144 24.134 152.137 24.531 154.157 24.967 L 155.153 25.171 C 157.603 25.693 160.059 26.255 162.037 27.875 L 162.623 28.343 C 163.168 28.852 163.592 29.269 163.961 29.918 C 163.956 33.283 162.364 36.619 160.693 39.449 C 161.078 39.489 161.464 39.53 161.851 39.568 L 162.594 39.647 C 163.164 39.699 163.734 39.74 164.305 39.772 L 165.186 39.825 L 166.012 39.865 L 166.684 39.992 L 167.228 40.809 C 166.79 41.251 166.246 41.243 165.645 41.355 C 164.804 41.514 163.973 41.684 163.144 41.899 L 163.144 42.443 L 163.739 42.48 C 164.506 42.716 164.506 42.716 165.049 43.533 C 165.579 44.254 165.838 44.345 166.74 44.519 C 167.631 44.582 168.514 44.619 169.407 44.622 L 169.951 42.988 L 171.04 43.533 L 170.693 44.169 L 170.241 44.998 L 169.791 45.821 C 169.565 46.234 169.346 46.654 169.134 47.073 L 168.59 47.073 L 168.318 48.706 C 169.118 49.39 169.729 49.653 170.768 49.797 C 170.63 50.388 170.496 50.886 170.224 51.43 L 172.675 51.158 L 172.946 51.975 C 172.595 52.351 172.232 52.713 171.858 53.064 L 171.313 53.064 L 170.768 54.426 L 171.619 54.376 C 172.738 54.432 173.352 54.684 174.309 55.243 L 174.036 56.06 L 172.13 56.06 L 172.13 56.604 L 172.828 56.827 C 173.763 57.149 173.763 57.149 174.649 57.577 C 175.848 58.11 177.096 58.165 178.393 58.237 L 178.393 59.054 C 177.848 59.515 177.848 59.515 177.304 59.872 C 177.406 60.555 177.464 60.874 178.02 61.31 L 178.547 61.609 C 179.461 62.223 179.461 62.223 179.652 63.14 C 179.483 63.957 179.483 63.957 179.058 64.657 C 178.605 65.294 178.605 65.294 178.665 66.035 C 178.898 66.715 178.898 66.715 179.483 67.175 C 180.274 67.489 180.589 67.518 181.406 67.48 C 183.045 67.419 184.524 67.949 186.018 68.586 C 186.563 69.131 186.563 69.131 186.563 69.948 L 184.657 70.22 L 184.657 70.764 L 187.107 71.309 L 187.107 72.126 C 186.27 72.374 185.834 72.429 184.997 72.145 C 183.862 71.772 182.843 71.807 181.66 71.855 L 181.66 72.671 L 182.193 72.733 C 183.359 73.03 184.348 73.572 185.406 74.135 L 186.049 74.465 L 186.661 74.79 L 187.217 75.08 C 187.652 75.394 187.652 75.394 187.924 76.211 L 187.38 76.211 L 187.38 76.756 L 187.955 76.83 C 188.698 76.944 189.39 77.066 190.103 77.3 C 190.546 78.016 190.546 78.016 190.648 78.662 L 189.558 79.206 L 189.558 79.752 L 189.014 79.752 L 189.558 81.386 L 190.46 81.335 C 191.465 81.386 191.465 81.386 191.992 81.693 C 192.282 82.202 192.282 82.202 192.231 82.934 C 192.307 84.304 192.978 85.05 193.915 86.014 C 194.775 86.747 195.665 87.352 196.638 87.92 L 197.234 88.28 C 198.32 88.79 198.873 88.811 200.03 88.421 C 200.914 88.019 201.782 87.58 202.629 87.103 L 202.902 88.193 C 202.471 88.416 202.04 88.636 201.608 88.857 L 200.881 89.23 C 200.179 89.554 200.179 89.554 199.561 89.685 L 199.089 89.826 L 198.817 90.643 L 200.722 90.1 L 200.722 90.916 L 201.472 90.508 C 202.356 90.1 202.356 90.1 203.446 90.1 L 203.175 92.278 C 204.426 92.278 204.592 92.105 205.507 91.324 C 206.627 90.371 206.627 90.371 207.531 90.371 L 207.259 91.461 L 206.169 91.733 L 205.897 92.821 L 206.442 92.821 L 206.986 92.005 L 208.076 92.005 L 208.076 92.55 C 209.945 92.403 211.034 91.861 212.262 90.44 L 212.706 89.826 L 213.523 90.1 L 213.523 92.278 L 214.254 92.141 C 215.746 91.918 216.728 92.022 218.151 92.55 L 217.879 94.184 C 218.547 94.157 218.547 94.157 219.241 93.912 C 219.615 93.239 219.615 93.239 219.785 92.55 C 220.578 92.844 221.086 93.035 221.691 93.639 L 221.691 94.456 C 223.229 93.971 224.212 93.452 225.355 92.307 L 225.776 92.005 L 226.593 92.278 L 226.321 93.912 C 228.439 94.788 230.308 94.815 232.585 94.728 C 232.585 95.545 232.585 95.545 232.311 96.09 C 236.055 96.956 236.055 96.956 239.647 96.11 L 240.482 95.545 L 241.57 95.273 L 241.299 97.997 L 242.659 98.268 L 242.932 99.085 L 243.902 98.832 C 244.938 98.571 245.958 98.402 247.017 98.268 L 246.744 99.358 L 245.383 99.631 L 245.383 100.719 L 246.2 100.992 L 246.2 101.536 L 247.017 101.536 L 246.744 100.447 C 247.586 99.968 247.898 99.902 248.923 99.902 L 249.739 97.451 L 250.556 97.451 C 251.026 98.138 251.026 98.138 251.51 99.037 C 252.227 100.42 252.227 100.42 253.28 101.536 C 254.074 101.765 254.074 101.765 254.914 101.536 C 255.468 100.959 255.877 100.321 256.276 99.631 L 256.82 99.902 C 256.69 100.3 256.559 100.697 256.429 101.095 L 256.209 101.765 C 256.003 102.353 256.003 102.353 255.731 102.898 C 257.373 102.367 257.373 102.367 258.982 101.74 L 259.544 101.536 L 260.088 101.809 L 260.088 103.715 L 263.9 104.259 L 264.173 103.443 L 264.717 103.443 L 264.717 101.809 C 265.083 101.89 265.446 101.986 265.807 102.081 L 266.487 102.252 C 267.234 102.664 267.349 102.869 267.73 103.598 C 268.147 104.558 268.147 104.558 268.87 104.788 L 269.346 104.804 L 268.802 103.17 L 269.619 103.443 C 269.942 104.142 269.942 104.142 270.164 104.804 C 270.601 104.72 271.037 104.635 271.474 104.55 L 272.212 104.407 C 273.404 104.148 273.842 103.903 274.52 102.898 L 275.609 103.17 L 274.792 105.076 C 277.488 104.824 280.095 103.513 282.229 101.871 C 282.689 101.536 282.689 101.536 283.301 101.623 L 283.779 101.809 C 283.779 102.683 283.577 103.198 283.235 103.987 C 283.959 103.595 284.683 103.201 285.405 102.802 C 285.914 102.527 286.422 102.255 286.938 101.991 C 288.678 101.078 289.66 100.178 290.314 98.268 L 291.131 98.54 L 291.131 101.536 L 291.676 101.536 L 292.22 101.809 L 292.766 101.809 L 292.766 102.898 C 293.8 102.996 294.279 102.977 295.167 102.405 C 295.818 101.841 295.818 101.841 296.033 100.992 C 296.498 100.801 296.498 100.801 297.073 100.652 C 297.972 100.347 298.385 100.088 298.859 99.257 C 299.383 98.095 299.383 98.095 299.845 96.907 L 300.662 96.907 C 301.082 97.743 300.812 98.462 300.662 99.358 C 301.193 99.305 301.193 99.305 301.751 99.085 C 302.103 98.547 302.103 98.547 302.296 97.997 L 303.385 97.997 L 303.385 100.175 C 305.962 99.739 307.465 98.397 309.065 96.393 C 309.725 95.743 310.106 95.629 311.011 95.545 C 310.773 97.111 310.773 97.111 310.465 97.724 L 311.011 97.724 L 311.011 98.54 L 311.827 98.54 L 311.895 97.792 C 312.13 96.782 312.342 96.409 313.189 95.818 C 313.937 95.886 313.937 95.886 314.55 96.09 L 314.773 96.858 C 315.071 97.661 315.267 98.013 315.912 98.54 L 315.912 97.179 L 315.095 96.907 L 316.456 92.821 L 317.273 93.095 L 317.273 95.001 C 320.617 95.186 320.617 95.186 323.619 93.987 C 324.185 93.468 324.185 93.468 324.667 92.922 C 325.17 92.55 325.17 92.55 325.914 92.632 L 326.533 92.821 L 326.533 94.728 L 328.71 94.728 L 328.71 91.461 L 329.8 91.461 L 330.072 92.821 C 330.505 92.838 330.936 92.849 331.365 92.858 L 332.094 92.877 C 332.828 92.821 333.259 92.651 333.884 92.278 C 334.157 93.095 334.157 93.095 333.884 93.912 L 334.43 93.912 L 334.974 94.456 L 335.518 94.184 C 335.541 93.356 335.513 92.803 335.247 92.005 L 335.947 92.125 L 336.881 92.278 L 337.801 92.534 C 339.217 92.558 339.97 91.877 340.965 90.916 L 341.51 90.1 L 342.327 90.1 C 342.195 90.951 342.054 91.733 341.782 92.55 L 343.144 92.278 L 343.415 90.1 L 344.232 90.1 L 344.382 90.549 L 344.592 91.14 L 344.791 91.723 C 345.069 92.319 345.379 92.662 345.867 93.095 L 346.09 92.569 C 346.411 92.005 346.411 92.005 347.228 91.733 C 347.43 91.185 347.43 91.185 347.501 90.643 L 348.59 90.643 C 348.448 91.398 348.287 92.095 348.045 92.821 L 348.59 92.821 L 348.59 93.367 L 349.679 93.367 L 349.951 92.55 C 351.299 91.55 352.644 91.023 354.309 90.916 L 354.309 88.193 C 355.616 88.519 355.616 88.519 356.215 89.283 C 356.857 90.44 356.738 91.273 356.487 92.55 C 357.807 92.33 357.807 92.33 358.733 91.48 L 358.938 90.916 C 359.297 90.44 359.297 90.44 359.755 90.1 C 360.487 90.049 360.487 90.049 361.116 90.1 L 361.116 90.916 L 362.069 90.526 C 363.222 90.097 364.248 89.892 365.473 89.826 L 366.018 90.371 L 366.563 89.826 L 367.379 89.826 L 366.835 92.005 L 367.652 92.005 L 367.379 91.188 L 367.892 91.121 L 368.469 90.916 L 368.725 90.371 L 369.013 89.826 C 369.73 89.623 369.73 89.623 370.374 89.554 L 370.647 90.371 L 370.374 90.916 L 370.846 90.707 C 371.284 90.513 371.724 90.317 372.165 90.124 C 372.708 89.881 373.254 89.634 373.798 89.386 C 375.419 88.737 376.81 88.236 378.544 88.737 L 379.225 89.182 C 380.462 89.862 381.839 89.214 383.141 88.857 C 384.475 88.514 385.614 88.386 386.986 88.466 L 387.258 89.554 L 386.715 89.554 L 386.715 90.1 C 387.242 90.124 387.771 90.137 388.298 90.15 L 389.186 90.18 C 390.107 90.089 390.202 89.933 390.799 89.283 C 391.475 89.084 391.475 89.084 392.212 88.96 L 392.956 88.83 L 393.522 88.737 C 393.522 89.631 393.44 90.331 393.249 91.188 L 393.794 90.916 L 394.066 90.1 L 395.155 90.1 L 395.155 90.643 L 395.973 90.371 C 397.381 90.246 398.317 90.396 399.632 90.916 C 400.989 91.433 402.163 91.872 403.597 91.461 C 404.67 90.821 405.637 90.085 406.593 89.283 L 407.138 89.554 C 407.053 90.083 407.053 90.083 406.865 90.643 L 406.048 90.916 L 406.048 91.461 L 406.593 91.461 L 406.593 92.55 L 406.99 92.193 L 407.514 91.733 L 408.028 91.275 C 408.499 90.916 408.499 90.916 409.044 90.916 C 408.894 91.837 408.758 92.302 408.227 93.095 C 409.254 93.064 410.28 93.03 411.31 92.994 L 412.192 92.966 L 413.041 92.937 L 413.823 92.909 C 414.558 92.864 414.558 92.864 415.307 92.278 C 416.039 92.38 416.039 92.38 416.669 92.55 L 416.669 93.095 C 417.196 93.103 417.726 93.108 418.253 93.113 L 419.142 93.121 C 419.956 93.133 419.956 93.133 420.753 92.821 C 421.489 92.866 422.202 92.988 422.932 93.095 L 423.476 92.005 L 424.838 92.278 C 425.146 93.811 425.146 93.811 424.838 94.728 C 426.638 95.067 426.638 95.067 428.345 94.612 L 428.923 94.184 L 430.013 94.184 L 429.588 94.815 L 429.196 95.545 L 429.467 96.362 L 429.968 96.359 C 430.721 96.354 431.471 96.349 432.227 96.346 L 433.009 96.341 C 434.315 96.334 435.534 96.379 436.82 96.634 C 437.274 96.645 437.73 96.648 438.181 96.634 L 438.727 98.268 L 437.91 97.997 C 439.401 99.718 441.343 99.755 443.474 99.913 C 444.041 99.971 444.041 99.971 444.99 100.175 C 445.396 100.738 445.396 100.738 445.534 101.264 L 444.99 102.081 C 446.409 102.784 447.805 102.737 449.355 102.781 C 450.926 102.843 450.926 102.843 451.525 103.443 L 451.525 104.259 L 452.342 104.532 L 452.342 105.076 L 452.989 105.112 C 454.378 105.447 455.561 106.123 456.699 106.982 L 456.972 107.799 L 457.789 107.799 L 457.789 107.256 C 458.42 107.274 458.42 107.274 459.149 107.528 C 459.49 108.167 459.736 108.725 459.967 109.401 C 460.454 110.809 460.454 110.809 461.484 111.87 C 462.109 112.195 462.109 112.195 462.69 112.157 C 463.14 111.487 463.14 111.487 463.507 110.795 L 464.869 111.067 L 464.564 111.971 L 464.323 112.973 L 464.869 113.79 C 465.784 113.627 466.333 113.289 467.046 112.701 L 468.136 113.246 L 467.864 114.063 L 468.409 114.063 L 467.864 115.153 L 467.32 115.153 C 467.564 115.795 467.564 115.795 468.427 116.004 L 469.226 116.242 L 468.953 117.603 L 469.77 117.876 L 469.77 118.421 L 470.539 118.438 L 471.404 118.693 C 471.878 119.574 472.17 120.428 472.461 121.382 L 472.766 121.961 L 473.429 122.063 L 474.127 122.233 C 474.887 123.545 475.039 124.514 474.944 126.045 L 475.394 126.236 C 479.256 127.906 479.256 127.906 480.39 129.041 L 480.39 129.858 L 478.484 129.314 L 478.803 129.683 C 479.245 130.193 479.682 130.706 480.118 131.22 L 480.767 131.969 C 481.207 132.582 481.207 132.582 481.207 133.399 L 481.855 133.62 C 482.569 133.942 482.569 133.942 483.114 134.759 L 482.809 135.236 C 482.502 135.838 482.502 135.838 482.741 136.428 C 483.075 136.967 483.075 136.967 483.626 137.193 C 484.57 137.667 485.129 138.431 485.515 139.406 C 485.565 139.934 485.565 139.934 485.384 140.445 C 485.227 141.039 485.227 141.039 485.605 141.549 L 486.06 142.079 C 486.779 142.973 487.166 143.716 487.471 144.836 L 487.779 145.432 C 488.015 145.924 488.015 145.924 488.015 146.742 L 488.68 146.981 C 489.378 147.286 489.378 147.286 489.649 147.831 C 489.812 150.437 489.679 153.059 488.56 155.457 L 490.194 155.457 L 490.194 156.545 L 489.921 156.817 C 489.81 157.701 489.712 158.584 489.63 159.471 C 489.521 160.453 489.366 161.286 488.96 162.188 C 488.073 164.17 488.435 165.898 489.176 167.87 C 489.59 168.912 490.019 169.949 490.466 170.978 C 493.295 177.537 493.295 177.537 492.533 179.955 C 492.19 181.141 492.258 182.34 492.645 183.504 C 492.656 184.14 492.658 184.776 492.645 185.41 L 491.828 185.41 L 491.556 187.045 C 492.41 187.55 493.02 187.644 494.006 187.589 L 494.006 188.678 L 492.645 188.678 L 492.916 190.04 L 494.551 190.584 L 494.823 191.947 C 493.949 192.383 493.073 192.233 492.099 192.218 C 492.231 192.701 492.361 193.183 492.492 193.666 L 492.712 194.48 C 492.86 195 493.017 195.517 493.19 196.031 L 492.916 196.576 L 494.279 196.848 L 494.279 197.665 L 493.734 197.937 C 494.028 198.731 494.218 199.238 494.823 199.843 C 494.859 200.559 494.859 200.559 494.823 201.205 C 493.927 201.422 493.541 201.504 492.645 201.205 L 492.855 201.973 C 493.154 203.078 493.446 204.183 493.734 205.29 L 493.989 206.254 C 494.422 207.992 494.831 209.754 494.551 211.553 L 494.006 212.097 L 492.916 212.097 L 492.916 211.28 L 491.828 211.553 L 491.828 210.736 L 491.283 210.736 C 491.7 212.589 491.7 212.589 492.733 214.141 C 493.502 214.572 494.247 214.856 495.096 215.093 L 495.096 215.91 C 494.088 216.168 493.627 216.265 492.68 215.791 L 492.099 215.365 L 492.373 216.182 C 492.391 216.607 492.397 217.033 492.391 217.458 L 492.383 218.126 L 492.373 218.633 L 493.462 218.906 L 493.462 219.723 L 492.099 219.994 C 492.495 221.626 492.966 223.156 493.65 224.693 C 494.191 225.939 494.433 226.816 494.279 228.165 L 493.462 228.165 L 493.462 226.53 L 492.373 226.53 C 492.13 227.43 491.974 228.334 491.828 229.254 L 492.645 229.254 L 492.557 229.713 C 492.332 231.146 492.427 232.023 492.993 233.346 C 493.353 234.327 493.323 235.018 493.19 236.062 C 492.805 236.812 492.394 237.322 491.828 237.968 L 491.283 237.968 L 491.283 237.422 L 490.738 237.422 C 490.66 238.253 490.613 239.046 490.738 239.873 C 491.389 240.401 491.389 240.401 492.099 240.691 L 492.099 241.508 L 491.283 241.508 L 491.55 242.191 C 491.855 243.236 491.924 244.192 491.916 245.27 L 491.91 245.849 C 491.876 247.288 491.8 248.707 491.011 249.949 C 490.281 250.375 490.281 250.375 489.649 250.494 C 489.535 251.105 489.535 251.105 489.649 251.856 L 490.33 252.656 C 491.011 253.49 491.011 253.49 491.199 254.273 C 490.864 255.791 489.941 256.94 488.638 257.776 L 488.015 258.118 L 488.124 259.045 L 488.271 260.281 L 488.342 260.887 C 488.391 261.302 488.44 261.716 488.487 262.131 C 488.554 262.696 488.633 263.258 488.715 263.821 C 488.944 265.906 488.861 268.023 488.851 270.118 C 488.848 270.566 488.845 271.014 488.845 271.461 C 488.843 272.552 488.837 273.641 488.832 274.729 L 487.743 274.729 C 486.525 273.496 486.198 272.045 486.109 270.373 L 485.292 270.373 L 485.401 270.833 C 485.679 272.018 485.883 273.218 486.014 274.43 C 486.128 275.106 486.323 275.729 486.537 276.381 C 486.939 277.666 487.198 278.888 486.722 280.193 C 486.626 280.934 486.959 281.32 487.381 281.905 C 487.92 282.573 488.495 283.201 489.086 283.823 L 489.378 284.261 L 489.104 285.078 C 487.771 284.964 487.294 284.379 486.381 283.444 C 485.935 283.248 485.48 283.066 485.02 282.9 C 484.963 285.718 485.14 288.529 485.292 291.342 C 484.554 291.709 483.928 291.633 483.114 291.614 L 483.385 293.248 L 484.202 293.52 L 484.067 294.337 C 483.734 297.082 483.655 299.671 484.748 302.234 C 484.69 303.266 484.663 303.68 483.931 304.412 C 483.353 304.582 483.353 304.582 482.841 304.684 L 482.841 306.318 L 484.202 306.591 L 484.202 306.046 L 485.02 306.046 L 485.02 307.135 L 484.475 307.135 L 484.475 307.681 C 483.936 307.879 483.391 308.061 482.841 308.225 L 482.297 307.953 C 482.47 308.957 482.757 309.848 483.133 310.795 C 483.873 312.818 483.873 312.818 483.659 313.943 C 483.149 314.725 483.149 314.725 482.569 315.306 L 482.024 315.306 C 482.133 316.093 482.239 316.346 482.86 316.87 L 483.385 317.212 L 483.165 317.945 C 483.008 318.897 483.008 318.897 483.761 319.594 L 484.475 320.207 C 484.807 320.869 484.761 321.225 484.698 321.96 L 484.652 322.606 C 484.424 323.381 484.059 323.6 483.385 324.02 C 483.797 326.443 484.557 328.518 485.599 330.73 C 487.53 334.844 487.792 339.915 486.273 344.233 C 485.774 345.545 485.257 346.812 484.475 347.983 L 486.654 347.71 L 486.654 348.8 L 485.736 348.988 C 484.726 349.239 484.726 349.239 484.359 349.974 C 484.206 350.698 484.162 351.332 484.202 352.067 L 483.385 352.34 L 483.114 352.885 L 483.881 352.612 C 484.748 352.34 484.748 352.34 485.565 352.34 C 485.21 353.408 484.793 354.064 483.931 354.791 L 483.385 354.791 L 483.385 355.336 L 482.841 355.336 L 482.86 356.144 C 482.904 359.304 482.457 361.688 481.207 364.594 C 482.313 364.039 482.313 364.039 482.841 362.96 L 483.659 363.234 C 483.509 364.292 483.215 364.943 482.588 365.804 C 481.357 367.593 481.123 368.995 481.207 371.13 L 482.841 371.402 C 482.677 372.53 482.295 373.358 481.736 374.345 L 481.284 375.152 L 480.935 375.759 L 482.024 376.032 C 481.915 376.81 481.839 377.29 481.327 377.902 C 480.736 378.776 480.794 379.359 480.935 380.388 C 481.336 381.021 481.768 381.481 482.297 382.022 C 481.311 383.589 481.311 383.589 480.39 384.201 C 479.661 384.234 479.661 384.234 479.029 384.201 L 479.029 385.29 L 480.118 385.018 C 479.71 385.865 479.248 386.665 478.757 387.469 L 479.846 387.741 L 479.846 388.286 C 480.442 388.063 480.442 388.063 480.621 387.45 L 480.834 386.772 L 481.049 386.088 L 481.207 385.563 L 482.297 385.835 C 482.161 386.425 482.024 386.923 481.752 387.469 L 481.207 387.469 C 480.984 389.146 480.929 390.734 481.006 392.425 C 480.921 393.332 480.664 393.828 480.118 394.549 L 479.573 394.549 L 479.301 395.638 L 478.757 395.638 L 478.757 396.455 L 479.54 396.676 C 480.39 397 480.39 397 480.935 397.817 C 479.911 398.159 479.472 397.918 478.484 397.544 C 478.373 399.424 478.349 400.839 479.312 402.479 C 479.852 403.532 479.93 404.69 479.729 405.85 L 479.573 406.258 L 478.484 406.531 L 478.673 407.149 L 478.912 407.961 L 479.149 408.764 C 479.301 409.531 479.248 409.886 479.029 410.615 C 479.277 411.179 479.277 411.179 479.573 411.705 L 479.573 412.522 L 477.94 411.977 L 478.092 412.44 C 478.234 413.169 478.136 413.642 477.958 414.36 L 477.795 415.019 L 477.667 415.518 L 476.034 415.245 L 476.423 415.683 L 476.938 416.266 L 477.444 416.841 C 478.757 418.382 478.757 418.382 478.757 419.329 L 477.667 419.602 L 477.776 420.152 L 478.484 423.687 L 477.395 423.414 L 477.395 424.503 L 476.851 424.503 L 477.09 425.166 C 477.725 427.044 478.021 428.607 477.942 430.589 C 477.94 431.257 478.01 431.739 478.212 432.369 C 478.492 433.244 478.531 433.936 478.484 434.851 L 476.851 434.58 L 476.768 435.04 C 476.467 436.591 475.973 437.823 475.217 439.209 L 474.35 439.176 C 472.453 439.239 471.324 440.051 470.042 441.387 C 468.738 443.16 468.466 444.758 468.444 446.92 L 468.414 447.724 C 468.384 448.851 468.384 449.826 468.681 450.918 C 468.924 453.892 468.725 457.482 466.879 459.972 C 466.195 460.619 465.598 460.885 464.699 461.136 L 463.967 461.343 C 463.305 461.519 462.647 461.696 461.987 461.871 C 458.738 462.733 455.645 463.859 452.552 465.163 C 448.361 466.889 448.361 466.889 446.215 466.083 C 445.534 465.623 445.534 465.623 444.99 465.079 C 444.935 463.951 444.905 463.154 445.262 462.084 L 444.746 462.236 C 443.965 462.46 443.184 462.683 442.402 462.901 L 441.591 463.137 C 437.918 464.167 437.918 464.167 436.311 463.292 C 435.542 462.412 435.335 461.89 435.186 460.722 C 435.587 457.955 436.886 455.092 438.157 452.607 C 439.167 450.622 439.65 449.041 439.701 446.785 C 440.034 443.759 441.433 440.473 443.355 438.12 L 443.723 437.654 C 444.195 437.065 444.679 436.524 445.238 436.017 C 445.951 435.24 446.404 434.394 446.863 433.458 L 447.146 432.88 C 449.041 428.915 449.99 424.858 450.57 420.523 C 450.698 419.673 450.88 418.868 451.1 418.035 C 451.501 416.481 451.805 414.922 452.07 413.339 L 450.708 413.611 C 450.708 412.522 450.708 412.522 451.339 411.874 L 452.07 411.161 C 452.588 410.329 452.588 410.329 452.887 409.526 L 452.614 408.981 L 451.525 409.255 L 450.981 408.164 C 452.241 406.871 452.241 406.871 452.92 406.422 C 453.472 406.03 453.472 406.03 453.609 405.436 C 453.744 403.511 453.628 401.64 453.431 399.724 L 452.906 399.639 L 452.342 399.45 L 452.07 398.633 C 452.323 398.212 452.323 398.212 452.702 397.733 C 453.603 396.395 453.71 395.03 453.877 393.455 C 453.976 392.643 453.976 392.643 454.248 392.098 L 453.431 392.643 L 452.342 392.643 C 452.41 392.149 452.41 392.149 452.614 391.553 L 453.127 391.23 C 454.365 390.172 454.593 388.205 454.793 386.652 L 453.976 386.652 L 453.431 387.741 L 452.342 387.469 C 452.521 386.088 453.121 384.903 453.704 383.656 L 452.906 383.452 L 452.07 383.112 C 451.832 382.532 451.832 382.532 451.797 382.022 L 453.976 382.295 C 454.681 379.021 453.938 376.57 452.614 373.581 L 452.07 372.765 C 452.018 372.148 452.018 372.148 452.037 371.487 L 452.05 370.82 L 452.07 370.313 L 451.525 370.313 L 451.653 369.654 C 452.021 367.593 452.268 365.573 451.797 363.505 C 451.536 363.135 451.264 362.773 450.981 362.416 C 450.305 360.781 450.065 359.271 450.164 357.514 L 449.618 357.514 C 448.611 356.419 448.17 355.374 448.208 353.889 L 448.263 353.212 C 448.311 352.53 448.311 352.53 447.712 351.796 L 447.712 350.979 L 445.807 350.706 L 445.962 351.215 C 446.078 351.796 446.078 351.796 445.807 352.34 C 444.753 352.101 444.753 352.101 444.445 351.796 C 444.497 350.875 444.57 349.963 444.655 349.045 C 444.763 347.757 444.763 347.757 444.172 346.621 L 443.355 346.621 L 442.811 347.71 L 441.721 347.439 L 442.538 343.898 L 440.633 343.626 L 440.633 344.443 L 439.27 344.443 L 439.05 345.244 L 438.727 346.077 L 437.91 346.349 C 437.645 345.317 437.653 344.552 437.86 343.507 L 438.016 342.708 C 438.181 341.992 438.181 341.992 438.489 341.159 C 438.783 340.168 438.732 339.304 438.666 338.28 C 438.74 337.486 439.023 337.137 439.544 336.546 L 438.181 336.273 L 438.181 337.363 L 436.82 336.818 L 437.093 338.179 L 436.276 338.724 C 435.64 337.273 435.772 336.298 436.106 334.808 L 436.231 334.201 C 436.332 333.71 436.439 333.224 436.547 332.734 L 436.047 333.237 C 435.627 333.654 435.199 334.057 434.761 334.452 C 433.98 335.315 433.688 336.009 433.28 337.09 L 433.007 337.635 L 431.919 337.635 C 432.049 334.931 432.392 332.292 432.811 329.621 L 432.912 328.982 C 432.975 328.589 433.038 328.194 433.102 327.799 C 433.174 327.359 433.228 326.914 433.28 326.47 L 433.007 326.198 C 432.996 325.563 432.996 324.927 433.007 324.291 L 432.463 324.291 L 432.463 324.837 L 431.646 324.837 L 431.907 324.052 C 432.269 322.786 432.312 321.532 432.362 320.223 L 432.392 319.501 C 432.419 318.921 432.442 318.339 432.463 317.756 L 431.646 317.756 L 431.461 318.469 C 430.924 319.848 430.167 320.741 428.923 321.569 L 428.106 321.569 C 428.291 320.525 428.585 319.559 428.923 318.557 C 429.62 316.322 430.122 314.243 429.196 312.038 L 429.196 310.948 L 428.106 310.948 L 428.038 311.493 C 427.771 312.566 427.379 313.576 426.744 314.489 C 426.164 314.826 426.164 314.826 425.655 315.032 C 425.319 313.876 425.467 313.246 425.91 312.138 C 426.565 310.305 426.841 308.536 426.224 306.653 C 425.993 306.008 425.993 306.008 425.435 305.841 L 424.838 305.775 C 424.383 305.684 423.931 305.594 423.476 305.501 L 423.327 304.796 L 423.12 303.885 L 422.919 302.975 L 422.659 302.234 L 421.842 301.962 L 421.57 304.141 L 420.208 304.412 C 419.506 303.359 419.686 302.953 419.887 301.722 L 420.045 300.723 C 420.179 299.952 420.323 299.187 420.482 298.421 L 419.665 297.877 L 419.665 297.061 L 418.302 297.604 L 418.575 299.239 L 417.486 298.967 L 417.81 299.903 C 418.245 301.21 418.644 302.529 419.034 303.852 L 419.223 304.476 C 419.665 305.982 419.665 305.982 419.665 306.591 L 420.208 306.591 L 420.2 307.084 C 420.277 309.26 420.98 310.978 421.848 312.935 C 422.292 313.951 422.667 314.984 423.039 316.03 C 423.498 317.345 423.988 318.652 424.508 319.946 L 424.893 320.901 C 425.154 321.541 425.412 322.179 425.674 322.819 C 426.815 325.664 427.657 328.57 427.833 331.645 L 427.888 332.377 C 428.027 335.868 426.796 339.043 425.486 342.218 C 425.035 343.326 424.707 344.334 424.566 345.532 L 424.021 345.532 L 423.972 346.229 C 423.724 347.275 423.332 347.834 422.675 348.659 C 422.336 349.065 422.336 349.065 422.388 349.616 L 423.205 350.162 C 422.39 351.849 421.347 353.31 420.208 354.791 L 421.025 355.063 C 420.633 355.981 420.118 356.564 419.392 357.242 L 419.936 357.242 C 419.77 358.75 419.77 358.75 419.239 359.385 L 418.847 359.693 L 419.936 359.964 C 419.665 360.781 419.665 360.781 418.867 361.311 C 418.016 361.781 418.016 361.781 417.742 362.449 C 417.486 362.96 417.486 362.96 416.772 363.3 L 416.124 363.505 L 416.395 365.684 L 416.941 365.684 C 417.347 364.698 417.968 365.286 417.212 366.228 L 418.847 365.956 C 418.439 366.888 417.894 367.565 417.212 368.322 L 416.636 368.97 C 416.124 369.495 416.124 369.495 415.579 369.768 L 415.395 370.533 C 414.893 371.749 414.291 371.932 413.128 372.491 C 413.469 373.51 413.847 373.632 414.762 374.125 C 414.607 374.907 414.528 375.177 413.945 375.759 C 413.82 376.421 413.82 376.421 413.777 377.153 L 413.714 377.905 L 413.674 378.482 L 412.856 378.755 C 412.674 379.528 412.585 380.204 412.585 381.001 L 412.585 381.75 C 412.311 382.022 412.311 382.022 411.478 382.038 L 410.678 382.022 L 410.405 383.384 L 409.861 383.384 C 409.809 383.985 409.757 384.587 409.708 385.187 L 409.621 386.202 C 409.555 387.183 409.555 387.183 409.738 388.073 C 409.924 389.219 409.596 389.732 409.044 390.736 L 408.227 391.01 L 408.227 392.098 L 407.41 392.098 C 407.543 392.719 407.676 393.34 407.81 393.961 C 407.936 394.557 407.936 394.557 408.227 395.094 C 408.246 395.603 408.251 396.115 408.246 396.624 L 408.238 397.451 L 408.227 398.09 C 407.41 398.361 407.41 398.361 406.544 397.969 L 405.776 397.544 C 405.716 398.667 405.662 399.79 405.607 400.913 L 405.552 401.885 L 405.509 402.811 L 405.468 403.667 C 405.43 404.399 405.43 404.399 406.048 404.897 L 406.048 405.714 L 404.96 405.714 L 404.96 407.621 L 404.143 407.892 L 403.87 407.348 L 403.053 407.348 C 402.663 408.563 402.367 409.597 402.508 410.888 C 402.77 411.259 403.042 411.623 403.325 411.977 L 403.325 413.067 L 402.508 413.611 C 402.37 414.521 402.37 414.521 402.355 415.569 C 402.245 418.916 402.245 418.916 401.31 420.079 C 400.191 420.904 399.464 421.296 398.078 421.183 L 397.397 421.138 C 396.926 421.103 396.455 421.064 395.987 421.026 C 394.458 420.923 393.39 420.912 392.185 421.963 L 391.719 422.497 L 391.248 423.017 C 389.682 425.353 389.926 427.595 390.064 430.296 C 390.128 432.82 389.557 434.678 387.871 436.589 C 385.426 438.46 381.43 438.512 378.471 438.805 C 375.089 439.144 371.78 439.642 368.488 440.486 C 363.291 441.801 363.291 441.801 361.174 440.731 C 360.517 440.261 360.283 439.974 360.027 439.209 L 360.027 438.12 L 359.231 438.15 L 358.189 438.171 L 357.157 438.201 C 356.168 438.117 355.809 438.002 355.126 437.303 C 354.586 435.922 355.067 434.988 355.605 433.7 C 356.166 432.452 356.824 431.27 357.507 430.086 L 357.944 429.33 C 358.965 427.582 360.057 426.028 361.389 424.503 C 362.363 423.264 362.707 422.146 363.084 420.642 C 364.084 417.023 366.378 414.379 369.422 412.266 C 374.528 408.628 376.673 402.343 377.91 396.395 C 378.075 395.644 378.075 395.644 377.686 395.094 L 377.455 394.549 C 377.82 393.764 377.82 393.764 378.375 392.916 C 379.208 391.665 379.208 391.665 379.361 390.193 L 380.179 389.919 L 379.905 389.103 L 378.272 390.736 L 377.455 390.464 C 377.755 389.702 378.006 389.373 378.664 388.863 C 379.487 388.182 379.788 387.644 380.179 386.652 L 380.265 385.682 C 380.515 384.43 381.098 384.155 382.085 383.384 C 382.594 382.527 382.594 382.527 382.902 381.75 L 380.996 381.75 L 380.996 380.662 C 382.561 379.845 382.561 379.845 383.174 379.845 L 382.902 378.482 L 383.686 378.023 C 384.559 377.374 384.797 377.056 385.08 376.032 L 384.263 376.304 C 384.034 375.384 383.96 374.757 384.263 373.853 L 383.174 373.581 C 383.519 372.547 383.896 372.491 384.808 371.948 C 385.559 371.105 385.878 370.256 386.222 369.188 L 386.504 368.319 C 386.739 367.628 386.739 367.628 386.715 367.045 L 384.535 367.318 L 385.08 365.956 L 385.624 365.956 L 385.897 365.139 L 386.715 365.139 L 386.986 364.05 L 384.535 364.05 L 384.535 363.234 L 385.052 363.072 L 385.728 362.857 L 386.397 362.647 C 387.033 362.443 387.033 362.443 387.531 361.871 C 387.577 361.169 387.577 361.169 387.531 360.51 L 386.169 360.237 L 385.897 359.147 L 386.818 358.568 C 387.776 357.887 388.141 357.341 388.348 356.153 L 388.076 355.336 C 388.201 354.589 388.418 353.886 388.62 353.157 L 388.162 353.429 C 387.449 353.737 386.938 353.745 386.169 353.702 L 385.897 352.885 L 386.409 352.424 C 387.024 351.83 387.024 351.83 387.278 351.064 L 387.531 350.433 L 388.348 350.162 L 388.348 347.983 L 387.531 347.71 L 387.531 346.894 L 386.441 346.621 C 386.526 345.521 386.806 344.787 387.379 343.864 C 388.212 342.44 388.577 340.918 388.62 339.269 L 388.076 338.724 C 388.087 337.98 388.231 337.281 388.348 336.546 L 387.803 336.546 L 387.531 337.907 L 386.715 337.635 L 387.531 334.367 C 386.935 334.591 386.935 334.591 386.755 335.203 L 386.545 335.882 L 386.331 336.565 L 386.169 337.09 L 385.624 337.09 L 385.08 338.452 L 383.446 337.907 L 383.991 336.546 L 384.535 336.546 C 384.838 335.336 384.841 334.158 384.827 332.922 L 384.822 332.309 C 384.818 331.816 384.813 331.321 384.808 330.827 L 383.446 330.827 L 383.174 332.734 L 382.629 332.734 C 382.474 331.718 382.357 330.77 382.357 329.738 C 381.945 329.313 381.945 329.313 381.403 328.99 L 380.867 328.635 L 380.451 328.376 L 380.451 328.921 L 379.634 328.648 L 379.361 326.743 C 378.285 327.091 377.766 327.399 377.184 328.376 L 376.793 329.362 C 376.366 330.283 376.366 330.283 375.805 330.691 C 375.277 330.827 375.277 330.827 374.732 330.554 C 374.563 329.722 374.563 329.722 374.46 328.921 C 373.553 329.525 373.371 329.896 372.913 330.86 L 372.551 331.612 L 372.281 332.188 L 371.465 331.917 L 371.737 330.01 L 370.647 330.01 C 370.633 330.533 370.623 331.053 370.615 331.576 L 370.596 332.456 C 370.647 333.256 370.778 333.692 371.191 334.367 L 369.83 334.367 L 369.83 333.822 L 369.013 334.095 L 368.452 333.942 L 367.924 333.822 C 367.245 334.503 367.281 334.822 367.211 335.762 L 367.147 336.513 L 367.107 337.09 C 366.581 336.988 366.581 336.988 366.018 336.818 C 365.65 336.081 365.729 335.454 365.746 334.64 L 365.473 335.184 L 364.112 335.184 L 364.112 336.001 L 363.294 336.001 L 363.09 336.733 C 362.75 337.635 362.75 337.635 362.19 338.332 C 361.612 338.947 361.612 338.947 361.559 339.677 C 361.304 340.698 360.62 341.194 359.755 341.719 C 359.117 341.967 358.521 342.117 357.848 342.265 C 357.182 341.594 357.122 340.998 356.915 340.096 C 356.709 339.364 356.389 338.792 355.942 338.179 C 354.616 337.518 352.655 337.776 351.264 338.179 L 350.496 338.452 C 350.703 339.345 350.703 339.345 351.585 339.814 L 351.585 340.631 C 349.949 340.535 349.448 340.128 348.317 338.997 C 347.443 338.882 347.443 338.882 346.684 338.997 C 346.746 340.464 346.746 340.464 347.383 341.719 L 347.773 341.992 L 347.501 342.809 C 346.624 342.548 346.21 342.358 345.645 341.616 C 345.321 340.902 345.321 340.902 345.321 339.814 L 344.232 339.814 L 344.232 340.359 L 344.778 340.359 L 344.778 340.902 C 343.438 341.44 342.386 341.496 340.965 341.448 L 340.965 341.992 C 339.407 341.929 338.699 341.546 337.583 340.459 C 337.136 340.021 337.136 340.021 336.335 339.814 L 336.624 340.549 L 337 341.516 L 337.373 342.475 C 337.618 343.132 337.822 343.756 337.97 344.443 C 337.512 344.63 337.512 344.63 336.881 344.715 C 335.764 344.198 334.99 343.432 334.157 342.536 L 333.664 342.024 C 333.199 341.194 333.288 340.476 333.34 339.542 L 332.251 339.269 L 332.251 340.085 L 331.706 340.085 L 331.434 341.176 L 330.344 341.176 L 330.344 342.265 L 331.434 342.536 L 330.889 343.626 C 329.928 343.241 329.699 342.904 329.256 341.992 C 328.896 341.716 328.533 341.445 328.166 341.176 L 328.166 340.631 C 327.225 340.83 326.326 341.051 325.443 341.448 C 324.963 342.27 324.963 342.27 324.899 343.082 C 324.117 343.114 324.117 343.114 323.263 343.082 C 322.446 342.262 322.559 341.496 322.446 340.359 C 320.874 340.849 320.251 341.059 319.452 342.536 C 318.384 343.161 317.404 343.209 316.185 343.082 C 315.334 342.589 315.334 342.589 314.55 341.992 C 313.886 341.469 313.886 341.469 313.189 341.176 C 312.729 341.342 312.276 341.524 311.827 341.719 C 310.977 341.736 310.977 341.736 310.194 341.448 C 309.583 340.369 309.376 339.696 309.376 338.452 L 307.471 338.179 L 307.631 338.757 C 307.851 339.563 308.07 340.369 308.288 341.176 L 308.463 341.82 C 308.704 342.738 308.831 343.487 308.831 344.443 C 308.134 344.339 307.805 344.23 307.298 343.724 C 306.492 342.615 305.983 341.674 305.564 340.359 L 304.747 340.085 L 304.475 339.269 L 303.385 338.724 L 303.385 341.176 L 302.568 341.448 L 302.568 338.997 L 302.051 339.293 L 301.379 339.677 L 300.708 340.061 C 300.117 340.359 300.117 340.359 299.574 340.359 L 299.761 340.851 C 299.845 341.448 299.845 341.448 299.524 341.941 C 299.028 342.265 299.028 342.265 298.451 342.196 C 297.939 341.992 297.939 341.992 297.667 341.719 C 297.56 341.216 297.465 340.712 297.378 340.205 L 297.231 339.369 L 297.122 338.724 L 297.939 338.724 L 297.394 337.94 C 296.85 337.09 296.85 337.09 296.85 336.546 L 296.304 336.546 L 296.85 339.542 L 295.761 339.542 L 295.32 339.064 C 294.48 338.272 293.617 338.024 292.533 337.667 C 291.948 337.363 291.948 337.363 291.73 336.783 L 291.676 336.273 L 290.586 336.273 L 290.995 336.988 C 291.416 337.938 291.477 338.521 291.403 339.542 L 290.314 339.542 L 290.153 339.043 C 289.693 337.815 289.342 337.014 288.136 336.41 C 287.255 336.039 286.373 335.729 285.413 335.729 L 284.868 337.09 L 284.051 337.09 L 283.506 335.729 L 282.928 335.89 C 281.401 336.309 279.871 336.712 278.332 337.09 C 278.059 336.546 278.059 336.546 277.942 335.882 C 277.82 335.124 277.82 335.124 277.242 334.367 C 276.549 334.041 276.549 334.041 275.882 333.822 L 275.882 333.005 L 274.247 333.005 L 274.247 333.551 L 274.792 333.551 L 274.52 334.64 C 273.927 334.724 273.927 334.724 273.158 334.64 C 272.7 334.19 272.245 333.739 271.797 333.278 C 271.068 333.042 271.068 333.042 270.436 333.005 L 270.436 333.551 L 271.253 333.822 C 271.878 335.141 271.966 336.475 271.797 337.907 C 271.44 338.861 271.44 338.861 270.981 339.542 L 270.164 339.814 L 269.891 340.359 L 270.555 340.342 C 271.253 340.359 271.253 340.359 271.525 340.631 C 271.525 341.581 271.476 342.273 270.847 343.015 C 270.013 343.754 269.367 344.233 268.258 344.443 L 268.529 345.532 L 267.441 345.532 C 267.07 346.142 266.879 346.479 266.964 347.198 C 267.151 347.765 267.151 347.765 267.712 348.256 C 268.693 348.168 268.693 348.168 269.619 347.983 C 269.827 348.951 269.949 349.677 269.687 350.638 C 268.699 351.627 267.425 351.809 266.078 352.067 L 265.534 352.067 L 265.534 352.612 L 266.078 352.612 C 266.029 353.111 266.029 353.111 265.807 353.702 C 265.183 354.105 265.183 354.105 264.428 354.451 L 263.669 354.804 L 263.083 355.063 L 263.093 355.75 L 263.1 356.646 L 263.111 357.535 C 263.083 358.33 263.083 358.33 262.811 359.147 C 261.994 359.693 261.994 359.693 261.177 359.693 L 261.177 360.611 C 260.988 362.279 259.809 363.391 258.727 364.594 L 259.475 364.05 C 260.361 363.505 260.361 363.505 261.45 363.505 C 261.191 364.298 260.928 365.081 260.615 365.853 C 260.393 366.416 260.217 366.999 260.088 367.59 L 259.544 367.59 L 259.544 368.135 C 258.648 368.48 257.752 368.827 256.857 369.172 C 256.305 369.381 255.747 369.58 255.186 369.768 C 255.106 371.216 255.106 371.216 255.731 372.491 C 255.764 373.224 255.764 373.224 255.731 373.853 C 255.166 374.003 254.684 374.125 254.097 374.125 C 253.899 375.218 253.77 376.318 253.708 377.424 C 253.223 385.298 251.379 392.643 249.467 400.267 L 249.196 401.357 L 249.739 401.357 C 250.046 402.651 250.046 402.651 249.739 403.263 C 249.365 405.886 249.422 408.518 249.467 411.161 L 249.482 412.04 C 249.501 412.96 249.526 413.881 249.553 414.801 L 249.571 415.688 C 249.622 417.141 249.665 418.131 250.556 419.329 L 250.556 420.147 L 250.013 420.147 C 250.106 423.979 250.427 427.927 251.646 431.584 C 251.625 432.079 251.594 432.573 251.561 433.066 C 251.534 434.803 252.084 435.895 252.919 437.387 C 253.37 438.304 253.342 439.018 253.28 440.026 C 253.663 440.78 253.663 440.78 254.097 441.387 L 254.097 441.932 L 253.552 441.932 L 253.851 442.602 C 254.611 444.419 255.001 445.793 254.89 447.754 C 254.925 448.808 255.334 449.622 255.763 450.573 C 256.093 451.425 256.02 452.192 256.003 453.096 C 256.175 453.71 256.388 454.298 256.603 454.897 C 257.241 456.806 257.712 458.936 257.16 460.91 C 256.82 461.539 256.82 461.539 256.259 462.084 C 255.628 462.733 255.482 463.088 255.458 463.99 C 255.725 464.356 255.998 464.722 256.276 465.079 L 256.003 466.168 L 253.552 466.168 L 253.433 466.917 C 253.316 467.589 253.184 468.236 253.008 468.891 C 252.394 468.859 252.394 468.859 251.646 468.618 C 251.268 468.085 250.904 467.541 250.556 466.985 L 249.739 466.712 C 249.491 469.278 250.178 471.418 250.943 473.826 C 251.785 476.535 251.75 478.852 251.153 481.589 L 251.016 482.264 C 250.669 483.887 250.335 485.247 249.053 486.388 C 247.798 487.019 246.591 487.189 245.212 487.409 C 241.796 488.032 238.842 489.287 235.704 490.72 C 234.294 491.363 232.88 491.877 231.401 492.332 C 230.654 492.593 229.992 492.92 229.299 493.298 C 227.245 494.362 225.271 494.718 223.018 494.138 C 222.508 493.944 222.508 493.944 221.691 493.399 C 221.475 492.201 221.408 491.079 221.42 489.86 L 220.729 490.08 C 218.97 490.614 217.227 491.071 215.411 491.358 L 214.414 491.52 C 213.523 491.493 213.523 491.493 212.74 491.06 C 212.029 490.257 211.914 489.838 211.889 488.77 C 212.54 485.677 214.07 482.711 215.345 479.835 L 215.673 479.095 C 215.856 478.687 216.039 478.275 216.225 477.867 C 216.639 476.944 216.948 475.976 217.147 474.986 C 217.299 474.316 217.451 473.646 217.607 472.975 L 217.749 472.344 C 218.935 467.238 221.337 463.306 224.485 459.172 C 226.739 456.141 228.267 452.005 228.227 448.195 C 228.133 447.615 228.032 447.038 227.921 446.461 C 227.595 444.568 227.935 443.196 228.499 441.387 C 231.384 431.56 230.46 420.677 228.669 410.736 L 228.548 410.055 C 228.123 407.693 227.647 405.431 226.833 403.168 C 226.6 402.465 226.446 401.789 226.315 401.065 C 226.043 399.581 225.56 398.199 225.062 396.779 C 221.431 386.127 221.431 386.127 221.147 380.662 L 221.095 379.832 C 221.038 378.901 220.989 377.967 220.942 377.036 L 220.895 376.149 C 220.815 374.085 220.746 371.661 221.691 369.768 L 220.874 369.495 L 221.147 367.861 L 220.057 367.59 L 220.295 366.563 C 220.836 364.167 221.347 361.893 221.147 359.421 L 220.33 359.147 L 220.33 358.604 L 218.967 358.604 L 218.696 357.242 L 217.879 357.242 C 218.141 356.657 218.354 356.215 218.832 355.776 C 219.401 355.161 219.555 354.496 219.785 353.702 L 217.607 353.429 L 217.607 352.885 L 216.79 352.612 L 216.79 352.067 L 215.7 351.796 C 215.946 351.024 216.182 350.287 216.552 349.566 C 216.848 349.04 216.848 349.04 216.79 348.256 L 214.883 348.256 L 214.883 347.439 C 215.419 347.062 215.965 346.701 216.517 346.349 C 216.877 345.628 216.816 345.074 216.807 344.272 L 216.799 343.446 L 216.79 342.809 L 215.973 342.536 L 215.973 341.992 L 215.462 342.536 C 214.883 343.082 214.883 343.082 214.34 343.082 L 213.794 344.715 L 212.433 344.715 C 212.611 343.765 212.996 343.082 213.504 342.265 C 214.003 341.461 214.475 340.666 214.883 339.814 L 213.249 340.359 L 212.706 339.814 C 212.812 339.146 213.035 338.55 213.249 337.907 L 212.433 337.907 L 212.433 336.818 L 210.799 337.363 L 210.799 336.818 L 208.893 337.09 L 209.165 337.651 C 209.498 338.632 209.545 339.329 209.436 340.359 C 209.177 340.727 208.915 341.093 208.64 341.451 C 208.22 342.229 208.105 343.013 207.94 343.882 C 207.652 345.383 207.306 346.458 206.442 347.71 L 208.62 347.439 C 208.535 348.852 207.722 349.778 206.714 350.706 L 206.169 350.706 L 206.101 351.167 C 205.897 351.796 205.897 351.796 205.319 352.441 C 204.71 353.133 204.71 353.133 204.875 354.059 L 205.08 354.791 L 205.897 354.791 L 205.897 354.246 L 206.442 354.246 L 206.714 355.336 L 206.05 355.659 C 205.289 356.09 205.289 356.09 205.131 356.885 L 205.08 357.514 L 205.727 356.866 L 206.986 355.608 L 207.803 355.608 C 207.66 356.8 207.251 357.447 206.493 358.365 L 205.926 359.067 C 205.352 359.693 205.352 359.693 204.742 360.087 C 204.188 360.486 204.188 360.486 204.147 361.236 L 204.178 362.076 L 204.205 362.955 C 204.252 363.614 204.322 364.249 204.433 364.899 L 204.535 365.684 L 203.992 366.228 C 203.694 367.845 203.677 369.46 203.64 371.102 C 203.568 374.204 203.412 377.105 202.629 380.116 C 202.487 380.729 202.344 381.341 202.204 381.954 L 202 382.834 L 201.812 383.656 L 201.65 384.35 C 201.16 386.681 201.122 389.045 201.026 391.417 C 200.99 392.229 200.935 393.04 200.88 393.852 C 200.521 399.194 200.824 404.478 201.195 409.807 C 201.246 410.556 201.292 411.304 201.333 412.053 L 201.366 412.636 C 201.396 413.169 201.423 413.707 201.453 414.241 C 201.621 416.179 202.021 418.099 202.665 419.937 C 202.902 420.691 202.902 420.691 202.766 421.441 C 202.399 423.826 203.541 426.102 204.442 428.256 C 204.809 429.133 204.809 429.133 205.08 429.95 L 204.45 429.934 C 203.691 429.918 203.691 429.918 202.902 430.222 C 203.091 431.745 203.279 433.268 203.468 434.787 L 203.661 436.339 C 203.752 437.084 203.846 437.829 203.939 438.574 L 204.025 439.271 C 204.17 440.434 204.342 441.594 204.535 442.749 C 204.627 444.718 204.536 446.689 204.433 448.656 L 204.408 449.23 C 204.327 450.584 204.327 450.584 203.718 451.191 C 202.733 451.298 202.116 451.149 201.268 450.646 C 200.711 451.88 200.448 453.144 200.179 454.459 C 199.651 454.238 199.651 454.238 199.089 453.913 L 198.817 453.096 L 197.999 453.096 L 197.955 453.606 C 197.885 454.366 197.815 455.128 197.745 455.888 L 197.672 456.689 L 197.602 457.459 L 197.536 458.167 C 197.455 458.815 197.455 458.815 197.308 459.387 C 197.104 460.237 197.243 461.086 197.319 461.947 C 197.459 463.84 197.444 465.647 197.183 467.53 L 197.091 468.199 C 196.819 469.718 196.315 471.001 195.278 472.158 C 193.677 473.147 191.943 473.477 190.105 473.714 L 189.332 473.826 C 188.791 473.902 188.249 473.978 187.706 474.052 C 182.425 474.781 177.246 475.677 172.082 477.014 L 171.21 477.238 L 170.428 477.442 C 168.806 477.799 167.488 477.867 165.986 477.128 C 165.104 476.314 165.104 476.314 165.049 475.428 C 165.048 474.975 165.048 474.521 165.049 474.065 L 164.323 474.106 L 163.365 474.133 L 162.417 474.174 C 161.325 474.044 160.894 473.773 160.148 472.975 C 159.986 472.413 159.986 472.413 160.012 471.818 L 160.021 471.235 C 160.377 469.253 161.347 467.576 162.361 465.863 L 162.76 465.177 C 163.463 463.976 164.201 462.8 164.978 461.645 C 166.276 459.714 167.057 457.761 167.773 455.548 C 168.64 453.046 169.817 451.253 171.586 449.284 L 172.181 448.601 C 172.911 447.765 173.639 446.953 174.444 446.188 C 177.691 442.779 178.712 439.486 179.063 434.912 L 179.128 434.05 C 179.171 433.487 179.209 432.924 179.244 432.361 L 179.303 431.549 L 179.348 430.836 C 179.47 430.035 179.652 429.31 179.874 428.534 C 181.411 423.044 181.238 417.258 181.204 411.61 C 181.2 410.785 181.202 409.957 181.203 409.132 C 181.217 400.205 181.217 400.205 179.55 391.469 C 179.452 391.116 179.354 390.764 179.257 390.411 C 178.65 388.242 177.953 386.098 177.17 383.985 C 176.279 381.556 175.579 379.057 174.853 376.575 L 174.579 375.65 C 173.756 372.638 173.395 369.458 173.095 366.355 C 172.875 364.107 172.46 362.078 171.773 359.924 C 171.33 358.508 171.179 357.351 171.313 355.88 L 170.79 355.657 C 170.224 355.336 170.224 355.336 169.883 354.552 C 169.679 353.702 169.679 353.702 169.679 352.612 L 167.228 352.067 L 166.956 350.979 L 167.501 350.706 C 168.091 350.227 168.091 350.227 168.109 349.641 C 168.096 349.089 168.071 348.536 168.045 347.983 L 168.318 347.439 L 167.91 347.863 C 166.889 348.451 166.192 348.192 165.049 347.983 L 165.595 344.715 C 163.614 344.467 163.614 344.467 161.646 344.612 C 160.965 344.715 160.965 344.715 160.438 344.391 C 160.148 343.898 160.148 343.898 160.217 343.387 L 160.42 342.809 C 160.658 341.856 160.677 341.298 160.42 340.359 C 160.41 339.814 160.408 339.269 160.42 338.724 L 159.808 338.792 C 159.059 338.724 159.059 338.724 158.429 338.28 C 157.845 337.461 157.949 336.993 157.97 336.001 C 157.822 335.77 157.675 335.535 157.526 335.304 L 157.152 334.64 C 157.374 333.875 157.374 333.875 157.697 333.278 L 156.881 333.278 L 156.608 334.367 C 155.978 334.535 155.978 334.535 155.247 334.64 L 154.43 334.095 C 154.701 333.278 154.879 332.997 155.518 332.461 L 156.064 332.461 L 156.064 331.1 L 155.546 331.179 L 154.872 331.268 L 154.202 331.366 L 153.613 331.371 L 153.068 330.827 C 153.152 330.462 153.245 330.1 153.34 329.738 C 153.367 329.011 153.353 328.29 153.34 327.559 L 151.706 327.559 C 151.706 326.576 151.929 326.359 152.523 325.601 L 152.982 325.011 L 153.34 324.564 L 152.876 324.826 C 152.21 325.128 151.683 325.215 150.957 325.278 L 150.298 325.34 L 149.8 325.381 L 149.8 324.564 L 150.345 324.564 L 150.345 324.02 L 147.35 324.564 L 147.621 323.474 C 146.685 323.524 146.685 323.524 145.716 323.747 L 145.481 324.272 C 145.17 324.837 145.17 324.837 144.441 325.13 L 143.57 325.329 L 142.705 325.539 C 141.951 325.648 141.521 325.632 140.814 325.381 L 140.814 324.564 L 141.903 324.564 L 141.903 323.747 L 141.172 324.036 C 140.253 324.296 139.807 324.283 138.907 324.02 L 138.636 323.203 C 137.525 323.153 136.887 323.243 135.912 323.747 C 135.197 323.831 135.197 323.831 134.55 323.747 L 134.006 322.93 L 135.095 322.386 L 135.095 321.569 L 134.534 321.84 C 133.579 322.164 132.83 322.187 131.827 322.113 L 131.011 321.569 L 131.011 320.751 L 131.81 320.512 C 132.673 320.305 132.673 320.305 132.917 319.662 L 132.439 319.427 C 130.838 318.613 129.528 317.703 128.288 316.394 C 127.931 316.114 127.569 315.841 127.198 315.577 L 127.167 316.096 L 127.113 316.767 L 127.065 317.44 C 126.925 318.028 126.925 318.028 126.109 318.573 C 125.842 317.469 125.813 316.438 125.836 315.306 L 124.747 315.032 L 124.375 313.41 C 124.208 312.778 124.208 312.778 123.658 312.038 C 122.703 312.16 121.934 312.465 121.071 312.871 C 120.167 313.29 119.498 313.53 118.484 313.399 L 118.484 312.582 L 119.267 312.07 C 120.167 311.461 120.379 311.155 120.662 310.131 L 120.117 310.131 L 120.117 309.587 L 121.207 309.587 L 121.207 308.77 L 120.391 308.77 L 120.391 308.225 L 119.914 308.497 C 119.3 308.77 119.3 308.77 118.211 308.77 L 117.667 306.046 L 116.833 306.099 C 115.61 306.038 114.941 305.761 113.854 305.229 L 114.127 302.506 C 113.041 302.188 111.97 301.898 110.86 301.689 C 110.496 301.6 110.131 301.51 109.769 301.417 C 109.583 300.789 109.583 300.789 109.497 300.056 L 110.314 299.239 C 110.243 298.508 110.096 297.986 109.769 297.332 L 110.586 297.332 L 110.314 296.515 C 109.128 296.167 108.465 296.382 107.319 296.787 C 106.553 296.84 106.553 296.84 105.956 296.787 C 105.685 296.515 105.685 296.515 105.583 295.903 C 105.685 295.154 105.685 295.154 106.383 294.573 C 107.121 293.868 107.121 293.868 107.076 293.04 C 107.005 292.29 106.905 291.54 106.773 290.797 L 104.323 291.069 C 104.323 289.675 104.812 289.389 105.685 288.346 C 105.92 287.604 105.92 287.604 105.956 286.984 C 105.423 286.426 105.023 286.181 104.25 286.113 C 103.636 286.116 103.028 286.132 102.417 286.167 C 102.267 285.225 102.142 284.348 102.179 283.393 C 102.139 282.477 101.879 282.244 101.329 281.538 C 100.881 280.01 101.148 278.466 101.329 276.909 L 99.966 276.909 L 99.422 277.999 L 98.605 277.999 L 98.333 277.182 C 98.617 276.718 98.902 276.258 99.187 275.795 C 99.571 274.942 99.373 274.245 99.149 273.369 L 98.876 272.824 C 98.901 272.313 98.943 271.801 98.997 271.292 L 99.079 270.465 L 99.149 269.828 L 98.533 270.195 L 97.72 270.662 L 96.916 271.131 C 96.154 271.462 96.154 271.462 95.512 271.376 L 95.065 271.19 C 94.878 270.7 94.878 270.7 94.792 270.101 C 95.123 269.663 95.123 269.663 95.592 269.233 C 96.32 268.451 96.536 268.007 96.511 266.934 L 96.458 266.346 C 96.426 265.744 96.426 265.744 96.699 264.381 L 93.703 264.11 L 93.431 263.293 L 93.938 263.2 C 94.656 263.026 95.238 262.842 95.882 262.475 C 96.347 261.695 96.526 260.912 96.699 260.025 C 96.789 259.662 96.878 259.299 96.971 258.936 L 95.882 258.391 C 95.882 257.434 96.106 257.201 96.699 256.484 L 96.069 256.893 C 95.337 257.301 95.337 257.301 94.52 257.301 C 94.351 256.672 94.351 256.672 94.248 255.941 L 94.792 255.124 L 95.337 255.124 C 95.591 253.89 95.591 253.89 95.337 252.673 L 95.609 252.128 L 95.062 252.077 C 92.673 251.851 92.673 251.851 91.524 251.583 C 91.638 250.786 91.756 250.53 92.376 249.983 C 92.974 249.434 92.974 249.434 92.886 248.606 C 92.583 247.679 92.145 247.149 91.524 246.41 L 91.524 245.593 L 88.256 245.865 L 88.256 245.048 L 88.905 244.691 C 89.811 244.107 89.912 243.621 90.161 242.597 L 88.528 243.142 L 87.984 242.052 L 88.453 241.673 L 89.057 241.166 L 89.658 240.669 C 90.262 240.129 90.262 240.129 90.435 239.056 L 87.167 239.329 L 86.623 238.239 L 87.151 238.02 L 87.831 237.729 L 88.512 237.441 C 89.116 237.198 89.116 237.198 89.345 236.605 L 88.853 236.879 C 88.256 237.151 88.256 237.151 87.44 237.151 L 87.44 236.334 L 88.256 235.789 C 88.133 235.17 88.008 234.552 87.883 233.934 L 87.671 232.89 C 87.485 231.948 87.485 231.948 86.894 231.159 L 86.418 231.279 L 84.717 231.704 C 84.292 230.852 84.368 230.199 84.444 229.254 C 84.691 228.663 84.975 228.118 85.296 227.564 C 85.592 227.044 85.592 227.044 85.534 226.258 C 84.831 226.571 84.351 226.885 83.762 227.398 C 83.083 227.891 83.083 227.891 82.453 227.825 L 81.993 227.62 C 82.483 226.518 83.203 225.766 84.02 224.896 C 84.462 224.33 84.656 223.977 84.717 223.263 L 84.171 222.718 L 84.07 222.178 C 83.948 221.586 83.948 221.586 83.395 221.283 L 82.794 221.015 L 82.189 220.74 L 81.721 220.54 L 81.5 221.203 L 81.176 221.901 L 80.359 222.173 L 79.27 221.084 C 79.651 220.167 80.082 219.727 80.904 219.177 L 80.662 218.586 C 79.635 215.961 79.406 214.004 80.087 211.28 L 77.091 211.28 L 76.82 210.192 L 77.363 209.375 L 77.909 209.375 L 78.726 206.379 L 77.636 206.651 L 77.091 206.379 C 76.743 204.629 76.743 204.629 77.091 203.928 L 76.546 203.928 C 76.685 202.901 76.876 202.444 77.636 201.749 L 77.636 201.205 L 76.274 201.205 C 76.003 200.661 76.003 200.661 76.203 200 L 76.514 199.213 C 77.095 197.725 77.403 196.458 77.379 194.857 L 77.374 194.127 L 77.363 193.581 C 76.13 193.946 75.716 194.404 75.101 195.52 L 74.679 196.271 L 74.368 196.848 L 73.551 196.576 C 73.709 195.552 74 194.797 74.521 193.904 L 74.897 193.251 L 75.186 192.764 L 75.729 192.764 C 75.186 192.012 74.681 191.867 73.807 191.691 C 72.783 191.472 72.783 191.472 72.325 190.822 L 72.19 190.312 C 72.462 190.04 72.462 190.04 73.499 190.006 C 74.284 190.014 74.981 190.062 75.729 190.312 L 76.003 189.768 L 74.64 189.768 C 73.924 187.614 74.047 185.474 74.096 183.233 C 73.433 183.869 72.935 184.43 72.429 185.207 L 71.916 185.955 L 71.373 185.955 C 71.155 184.065 71.721 182.971 72.606 181.315 C 73.439 179.638 73.63 178.002 73.551 176.152 L 73.007 176.152 L 72.939 176.748 C 72.691 177.68 72.315 178.186 71.645 178.875 L 70.828 178.875 C 70.953 178.293 71.086 177.812 71.373 177.289 C 71.683 176.615 71.754 176.071 71.817 175.336 L 71.876 174.638 C 71.911 174.054 71.916 173.469 71.916 172.884 L 71.1 172.884 L 71.059 173.451 L 70.999 174.194 L 70.943 174.932 C 70.828 175.607 70.828 175.607 70.283 176.424 L 69.739 176.424 C 68.998 174.942 69.192 172.936 69.681 171.39 C 70.046 170.432 70.444 169.487 70.871 168.556 C 71.718 166.665 72.001 165.128 71.253 163.114 L 71.035 162.504 C 70.834 161.98 70.834 161.98 70.556 161.447 C 69.911 161.59 69.37 161.763 68.769 162.042 L 68.105 162.264 L 67.289 161.718 L 67.289 160.902 L 67.816 160.664 C 68.418 160.404 68.418 160.404 68.649 159.812 C 68.779 158.42 68.396 157.533 67.832 156.274 C 67.723 155.731 67.628 155.187 67.56 154.638 L 66.743 154.911 L 66.198 154.638 L 66.15 155.275 L 66.079 156.103 L 66.014 156.926 C 65.926 157.634 65.926 157.634 65.654 158.179 L 64.565 157.907 L 64.594 157.19 C 64.636 155.414 64.575 154.317 63.748 152.733 C 63.745 151.897 63.868 151.102 64.02 150.281 L 64.173 149.448 L 64.292 148.92 L 62.931 148.103 C 63.002 147.711 63.075 147.319 63.152 146.929 L 63.277 146.268 C 63.502 145.571 63.777 145.34 64.292 144.836 L 64.837 143.473 L 61.297 143.473 C 61.569 142.113 61.569 142.113 62.234 141.619 C 62.931 141.296 62.931 141.296 63.476 141.296 L 63.239 140.846 C 62.585 139.52 62.269 138.509 62.375 137.03 C 62.391 136.165 62.242 135.341 62.114 134.488 L 61.401 134.513 C 60.289 134.551 59.176 134.588 58.065 134.624 L 57.45 134.644 C 55.012 134.724 52.583 134.768 50.143 134.737 C 45.086 134.674 41.916 135.697 37.554 138.334 C 33.798 140.595 28.65 142.693 24.137 141.691 C 23.625 141.492 23.126 141.258 22.628 141.023 C 22.211 140.929 21.792 140.844 21.37 140.768 C 20.215 140.523 19.494 140.111 18.544 139.389 L 17.912 138.958 C 16.346 137.874 14.914 136.69 13.505 135.407 L 13.012 134.962 C 11.643 133.69 10.862 132.485 10.731 130.573 L 10.679 129.852 L 10.647 129.314 L 10.129 129.311 C 8.217 129.226 7.1 128.753 5.744 127.408 C 3.781 125.248 3.125 123.257 3.173 120.346 C 3.294 118.814 3.732 117.343 4.171 115.879 C 4.849 113.591 4.74 112.05 3.719 109.91 C 2.221 106.658 2.221 106.658 2.476 104.804 C 2.937 104.023 2.937 104.023 3.566 103.17 C 4.577 101.545 5.07 99.955 5.456 98.1 C 5.852 96.256 6.317 95.014 7.65 93.639 L 8.843 92.297 C 9.434 91.643 10.031 90.995 10.63 90.352 C 12.264 88.567 13.685 86.632 15.12 84.685 C 15.942 83.574 16.776 82.474 17.61 81.372 C 18.28 80.478 18.941 79.582 19.592 78.675 C 20.944 76.79 22.331 75.04 23.919 73.344 C 24.635 72.565 25.267 71.746 25.903 70.9 C 26.59 70.032 27.314 69.201 28.043 68.366 C 29.074 67.177 30.054 65.975 30.986 64.705 C 31.922 63.434 32.925 62.263 33.994 61.1 C 35.675 59.24 37.219 57.266 38.695 55.243 L 37.606 55.243 C 37.881 54.416 37.99 54.096 38.695 53.61 C 39.563 53.695 39.563 53.695 40.328 53.881 L 40.328 53.064 L 39.784 53.064 C 40.056 52.247 40.056 52.247 40.328 51.975 L 39.857 51.904 C 36.421 51.308 33.957 50.131 31.394 47.828 C 30.362 46.907 29.226 46.177 28.067 45.426 C 25.702 43.874 23.639 42.169 21.678 40.143 C 21.122 39.579 20.536 39.048 19.921 38.547 C 18.404 37.259 17.173 35.672 15.907 34.144 C 15.548 33.715 15.548 33.715 15.104 33.308 C 14.59 32.766 14.592 32.284 14.459 31.552 L 14.034 30.634 C 13.587 29.504 13.416 28.939 13.642 27.739 C 15.06 25.168 17.533 24.43 20.177 23.654 L 21.016 23.404 C 28.772 21.38 36.584 20.949 43.675 24.892 C 46.837 26.614 51.077 28.498 54.762 28.011 C 55.451 27.709 56.031 27.33 56.668 26.922 L 57.484 26.922 L 57.757 27.467 C 58.206 27.467 58.057 26.696 57.657 26.6 C 56.496 26.247 56.496 26.247 56.052 25.628 C 55.835 25.102 55.835 25.102 55.578 24.198 C 56.039 23.774 56.039 23.774 56.668 23.381 C 57.455 23.461 58.097 23.678 58.846 23.927 L 58.574 22.564 L 57.212 22.293 L 57.212 20.658 L 58.029 20.93 L 57.757 21.476 L 59.664 21.747 L 59.05 21.154 C 57.427 19.493 56.657 17.995 56.123 15.757 C 56.94 15.484 56.94 15.484 57.724 15.776 C 58.734 16.402 59.24 16.976 59.935 17.935 L 59.935 18.48 C 60.115 18.48 60.3 17.761 60.208 17.391 C 62.003 17.2 63.067 17.801 64.565 18.752 L 64.565 17.391 L 63.936 17.17 C 63.234 16.86 62.857 16.626 62.386 16.029 L 62.386 15.484 L 60.752 14.94 L 60.752 14.396 L 62.114 14.123 L 62.114 13.579 C 62.996 13.665 63.383 13.755 64.006 14.404 L 64.48 15.076 C 65.076 15.972 65.076 15.972 65.926 16.574 L 65.654 15.484 C 66.657 15.152 67.255 15.295 68.293 15.468 L 69.265 15.629 L 70.011 15.757 L 69.739 14.667 L 68.649 14.94 C 68.415 14.507 68.181 14.068 67.952 13.63 L 67.56 12.892 C 67.289 12.216 67.289 12.216 67.56 11.4 C 68.41 11.532 69.195 11.673 70.011 11.944 L 69.763 11.487 L 69.45 10.891 L 69.134 10.297 L 68.922 9.766 L 69.195 9.221 C 70.697 9.361 70.697 9.361 71.321 10.005 C 72.64 11.283 74.804 11.532 76.546 11.944 L 76.82 11.4 C 77.336 11.471 77.853 11.544 78.368 11.623 L 79.24 11.746 C 80.119 11.953 80.678 11.89 80.155 11.588 L 79.275 11.081 C 78.6 10.673 77.99 10.243 77.363 9.766 C 76.825 9.486 76.279 9.213 75.729 8.949 L 76.003 8.132 L 78.997 8.949 L 78.334 8.456 C 77.636 7.86 77.636 7.86 77.363 7.043 L 78.18 6.77 C 78.734 7.092 78.734 7.092 79.374 7.554 C 81.007 8.6 82.54 8.671 84.444 8.677 C 84.275 7.1 84.275 7.1 83.627 5.682 C 83.041 5.262 83.041 5.262 82.369 4.932 L 81.694 4.581 L 81.176 4.319 L 81.176 3.776 C 83.099 3.93 84.15 4.505 85.433 5.937 C 85.843 6.468 86.252 7.002 86.658 7.538 C 87.137 8.201 87.137 8.201 87.984 8.404 L 87.984 7.86 L 88.501 7.788 C 89.893 7.593 89.893 7.593 90.895 6.703 C 91.003 5.755 90.845 5.181 90.435 4.319 L 89.618 4.048 L 89.618 3.23 Z M 360.299 90.916 L 360.572 91.461 L 361.116 91.461 L 361.116 90.916 L 360.299 90.916 Z M 64.837 147.831 L 64.837 148.376 L 65.382 148.376 L 65.382 147.831 L 64.837 147.831 Z M 65.109 150.827 C 64.619 152.162 64.619 152.162 64.804 153.533 L 65.109 154.094 C 65.817 153.033 65.695 152.059 65.654 150.827 L 65.109 150.827 Z M 66.471 153.821 L 67.015 154.367 L 67.015 153.821 L 66.471 153.821 Z M 491.011 235.789 L 490.738 236.605 L 491.011 237.151 L 491.556 237.151 L 491.556 236.605 L 492.099 236.605 L 491.828 235.789 L 491.011 235.789 Z M 328.983 340.631 L 329.256 341.448 L 329.527 340.631 L 328.983 340.631 Z" style="stroke-width: 4;" id="object-0"/><path d="M 318.09 135.849 L 318.654 136.062 C 322.616 137.559 325.684 139.402 328.71 142.385 L 329.196 142.858 C 335.502 149.62 339.111 160.655 341.51 169.344 L 341.654 169.867 C 342.357 172.408 343.054 174.953 343.688 177.513 C 343.731 177.687 343.775 177.86 343.821 178.038 C 344.265 179.904 344.496 181.788 344.733 183.689 L 344.873 184.777 C 344.971 185.538 345.066 186.299 345.162 187.06 C 345.279 188.011 345.401 188.961 345.52 189.91 C 347.324 204.056 347.324 204.056 347.416 209.221 C 347.425 209.6 347.435 209.977 347.443 210.355 C 347.462 211.301 347.478 212.248 347.493 213.193 C 347.501 213.71 347.511 214.228 347.519 214.745 C 347.656 223.077 347.008 231.304 346.052 239.572 C 345.899 240.939 345.766 242.307 345.653 243.678 C 344.892 252.777 342.054 262.943 335.79 269.828 L 335.287 270.41 C 332.953 272.941 329.656 274.721 326.533 276.092 L 325.66 276.495 C 323.417 277.393 321.393 277.578 318.994 277.59 L 318.139 277.595 C 312.527 277.502 307.865 275.046 303.93 271.19 L 303.236 270.519 C 300.493 267.674 298.837 264.305 297.667 260.57 C 297.514 260.132 297.361 259.696 297.209 259.259 C 296.82 258.078 296.556 256.885 296.304 255.667 L 296.177 255.057 C 295.823 253.35 295.559 251.644 295.336 249.916 L 295.232 249.158 C 294.758 245.547 294.63 241.899 294.522 238.262 L 294.503 237.695 C 294.363 232.975 294.358 228.256 294.363 223.535 C 294.366 222.319 294.363 221.105 294.363 219.889 C 294.353 211.295 294.353 211.295 294.572 207.796 C 294.763 204.566 294.726 201.327 294.723 198.093 C 294.723 197.522 294.723 196.95 294.723 196.377 C 294.723 191.253 294.617 186.151 294.265 181.037 C 294.081 178.332 294.013 175.627 293.947 172.918 C 293.906 171.258 293.843 169.606 293.713 167.951 C 293.473 164.789 293.547 161.62 293.582 158.451 L 293.59 157.504 C 293.647 150.81 294.407 144.2 299.377 139.266 C 300.399 138.31 301.319 137.572 302.568 136.939 L 303.105 136.662 C 307.924 134.248 313.031 133.866 318.09 135.849 Z" style="fill: rgb(255, 255, 255); stroke-width: 1;" id="object-1"/><path d="M 209.9 121.293 C 212.779 121.686 216.549 122.888 218.424 125.228 C 219.961 129.963 218.837 135.925 218.402 140.749 C 218.32 141.654 218.24 142.559 218.162 143.465 C 218.086 144.339 218.008 145.211 217.932 146.085 L 217.845 147.066 L 217.762 147.973 L 217.692 148.769 C 217.616 149.387 217.491 149.953 217.334 150.553 C 217.267 151.243 217.207 151.934 217.158 152.625 L 217.062 153.886 C 217.037 154.216 217.037 154.216 217.012 154.554 C 216.766 157.814 216.496 161.063 216.076 164.306 C 215.777 166.606 215.605 168.881 215.522 171.198 C 215.458 172.845 215.276 174.443 215.012 176.071 C 214.826 177.376 214.751 178.686 214.679 180.002 C 214.611 180.781 214.611 180.781 214.34 181.598 C 214.293 181.985 214.258 182.373 214.232 182.763 L 214.177 183.495 L 214.118 184.304 C 213.761 188.86 213.234 193.398 212.706 197.937 L 212.579 199.01 C 212.471 199.94 212.359 200.871 212.246 201.801 L 212.148 202.624 L 212.055 203.361 L 211.976 203.996 C 211.889 204.473 211.889 204.473 211.616 204.745 C 211.64 205.386 211.684 206.027 211.735 206.668 L 211.819 207.733 L 211.889 208.557 C 212.733 208.37 212.733 208.37 213.076 207.726 C 214.043 205.763 214.833 203.774 215.555 201.709 C 215.963 200.554 216.451 199.43 217.015 198.345 C 217.812 196.651 218.428 194.87 219.088 193.12 C 219.242 192.714 219.396 192.308 219.55 191.901 C 219.776 191.302 220.005 190.703 220.231 190.103 C 220.679 188.919 221.134 187.735 221.593 186.554 C 222.245 184.867 222.832 183.159 223.411 181.445 C 224.393 178.573 225.475 175.756 226.621 172.946 C 227.61 170.495 228.499 168.004 229.384 165.515 L 229.588 164.944 C 229.994 163.789 230.344 162.625 230.678 161.447 C 230.874 160.867 231.073 160.288 231.273 159.71 C 232.522 156.028 233.484 152.253 234.504 148.504 C 236.217 142.228 236.217 142.228 237.209 139.374 C 237.466 138.629 237.694 137.882 237.911 137.126 C 238.041 136.699 238.171 136.273 238.303 135.849 L 238.527 135.116 C 238.908 134.01 239.231 133.085 240.226 132.411 C 242.777 131.278 245.889 132.22 248.379 133.125 C 249.642 133.699 250.112 134.27 250.589 135.533 C 251.191 137.282 251.302 138.943 251.358 140.781 L 251.425 142.361 C 251.447 142.921 251.467 143.479 251.486 144.039 C 251.528 145.207 251.574 146.375 251.623 147.542 C 251.673 148.759 251.724 149.974 251.77 151.191 C 251.927 155.208 252.113 159.226 252.308 163.241 C 252.344 163.983 252.378 164.724 252.412 165.465 C 252.461 166.498 252.509 167.531 252.559 168.564 L 252.601 169.487 L 252.642 170.34 L 252.678 171.077 C 252.742 171.871 252.876 172.641 253.008 173.428 C 253.056 173.97 253.096 174.514 253.13 175.057 L 253.192 176.016 L 253.256 177.049 C 253.315 177.983 253.376 178.917 253.436 179.851 C 253.572 181.922 253.722 183.991 253.875 186.061 L 253.916 186.626 C 254.001 187.772 254.087 188.919 254.173 190.065 L 254.306 191.86 C 254.667 196.696 255.041 201.53 255.49 206.36 C 255.683 208.458 255.823 210.563 255.91 212.669 C 255.985 214.32 256.215 215.925 256.548 217.543 L 257.365 217.816 C 258.315 216.126 258.72 214.617 259.016 212.709 C 259.105 212.175 259.196 211.639 259.288 211.105 L 259.42 210.335 C 259.612 209.265 259.886 208.221 260.166 207.171 C 260.488 205.862 260.713 204.534 260.948 203.206 C 261.185 201.929 261.486 200.667 261.781 199.402 C 262.845 194.817 263.77 190.204 264.65 185.581 L 264.772 184.939 C 265.228 182.552 265.643 180.168 265.963 177.759 C 266.066 177.065 266.201 176.375 266.369 175.692 C 266.57 174.842 266.677 174.027 266.743 173.156 C 266.846 171.844 267.05 170.57 267.288 169.276 C 267.849 166.194 268.255 163.128 268.451 160.001 C 268.524 159.062 268.642 158.143 268.778 157.21 C 269.198 154.193 269.417 151.154 269.667 148.119 C 269.91 145.187 270.181 142.257 270.532 139.336 L 270.614 138.57 C 270.837 136.833 270.837 136.833 271.558 135.993 C 272.289 135.558 272.864 135.42 273.703 135.305 L 274.574 135.176 C 275.468 135.083 276.348 135.049 277.242 135.033 L 277.99 134.991 C 279.539 134.931 281.047 135.068 282.417 135.849 C 283.122 136.575 283.479 137.007 283.615 138.02 L 283.575 138.917 L 283.533 139.917 L 283.474 140.973 L 283.424 142.054 C 283.316 144.204 283.134 146.319 282.819 148.449 C 282.638 149.889 282.569 151.327 282.512 152.774 C 282.474 153.638 282.419 154.359 282.144 155.183 C 282.09 155.598 282.047 156.012 282.008 156.428 L 281.941 157.168 L 281.872 157.941 C 281.395 163.217 281.395 163.217 281.055 163.897 C 281.001 164.487 280.954 165.076 280.92 165.667 C 280.813 167.377 280.813 167.377 280.511 167.982 C 280.43 168.714 280.355 169.445 280.289 170.178 C 280.072 172.409 279.762 174.62 279.406 176.832 L 279.261 177.733 C 278.915 179.853 278.915 179.853 278.605 180.781 C 278.569 181.177 278.541 181.574 278.52 181.972 C 278.374 183.73 278.035 185.437 277.695 187.166 C 277.276 189.299 276.9 191.439 276.534 193.583 C 276.293 194.993 276.031 196.399 275.745 197.802 C 275.51 198.978 275.304 200.159 275.1 201.341 L 274.959 202.152 C 274.604 204.21 274.286 206.271 273.975 208.336 C 273.627 210.66 273.238 212.967 272.746 215.264 C 272.308 217.34 271.976 219.433 271.632 221.526 C 271.463 222.546 271.291 223.567 271.118 224.586 C 270.475 228.383 269.837 232.177 269.34 235.997 C 269.136 237.55 268.9 239.098 268.632 240.639 L 268.53 241.233 C 268.291 242.563 268.291 242.563 267.986 242.869 C 267.884 243.588 267.793 244.309 267.712 245.03 C 267.477 247.153 267.477 247.153 267.169 247.77 C 267.096 248.262 267.034 248.755 266.982 249.248 L 266.881 250.156 L 266.777 251.123 C 266.704 251.777 266.631 252.428 266.557 253.082 L 266.457 253.975 C 266.315 255.142 266.145 256.307 265.949 257.467 C 265.83 258.249 265.724 259.031 265.63 259.817 C 264.784 266.677 264.784 266.677 263.084 269.011 C 261.948 269.69 260.73 269.65 259.442 269.641 L 258.788 269.638 C 255.439 269.575 251.373 269.08 248.923 266.56 C 247.911 264.814 247.478 263.123 247.102 261.148 L 246.924 260.244 C 246.518 258.073 246.289 255.872 246.238 253.665 C 246.223 252.711 246.223 252.711 246.072 251.94 C 245.899 250.861 245.827 249.792 245.761 248.703 C 245.714 247.987 245.667 247.271 245.62 246.556 C 245.349 242.428 244.999 238.327 244.478 234.224 C 243.995 230.395 243.736 226.568 243.54 222.715 C 243.491 221.908 243.491 221.908 243.343 221.147 C 243.156 219.958 243.105 218.774 243.047 217.572 L 242.959 215.889 L 242.913 214.985 C 242.597 208.909 242.188 202.844 241.718 196.777 L 241.582 194.999 C 241.496 193.885 241.41 192.772 241.322 191.658 L 241.243 190.649 L 241.169 189.715 L 241.105 188.906 C 241.022 188.096 240.888 187.302 240.753 186.5 C 240.714 185.791 240.68 185.082 240.651 184.372 C 240.536 181.952 240.137 179.615 239.665 177.24 C 238.836 177.513 238.607 177.723 238.207 178.514 L 237.86 179.505 L 237.659 180.066 C 237.416 180.757 237.177 181.449 236.941 182.142 C 236.727 182.764 236.512 183.385 236.298 184.006 C 235.945 185.029 235.592 186.054 235.241 187.079 C 234.507 189.219 233.754 191.351 232.947 193.465 C 232.531 194.564 232.17 195.671 231.832 196.798 C 231.091 199.242 230.205 201.631 229.334 204.03 C 229.001 204.946 228.67 205.861 228.339 206.776 L 228.095 207.45 C 227.607 208.808 227.137 210.172 226.685 211.543 C 226.105 213.302 225.487 215.042 224.84 216.779 L 224.499 217.699 C 223.794 219.586 223.074 221.467 222.34 223.342 L 222.083 223.998 C 221.667 225.062 221.248 226.127 220.826 227.19 C 220.039 229.189 219.324 231.177 218.713 233.239 C 218.115 235.131 217.373 236.97 216.655 238.818 C 216.345 239.619 216.034 240.42 215.726 241.22 L 215.502 241.799 C 214.992 243.119 214.502 244.448 214.031 245.782 C 213.68 246.712 213.259 247.605 212.84 248.505 C 212.203 249.913 211.618 251.342 211.031 252.771 C 209.834 255.656 209.834 255.656 208.935 256.299 C 206.553 257.054 203.912 255.93 201.813 254.85 C 199.699 253.67 197.693 252.302 195.821 250.766 L 195.356 250.422 C 194.191 249.537 193.382 248.573 192.825 247.226 C 192.465 244.432 193.064 241.432 193.393 238.652 C 193.491 237.826 193.586 236.999 193.68 236.171 L 193.863 234.589 L 193.95 233.842 L 194.032 233.148 L 194.103 232.54 C 194.188 231.977 194.319 231.439 194.46 230.888 C 194.508 230.4 194.546 229.912 194.577 229.423 C 194.597 229.136 194.616 228.848 194.636 228.552 C 194.657 228.244 194.677 227.937 194.699 227.62 C 194.852 225.476 195.032 223.356 195.379 221.238 C 195.786 218.738 196.083 216.23 196.366 213.714 L 196.436 213.091 C 196.674 210.985 196.907 208.88 197.133 206.772 C 197.438 203.956 197.753 201.147 198.17 198.346 L 198.272 197.664 C 198.402 196.819 198.546 196.027 198.818 195.214 C 198.871 194.828 198.916 194.438 198.953 194.05 L 199.022 193.37 L 199.089 192.661 C 199.22 191.315 199.364 190.003 199.634 188.678 C 199.675 188.151 199.708 187.623 199.737 187.096 C 199.969 183.613 200.481 180.156 200.94 176.698 L 201.149 175.113 C 201.2 174.727 201.2 174.727 201.253 174.333 C 201.498 172.459 201.709 170.582 201.885 168.701 C 201.991 167.618 202.139 166.555 202.329 165.483 C 202.776 162.882 203.033 160.256 203.327 157.634 C 203.418 156.832 203.508 156.03 203.599 155.228 C 203.656 154.732 203.712 154.236 203.766 153.741 L 203.843 153.063 L 203.911 152.469 C 203.992 151.916 203.992 151.916 204.134 151.358 C 204.299 150.68 204.307 150.015 204.328 149.32 C 204.413 146.668 204.722 144.058 205.08 141.431 C 205.428 138.88 205.722 136.349 205.818 133.774 C 205.885 132.027 206.073 130.309 206.297 128.577 C 206.404 127.742 206.492 126.906 206.57 126.067 L 206.635 125.393 C 206.676 124.965 206.713 124.536 206.749 124.109 C 206.98 121.764 207.635 121.208 209.9 121.293 Z" style="paint-order: fill; fill: rgb(255, 255, 255); stroke-width: 1;" id="object-2"/><path d="M 371.532 132.233 C 372.894 133.225 374.081 134.394 375.277 135.576 L 375.99 136.239 C 381.377 141.35 384.924 148.692 387.606 155.514 C 387.885 156.198 388.19 156.865 388.503 157.532 C 389.756 160.26 390.812 162.979 391.6 165.877 C 391.932 167.046 392.316 168.193 392.705 169.344 C 393.797 172.572 394.687 175.821 395.429 179.146 C 395.926 181.356 396.461 183.557 397.024 185.75 C 398.521 191.611 399.755 197.45 400.484 203.462 C 400.689 205.116 400.939 206.735 401.288 208.366 C 401.762 210.655 401.961 212.936 402.136 215.263 L 402.236 216.581 C 402.318 217.631 402.396 218.681 402.47 219.732 C 402.503 220.191 402.538 220.65 402.57 221.108 C 402.685 222.734 402.748 224.356 402.78 225.985 L 402.802 227.071 C 402.895 231.938 402.828 236.774 402.424 241.626 L 402.375 242.231 C 402.152 244.943 401.735 247.563 401.147 250.222 L 400.955 251.105 C 399.899 255.868 397.652 261.045 394.338 264.655 L 393.781 265.287 C 391.477 267.765 388.598 269.443 385.352 270.373 L 384.724 270.558 C 380.731 271.541 376.301 271.107 372.673 269.169 C 365.476 264.528 363.453 256.684 361.751 248.843 C 361.355 246.908 361.179 245.023 361.146 243.053 C 361.138 242.066 361.138 242.066 360.986 241.159 C 360.846 240.161 360.785 239.19 360.748 238.184 L 360.727 237.619 C 360.711 237.216 360.697 236.814 360.681 236.412 C 360.658 235.769 360.634 235.125 360.61 234.481 C 360.538 232.651 360.471 230.822 360.403 228.993 C 360.228 224.3 360.043 219.622 359.612 214.944 C 359.471 213.394 359.373 211.844 359.281 210.292 L 359.231 209.506 C 359.17 208.464 359.106 207.42 359.047 206.377 C 358.826 202.549 358.425 198.733 357.848 194.941 L 357.753 194.312 C 357.563 193.033 357.358 191.758 357.151 190.482 L 356.98 189.399 C 356.666 187.405 356.666 187.405 356.22 185.437 C 355.942 184.398 355.765 183.345 355.591 182.284 C 355.559 182.096 355.528 181.908 355.496 181.714 L 355.297 180.527 C 354.733 177.166 354.069 173.908 353.067 170.646 C 352.646 169.285 352.315 167.907 351.994 166.519 C 351.52 164.48 351.015 162.449 350.48 160.426 C 349.807 157.869 349.15 155.315 348.59 152.733 L 348.405 151.911 C 347.215 145.736 347.702 139.083 351.041 133.671 C 352.686 131.334 354.978 129.506 357.799 128.869 C 362.864 128.014 367.349 129.376 371.532 132.233 Z" style="fill: rgb(255, 255, 255); stroke-width: 1;" id="object-3"/><path d="M 394.673 121.633 C 398.369 124.57 400.615 129.273 402.947 133.294 C 403.521 134.277 404.102 135.257 404.682 136.236 C 405.138 137.012 405.596 137.786 406.056 138.563 C 406.514 139.339 406.973 140.114 407.437 140.888 C 408.728 143.054 409.853 145.291 410.95 147.56 L 411.206 148.082 C 412.224 150.171 413.133 152.274 413.91 154.468 C 414.232 155.366 414.589 156.212 415.027 157.058 C 415.634 158.247 416.072 159.47 416.499 160.732 L 416.747 161.451 C 417.342 163.191 417.928 164.934 418.504 166.68 C 419.002 168.18 419.514 169.675 420.04 171.166 L 420.277 171.847 C 420.704 173.067 421.14 174.285 421.584 175.5 C 422.704 178.593 423.595 181.65 424.266 184.872 C 424.462 185.794 424.699 186.707 424.982 187.606 C 425.375 188.876 425.639 190.145 425.878 191.453 C 426.368 194.019 427.003 196.534 427.682 199.056 L 428.106 200.661 L 428.373 201.644 C 429.047 204.2 429.508 206.756 429.885 209.373 C 430.05 210.53 430.224 211.687 430.399 212.844 C 430.434 213.077 430.47 213.311 430.505 213.552 C 430.919 216.263 431.413 218.96 431.919 221.657 C 432.556 225.059 433.076 228.424 433.315 231.88 C 433.433 233.309 433.568 234.715 434.641 235.789 C 435.99 235.994 436.727 235.749 437.907 235.071 C 439.552 234.146 441.225 233.295 442.915 232.452 L 443.848 231.986 C 445.738 231.046 447.639 230.129 449.551 229.237 C 451.555 228.297 453.503 227.278 455.442 226.208 C 457.154 225.261 458.863 224.325 460.631 223.484 L 461.549 223.046 C 463.771 222.206 463.771 222.206 464.95 222.716 C 465.59 223.471 465.795 224.259 466.01 225.203 L 466.148 225.783 C 466.581 227.746 466.715 229.698 466.758 231.703 C 466.775 232.23 466.81 232.754 466.846 233.28 C 466.962 235.546 466.962 235.546 466.162 236.589 C 465.707 236.873 465.707 236.873 465.14 237.151 L 464.447 237.513 C 462.496 238.5 460.522 239.38 458.505 240.214 C 452.146 242.862 452.146 242.862 446.052 246.05 C 444.704 246.829 443.323 247.507 441.909 248.162 C 439.726 249.176 437.597 250.265 435.473 251.398 C 434.481 251.926 433.485 252.448 432.485 252.96 L 430.83 253.813 L 430.018 254.231 C 428.656 254.941 427.352 255.675 426.083 256.536 C 424.898 257.32 424.092 257.648 422.659 257.574 C 421.538 256.94 421.132 256.33 420.753 255.124 C 420.68 254.364 420.628 253.605 420.601 252.842 C 420.554 251.74 420.506 250.658 420.344 249.564 C 420.174 248.33 420.146 247.11 420.108 245.865 C 420.001 243.041 419.759 240.241 419.474 237.428 C 419.416 236.868 419.36 236.309 419.301 235.749 C 419.142 234.139 419 232.527 418.864 230.915 C 418.381 225.291 417.853 219.692 417.069 214.1 C 416.933 213.133 416.811 212.165 416.685 211.197 C 416.387 208.975 416.029 206.766 415.647 204.557 L 415.541 203.934 C 414.847 199.912 414.035 195.925 413.128 191.947 L 412.889 190.891 C 412.641 189.806 412.393 188.724 412.143 187.641 L 411.914 186.652 C 411.076 183.073 410.105 179.531 409.079 176.001 C 408.927 175.471 408.772 174.941 408.622 174.411 C 407.633 170.997 406.558 167.626 405.199 164.34 C 404.586 162.851 404.017 161.367 403.518 159.836 C 403.238 159.014 402.895 158.224 402.544 157.431 C 402.03 156.255 401.541 155.076 401.097 153.873 C 400.401 152.038 399.619 150.242 398.832 148.443 L 398.45 147.565 C 397.713 145.886 396.885 144.248 395.973 142.656 C 395.572 141.916 395.175 141.174 394.782 140.427 L 394.462 139.825 C 393.799 138.567 393.156 137.297 392.536 136.019 C 391.849 134.635 391.09 133.343 390.245 132.053 C 389.565 130.995 388.92 129.92 388.279 128.837 L 387.931 128.251 C 385.897 124.804 385.897 124.804 386.169 123.051 C 386.847 122.023 387.795 121.635 388.938 121.291 C 390.826 120.931 392.958 120.677 394.673 121.633 Z" style="fill: rgb(255, 255, 255); stroke-width: 1;" id="object-4"/><path d="M 317.819 148.103 C 323.197 151.426 325.072 159.982 326.804 165.531 L 327.099 166.462 C 327.796 168.776 328.209 171.071 328.525 173.463 C 328.58 173.865 328.634 174.267 328.689 174.67 C 328.811 175.566 328.931 176.461 329.051 177.357 C 329.236 178.742 329.432 180.126 329.625 181.511 C 329.803 182.757 329.974 184.002 330.148 185.248 C 330.232 185.857 330.317 186.466 330.405 187.075 C 330.527 187.945 330.646 188.817 330.767 189.687 L 330.876 190.442 C 331.54 195.411 331.478 200.471 331.48 205.474 L 331.483 207.291 C 331.486 208.554 331.486 209.818 331.486 211.081 C 331.486 212.35 331.488 213.62 331.491 214.89 C 331.516 222.87 331.412 230.819 330.889 238.785 L 330.821 239.844 C 330.654 242.217 330.654 242.217 330.344 243.142 C 330.288 243.669 330.238 244.198 330.197 244.726 C 329.871 248.507 329.473 251.926 327.893 255.396 L 327.52 256.254 C 326.421 258.524 324.761 260.079 322.635 261.404 C 319.735 262.141 317.338 261.666 314.773 260.239 C 312.53 258.776 311.618 256.528 311.078 253.983 C 310.994 253.456 310.907 252.931 310.825 252.404 C 310.749 251.927 310.669 251.453 310.587 250.978 C 310.041 247.333 310.122 243.67 310.142 239.992 C 310.145 239.107 310.145 238.222 310.145 237.337 C 310.15 233.399 310.218 229.465 310.329 225.527 C 310.481 220.079 310.526 214.632 310.531 209.183 C 310.534 208.122 310.536 207.063 310.542 206.003 C 310.616 198.003 310.616 198.003 309.738 190.067 C 309.597 189.157 309.547 188.252 309.496 187.334 C 309.414 185.847 309.262 184.385 309.07 182.908 C 308.524 178.686 308.006 174.473 307.876 170.216 C 307.791 168.098 307.487 166.027 307.182 163.931 C 306.819 161.397 306.545 158.904 306.535 156.341 L 306.527 155.601 C 306.564 152.888 307.264 150.749 309.041 148.686 C 311.571 146.262 314.872 146.625 317.819 148.103 Z M 365.201 142.385 C 368.885 143.52 371.061 146.798 372.826 150.01 L 373.158 150.608 C 374.715 153.424 376.072 156.245 377.184 159.268 L 377.649 160.508 C 378.449 162.653 379.225 164.805 379.993 166.962 L 380.192 167.521 C 380.595 168.663 380.944 169.811 381.268 170.978 C 381.428 171.532 381.589 172.087 381.75 172.64 C 383.947 180.24 385.908 187.885 386.98 195.736 C 387.169 197.115 387.4 198.483 387.646 199.852 C 388.841 206.54 389.661 213.204 389.982 219.994 L 390.027 220.864 C 390.415 228.099 390.553 235.408 389.897 242.631 L 389.799 243.714 C 389.415 247.514 388.854 252.504 385.848 255.208 C 384.666 256.134 383.631 256.309 382.164 256.289 C 380.916 256.136 380.172 255.423 379.37 254.515 C 376.189 250.167 375.876 244.241 375.658 239.047 C 375.579 237.281 375.437 235.525 375.277 233.764 C 375.068 231.419 374.959 229.087 374.903 226.734 C 374.699 219.323 373.871 211.926 372.93 204.574 L 372.842 203.903 C 372.58 201.863 372.3 199.84 371.867 197.829 C 371.701 196.922 371.6 196.012 371.497 195.094 C 371.224 192.79 370.781 190.536 370.296 188.267 C 370.157 187.608 370.018 186.948 369.882 186.288 C 369.353 183.765 368.722 181.296 367.968 178.832 C 367.54 177.439 367.189 176.031 366.835 174.619 C 366.584 173.697 366.584 173.697 366.181 172.847 C 365.539 171.402 365.204 169.852 364.811 168.322 C 364.299 166.33 363.744 164.392 363.02 162.467 C 358.679 150.423 358.679 150.423 360.296 145.357 C 360.607 144.699 360.972 144.069 361.389 143.473 L 361.849 142.759 C 362.933 142.115 363.978 142.189 365.201 142.385 Z" style="stroke-width: 1;" id="object-5"/></svg>