<svg xmlns="http://www.w3.org/2000/svg" width="2048" height="2048"><path d="M0 0c5.953.298 9.702 3.133 14 7l1 2 2.313 1.25C20 12 20 12 21.625 15c3.539 4.47 7.945 4.933 13.375 6l-.875-1.863L33 16.688l-1.125-2.426C31 12 31 12 31 9l5 2v3l4-1-1 3h2l-.035-2.555-.027-3.32-.036-3.305C41 4 41 4 42 2l3 1c.316 2.074.553 4.161.75 6.25.803 4.582.803 4.582 3.851 7.852C53.891 19.041 58.399 20.078 63 21c-.413-7.06-.413-7.06-4-13l1-3c3.459 1.435 5.156 3.136 7.375 6.125l1.813 2.422L71 16l1.75 2.266C76.872 23.617 76.872 23.617 78 27h3l.75-2.187c1.36-3.06 3.079-5.28 5.25-7.813l3 1c-.628 2.929-1.586 5.361-3 8h-2v2l2.75-1.437C90.264 25.354 92.296 24.52 95 24l1 4 2.125.188c5.106 1.443 8.023 4.449 10.75 8.812 1.101 2.935 1.398 4.904 1.125 8 4.64-4.263 7.131-9.008 9-15 .112-3.262-.313-5.777-1-9h4c3.108 4.663 2.381 9.531 2 15a69.61 69.61 0 0 1-1.187 4.563L122 44c1.211 2.05 1.211 2.05 3 3l-.187-3.187c.196-3.992.62-5.787 3.187-8.813h4l-1 5h-2c.195 1.95.195 1.95 1 4 3.273 2.392 7.045 2.64 11 3l3-1-.5-3.25C143 39 143 39 143 35c1.875.625 1.875.625 4 2 2.036 4.377 2.191 8.221 2 13l2.125-2.062C154 46 154 46 157.313 46.25L160 47v2l3 1 1 9 4 1 .375-1.875C169 56 169 56 171 54c-.266-5.415-1.105-8.395-4-13l1-3c3.11 1.513 4.85 2.79 6.875 5.625 2.315 6.944.238 13.014-2.875 19.375 2.135-1.922 3.371-3.619 4.875-6.125C179 54 179 54 181.75 53.125L184 53v5l-4 2 1 4 14-1 2-5c2.125-.812 2.125-.812 4-1-1.071 5.126-2.343 10.028-4 15v3h3l-1-8 2.25-.437c2.678-.499 2.678-.499 4.938-1.25L208 65c2 2 2 2 2 5h5v4h-2v2l1.695.12c7.57.637 14.885 2.095 22.305 3.693l3.656.751c8.999 1.923 18.018 3.985 25.282 9.936l2.152 1.719c1.998 1.863 3.554 3.401 4.91 5.781-.019 12.357-5.862 24.607-12 35 1.417.147 2.833.293 4.25.438l2.734.285c2.091.192 4.186.343 6.282.461l3.234.191 3.031.148L283 135l2 3c-1.612 1.612-3.608 1.587-5.812 2-3.091.584-6.144 1.205-9.188 2v2l2.188.125C275 145 275 145 277 148c1.943 2.645 2.896 2.98 6.207 3.617 3.272.234 6.513.373 9.793.383l2-6 4 2-1.277 2.336-1.66 3.039-1.653 3.023A157.16 157.16 0 0 0 292 161h-2l-1 6c2.938 2.503 5.179 3.469 9 4-.506 2.169-1 4-2 6l9-1 1 3a89.814 89.814 0 0 1-4 4h-2l-2 5 3.125-.187c4.11.198 6.364 1.132 9.875 3.187l-1 3h-7v2l2.563.813C309 198 309 198 312.25 199.563c4.403 1.959 8.989 2.159 13.75 2.437v3c-2 1.688-2 1.688-4 3 .376 2.51.589 3.679 2.629 5.273l1.934 1.102c3.359 2.249 3.359 2.249 4.062 5.625-.625 3-.625 3-2.187 5.563-1.66 2.342-1.66 2.342-1.438 5.062.856 2.501.856 2.501 3 4.188 2.908 1.151 4.064 1.266 7.063 1.125 6.018-.234 11.449 1.716 16.937 4.062 2 2 2 2 2 5l-7 1v2l9 2v3c-3.074.904-4.675 1.111-7.75.063-4.167-1.363-7.908-1.237-12.25-1.063v3l1.953.227c4.281 1.086 7.914 3.079 11.797 5.148l2.363 1.211 2.246 1.187 2.046 1.076C360 265 360 265 361 268h-2v2l2.117.262c2.723.42 5.265.875 7.883 1.738 1.625 2.625 1.625 2.625 2 5l-4 2v2h-2l2 6 3.313-.187c3.687.187 3.687.187 5.625 1.312C377 290 377 290 376.813 292.688c.284 5.032 2.745 7.767 6.187 11.312 3.158 2.683 6.426 4.908 10 7l2.188 1.313c3.986 1.876 6.02 1.954 10.265.523A128.62 128.62 0 0 0 415 308l1 4c-1.581.817-3.164 1.63-4.75 2.438l-2.672 1.371C406 317 406 317 403.734 317.473L402 318l-1 3 7-2v3l2.75-1.5C414 319 414 319 418 319l-1 8c4.599 0 5.203-.635 8.563-3.5 4.118-3.5 4.118-3.5 7.437-3.5l-1 4-4 1-1 4h2l2-3h4v2c6.864-.549 10.866-2.53 15.375-7.75L452 318l3 1v8l2.688-.5c5.476-.827 9.087-.444 14.312 1.5l-1 6c2.452-.106 2.452-.106 5-1 1.375-2.476 1.375-2.476 2-5 2.915 1.074 4.778 1.778 7 4v3c5.65-1.784 9.254-3.697 13.457-7.891L500 326l3 1-1 6c7.777 3.218 14.643 3.321 23 3 0 3 0 3-1 5 13.744 3.175 13.744 3.175 26.938.063L554 339l4-1-1 10 5 1 1 3 3.563-.937c3.801-.956 7.549-1.577 11.437-2.063l-1 4-5 1v4l3 1v2h3l-1-4c3.088-1.765 4.233-2 8-2l3-9h3c1.719 2.52 1.719 2.52 3.5 5.813 2.632 5.081 2.632 5.081 6.5 9.187 2.913.834 2.913.834 6 0 2.031-2.126 3.535-4.459 5-7l2 1c-.477 1.459-.957 2.917-1.437 4.375l-.809 2.461C611 364 611 364 610 366c6.032-1.953 6.032-1.953 11.938-4.25L624 361l2 1v7l14 2 1-3h2v-6c1.342.298 2.673.641 4 1l2.5.625c2.741 1.508 3.165 2.258 4.563 4.938 1.529 3.538 1.529 3.538 4.187 4.375L660 373l-2-6 3 1c1.188 2.563 1.188 2.563 2 5 1.605-.31 3.209-.623 4.813-.937l2.707-.528c4.375-.944 5.986-1.853 8.48-5.535l4 1-3 7c9.901-.932 19.468-5.743 27.305-11.773C709 361 709 361 711.25 361.313L713 362c0 3.204-.743 5.094-2 8 2.659-1.446 5.316-2.895 7.969-4.352a279.846 279.846 0 0 1 5.625-2.984c6.396-3.347 10.004-6.659 12.406-13.664l3 1v11h2l2 1h2v4c3.794.353 5.559.284 8.813-1.812 2.397-2.072 2.397-2.072 3.187-5.188 1.707-.703 1.707-.703 3.813-1.25 3.306-1.124 4.824-2.073 6.562-5.125 1.918-4.27 1.918-4.27 3.625-8.625h3c1.534 3.069.55 5.701 0 9 1.95-.195 1.95-.195 4-1 1.284-1.984 1.284-1.984 2-4h4v8c9.456-1.603 14.98-6.531 20.859-13.891 2.415-2.379 3.816-2.807 7.141-3.109-.875 5.75-.875 5.75-2 8h2v3h3l.25-2.75c.856-3.711 1.634-5.086 4.75-7.25 2.75.25 2.75.25 5 1l.813 2.813c1.098 2.949 1.811 4.243 4.187 6.187v-5l-3-1 5-15 3 1v7c12.274.674 12.274.674 23.297-3.727 2.077-1.91 2.077-1.91 3.851-3.91C865 328 865 328 867.727 328.293L870 329v7h8v-12h4l1 5c1.583.054 3.166.093 4.75.125l2.672.07c2.692-.204 4.277-.829 6.578-2.195 1 3 1 3 0 6h2l2 2 2-1c.082-3.044-.024-5.072-1-8l2.563.438L908 327l3.375.938c5.206.089 7.971-2.41 11.625-5.938l2-3h3c-.486 3.123-.999 5.996-2 9l5-1 1-8h3l.551 1.645.762 2.168.738 2.144c1.016 2.188 2.157 3.452 3.949 5.043l.813-1.937C943 326 943 326 946 325c.733-2.015.733-2.015 1-4h4c-.523 2.763-1.109 5.326-2 8h2v2h4l1-3c4.949-3.675 9.888-5.61 16-6v-10c4.8 1.2 4.8 1.2 7 4 2.361 4.249 1.92 7.31 1 12 4.847-.811 4.847-.811 8.25-3.937L989 322c1.313-1.75 1.313-1.75 3-3 2.688-.187 2.688-.187 5 0v3l3.5-1.437c4.222-1.578 7.994-2.33 12.5-2.563l2 2 2-2h3l-2 8h3l-1-3 1.875-.25L1024 322l.938-2 1.062-2c2.625-.75 2.625-.75 5-1l1 3-1 2 1.723-.77c1.612-.718 3.225-1.434 4.84-2.148 2.005-.89 4.003-1.796 6-2.707 5.953-2.382 11.066-4.216 17.437-2.375l2.5 1.625c4.54 2.497 9.602.123 14.375-1.187 4.903-1.26 9.084-1.729 14.125-1.438l1 4h-2v2c1.937.081 3.875.139 5.813.188l3.269.105c3.372-.339 3.727-.911 5.918-3.293 2.48-.73 2.48-.73 5.188-1.187l2.73-.481L1116 314c0 3.273-.299 5.847-1 9l2-1 1-3h4v2l3-1c5.169-.461 8.607.083 13.438 2 4.98 1.891 9.288 3.509 14.562 2 3.939-2.356 7.484-5.056 11-8l2 1c-.312 1.938-.312 1.938-1 4l-3 1v2h2v4l1.461-1.312 1.914-1.688 1.898-1.687C1171 322 1171 322 1173 322c-.547 3.375-1.055 5.082-3 8 3.771-.11 7.542-.24 11.313-.375l3.248-.094 3.115-.117 2.872-.095c2.705-.168 2.705-.168 5.452-2.319 2.688.375 2.688.375 5 1v2c1.937.027 3.875.046 5.813.063l3.269.035c2.983.038 2.983.038 5.918-1.098 2.701.16 5.319.604 8 1l2-4 5 1c1.125 5.625 1.125 5.625 0 9 6.605 1.238 6.605 1.238 12.875-.437L1246 334h4l-1.562 2.313L1247 339l1 3 1.833-.016c2.764-.021 5.528-.034 8.292-.046l2.883-.026c4.795-.017 9.271.144 13.992 1.088 1.666.036 3.334.049 5 0l2 6-3-1c5.479 6.321 12.604 6.46 20.43 7.035 2.086.207 2.086.207 5.57.965 1.484 2.07 1.484 2.07 2 4l-2 3c5.21 2.579 10.342 2.405 16.025 2.566 5.773.232 5.773.232 7.975 2.434v3l3 1v2l2.375.125c5.106 1.232 9.44 3.707 13.625 6.875l1 3h3v-2c2.313.07 2.313.07 5 1 1.248 2.345 2.148 4.392 3 6.875 1.792 5.173 1.792 5.173 5.563 9.07 2.3 1.187 2.3 1.187 4.437 1.055 1.645-2.463 1.645-2.463 3-5l5 1-1.125 3.313L1376 403l2 3c3.356-.599 5.378-1.846 8-4l4 2-1 3h2l-2 4h-2c.893 2.358.893 2.358 4.063 3.125L1394 415l-1 5 3 1v2l2.813.063L1402 424c1.742 3.234 2.809 6.371 3.875 9.875L1407 436l2.438.375L1412 437c2.793 4.815 3.344 8.376 3 14l1.652.699c14.179 6.132 14.179 6.132 18.348 10.301v3l-7-2 1.172 1.355c1.616 1.876 3.222 3.761 4.828 5.645l2.375 2.75C1438 475 1438 475 1438 478l2.375.813C1443 480 1443 480 1445 483l-1.125 1.75c-1.122 2.208-1.122 2.208-.25 4.375 1.235 1.983 1.235 1.983 3.25 2.813 3.475 1.737 5.525 4.54 6.938 8.125.187 1.937.187 1.937-.477 3.816-.577 2.182-.577 2.182.809 4.051l1.668 1.945c2.645 3.287 4.066 6.014 5.187 10.125l1.125 2.188C1463 524 1463 524 1463 527l2.438.875C1468 529 1468 529 1469 531c.598 9.57.109 19.196-4 28h6v4l-1 1a289.63 289.63 0 0 0-1.074 9.746c-.394 3.601-.963 6.661-2.457 9.977-3.262 7.278-1.929 13.624.788 20.865A395.617 395.617 0 0 0 1472 616c10.391 24.085 10.391 24.085 7.59 32.969-1.263 4.349-1.016 8.754.41 13.031.04 2.333.044 4.667 0 7h-3l-1 6c3.135 1.858 5.375 2.201 9 2v4h-5l1 5 6 2 1 5c-3.215 1.607-6.436 1.057-10 1 .478 1.771.958 3.542 1.438 5.313l.808 2.988A121.68 121.68 0 0 0 1482 708l-1 2 5 1v3l-2 1c1.074 2.915 1.778 4.778 4 7 .125 2.625.125 2.625 0 5-3.287.8-4.71 1.097-8 0l.77 2.824c1.098 4.053 2.167 8.114 3.23 12.176l.934 3.539c1.592 6.385 3.097 12.858 2.066 19.461l-2 2h-4v-3l-4 1v-3h-2c1.529 6.807 1.529 6.807 5.313 12.5 2.838 1.584 5.56 2.627 8.687 3.5v3c-3.702.947-5.391 1.304-8.875-.437L1478 779l1 3c.067 1.561.085 3.125.063 4.688l-.028 2.449L1479 791l4 1v3l-5 1c1.451 5.993 3.18 11.608 5.688 17.25 1.991 4.579 2.875 7.798 2.312 12.75h-3v-6h-4c-.889 3.303-1.463 6.623-2 10h3l-.324 1.688c-.827 5.265-.473 8.48 1.601 13.343 1.321 3.597 1.21 6.135.723 9.969-1.413 2.758-2.927 4.631-5 7h-2v-2h-2c-.288 3.05-.46 5.963 0 9 2.391 1.935 2.391 1.935 5 3v3h-3l.98 2.512c1.121 3.834 1.365 7.343 1.333 11.301l-.015 2.129c-.119 5.284-.401 10.497-3.298 15.058-2.687 1.563-2.687 1.563-5 2-.421 2.246-.421 2.246 0 5l2.5 2.938c2.5 3.062 2.5 3.062 3.188 5.937-1.228 5.578-4.621 9.798-9.395 12.863L1463 936l.402 3.402.536 4.536.263 2.228c.18 1.522.356 3.045.529 4.568.247 2.072.537 4.138.833 6.204.845 7.657.54 15.43.5 23.125-.006 1.645-.01 3.29-.014 4.935-.011 4.001-.028 8.001-.049 12.002h-4c-4.467-4.527-5.671-9.858-6-16h-3l.402 1.688a109.789 109.789 0 0 1 2.246 13.21c.416 2.482 1.141 4.771 1.915 7.165 1.484 4.715 2.431 9.204.687 14-.351 2.72.872 4.138 2.422 6.289 1.972 2.447 4.09 4.756 6.254 7.035L1468 1032l-1 3c-4.904-.42-6.656-2.572-10-6a79.499 79.499 0 0 0-5-2c-.214 10.352.433 20.668 1 31-2.709 1.354-5.009 1.065-8 1l1 6 3 1-.5 3c-1.224 10.083-1.509 19.588 2.5 29-.211 3.794-.307 5.307-3 8-2.125.625-2.125.625-4 1v6l5 1v-2h3v4h-2v2a101.38 101.38 0 0 1-6 2l-2-1c.634 3.693 1.685 6.957 3.063 10.438 2.723 7.433 2.723 7.433 1.937 11.562-1.875 2.875-1.875 2.875-4 5h-2c.398 2.886.79 3.822 3.063 5.75L1446 1153l-.812 2.688c-.584 3.498-.584 3.498 2.187 6.062L1450 1164c1.217 2.435 1.047 3.744.813 6.438l-.168 2.371c-.838 2.847-2.177 3.653-4.645 5.191 1.509 8.896 4.302 16.517 8.131 24.642 7.086 15.104 8.045 33.728 2.467 49.592-1.833 4.82-3.73 9.464-6.598 13.766l8-1v4l-3.375.688c-3.712.921-3.712.921-5.062 3.625-.557 2.656-.718 4.982-.563 7.687l-3 1-1 2 2.813-1c3.187-1 3.187-1 6.187-1-1.306 3.918-2.831 6.326-6 9h-2v2h-2l.07 2.965c.16 11.601-1.481 20.365-6.07 31.035 4.06-2.038 4.06-2.038 6-6l3 1c-.554 3.889-1.633 6.276-3.937 9.438-4.515 6.571-5.376 11.726-5.063 19.562l6 1c-.598 4.143-2.007 7.182-4.062 10.813l-1.661 2.957L1437 1368l4 1c-.398 2.864-.686 4.623-2.562 6.875-2.167 3.203-1.96 5.342-1.438 9.125 1.465 2.325 3.062 4.014 5 6-3.625 5.75-3.625 5.75-7 8-2.687.125-2.687.125-5 0v4l4-1c-1.498 3.112-3.199 6.053-5 9l4 1v2c2.191-.822 2.191-.822 2.852-3.066l.773-2.496.789-2.504.586-1.934 4 1c-.506 2.169-1 4-2 6h-2c-.821 6.16-1.022 11.991-.742 18.203-.307 3.325-1.257 5.149-3.258 7.797h-2l-1 4h-2v3l2.875.813C1435 1446 1435 1446 1437 1449c-3.766 1.255-5.372.371-9-1-.414 6.902-.503 12.096 3.039 18.125 1.981 3.866 2.269 8.116 1.524 12.375l-.563 1.5-4 1 .691 2.266.872 2.984.878 2.953c.562 2.812.362 4.122-.441 6.797.908 2.067.908 2.067 2 4v3l-6-2 .559 1.703c.515 2.68.162 4.412-.496 7.047l-.59 2.422L1425 1514l-6-1 1.426 1.609 1.887 2.141 1.863 2.109c4.824 5.661 4.824 5.661 4.824 9.141l-4 1 .402 2.012L1428 1544l-4-1v4h-2l.875 2.422c2.334 6.904 3.42 12.648 3.133 19.922-.007 2.448.252 4.219.992 6.531 1.032 3.224 1.164 5.765 1 9.125l-6-1-.297 1.688c-1.116 5.693-2.925 10.22-5.703 15.312l-3.187-.125c-6.97.228-11.107 3.215-15.813 8.125-4.79 6.502-5.789 12.376-5.875 20.313l-.102 2.955c-.113 4.143-.115 7.722.977 11.732.889 10.916.161 24.093-6.625 33.25-2.51 2.361-4.694 3.345-8 4.266l-2.69.76c-2.422.653-4.846 1.301-7.271 1.943-11.921 3.162-23.288 7.302-34.644 12.086-15.393 6.336-15.393 6.336-23.27 3.383-2.5-1.688-2.5-1.688-4.5-3.688-.197-4.14-.308-7.077 1-11l-1.893.551c-2.867.824-5.736 1.641-8.607 2.449l-2.977.867c-13.495 3.779-13.495 3.779-19.398.571-2.821-3.236-3.58-5.149-4.125-9.438 1.473-10.163 6.239-20.673 10.91-29.801 3.71-7.291 5.474-13.093 5.672-21.383 1.217-11.11 6.351-23.179 13.418-31.816l1.344-1.719c1.732-2.155 3.51-4.149 5.562-6.004 2.618-2.847 4.277-5.96 5.969-9.402l1.044-2.119c6.959-14.559 10.44-29.465 12.565-45.385.478-3.12 1.141-6.073 1.954-9.121 1.47-5.71 2.589-11.437 3.562-17.25l-5 1c0-4 0-4 2.313-6.375L1331 1498c1.902-3.05 1.902-3.05 3-6l-1-2-4 1-2-4c4.625-4.753 4.625-4.753 7.121-6.395 2.023-1.442 2.023-1.442 2.524-3.628.504-7.068.073-13.933-.645-20.977l-1.937-.312L1332 1455l-1-3c.926-1.551.926-1.551 2.313-3.312 3.314-4.913 3.707-9.918 4.328-15.711C1338 1430 1338 1430 1339 1428l-3 2h-4c.25-1.812.25-1.812 1-4l1.875-1.187c4.55-3.882 5.395-11.117 6.125-16.813h-3l-2 4-4-1c.654-5.07 2.855-9.42 5-14l-2.937-.75L1331 1395c-.875-2.125-.875-2.125-1-4l8 1c2.584-12.025-.14-21.02-5-32l-2-3c-.195-2.262-.195-2.262-.125-4.687l.055-2.45.07-1.863h-2l.473-2.422c1.341-7.57 2.253-14.992.527-22.578a89.816 89.816 0 0 0-3-4c-2.481-6.003-3.359-11.547-3-18h-2c-3.705-4.019-5.324-7.86-5.187-13.312l.207-2.489c.178-2.495.178-2.495-2.02-5.199v-3l-7-1 .563 1.875C1309 1280 1309 1280 1308 1282c-3.875-.875-3.875-.875-5-2 .185-3.376.455-6.732.771-10.098.4-4.728.4-4.728-1.771-8.902h-3l-2 4-4-1 3-13-7-1v3h-5l-.812 2.938L1282 1259l-3 1c-.968-3.795-.943-6.604-.187-10.437l.574-2.93c.613-2.633.613-2.633 1.738-5.695 1.084-3.64.893-6.804.652-10.571.275-2.918 1.311-4.201 3.223-6.367l-5-1v4l-5-2 1 5-3 2c-2.337-5.33-1.85-8.912-.625-14.375l.461-2.23A414.19 414.19 0 0 1 1274 1210l-1.84 1.855a138.019 138.019 0 0 1-4.722 4.458c-2.871 3.164-3.939 5.715-5.438 9.687l-1 2h-4c.477-9.933 1.738-19.62 3.281-29.434l.367-2.343c.229-1.448.464-2.895.704-4.341.257-1.621.459-3.251.648-4.882l-1-1a199.202 199.202 0 0 1 0-7h-2v2h-3l.961-2.879c1.328-4.647 1.489-9.251 1.664-14.058l.117-2.651c.094-2.137.177-4.274.258-6.412h-3l-.687 2.625c-1.967 5.056-4.748 8.332-9.313 11.375h-3c.677-3.831 1.759-7.379 3-11.062 2.554-8.213 4.393-15.838 1-23.938v-4h-4l-.25 2c-.985 3.94-2.422 7.652-4.75 11-2.137 1.238-2.137 1.238-4 2-1.228-4.25-.689-6.561.938-10.625 2.401-6.738 3.424-13.231 1.152-20.145-.851-2.366-.851-2.366-2.902-2.98L1231 1111a566.56 566.56 0 0 1-5-1l-.551-2.59-.761-3.347-.739-3.34L1223 1098l-3-1-1 8-5 1c-2.582-3.872-1.927-5.36-1.187-9.875l.582-3.68A281.598 281.598 0 0 1 1215 1084l-3-2v-3l-5 2 1 6-4-1 1.188 3.438c1.601 4.803 3.061 9.645 4.5 14.5l.686 2.296c1.626 5.527 1.626 5.527 1.626 7.766h2l-.027 1.809c.273 7.992 2.859 14.301 6.043 21.492 1.631 3.732 3.014 7.521 4.367 11.363a346.849 346.849 0 0 0 5.406 14.371l1.414 3.514c.951 2.348 1.906 4.695 2.867 7.039 4.187 10.45 7.274 21.126 7.93 32.412l.195 2.691c.513 12.823-4.006 24.479-8.82 36.143-1.66 4.062-2.854 7.769-3.375 12.166h-2l-.187 2.563c-.907 3.834-2.344 5.889-4.754 8.921-1.25 1.481-1.25 1.481-1.059 3.516l3 2c-2.987 6.204-6.825 11.555-11 17l3 1c-1.443 3.366-3.333 5.51-6 8h2c-.615 5.538-.615 5.538-2.562 7.875L1209 1309l4 1c-1 3-1 3-3.937 4.938-3.116 1.733-3.116 1.733-4.125 4.187-.938 1.875-.938 1.875-3.563 3.125l-2.375.75 1 8h2c1.491-3.622 3.765-1.457 1 2l6-1c-1.504 3.424-3.506 5.914-6 8.688l-2.125 2.386C1199 1345 1199 1345 1197 1346l-.687 2.813c-1.835 4.454-4.047 5.133-8.313 7.187 1.245 3.736 2.634 4.188 6 6-.573 2.867-.861 3.861-3 6-.462 2.433-.462 2.433-.625 5.125l-.227 2.758L1190 1378l-3 1c-.669 2.842-1 5.316-1 8.25v2.75c-1 1-1 1-4.062 1.063L1179 1391l-1 5h-2a865.59 865.59 0 0 0-.562 6.625l-.317 3.727c-.242 3.593-.242 3.593.43 6.871.681 4.212-.524 6.084-2.551 9.777l-3 1v4h-3c.49 2.278.978 4.557 1.465 6.836.458 2.193.458 2.193 1.535 4.164.07 1.874.084 3.75.063 5.625l-.028 3.039L1170 1450c-3 1-3 1-6.187-.437L1161 1448c-.225 4.124-.427 8.249-.625 12.375l-.195 3.563-.157 3.398-.158 3.142c-.137 2.695-.137 2.695 2.135 4.522v3h-4v7l-3 1-1-2h-3c-1.428 4.461-2.526 8.264-2 13a83.352 83.352 0 0 0 3 4v4l-3 2c-.514 3.341-.514 3.341-.562 7.188-.405 12.286-.405 12.286-3.84 16.554-4.114 3.036-6.78 4.474-11.871 4.067l-2.5-.174c-1.727-.131-3.454-.267-5.18-.406-5.61-.381-9.525-.421-13.961 3.435l-1.711 1.961-1.727 1.914c-5.747 8.58-4.846 16.802-4.355 26.731.249 9.265-1.86 16.09-8.043 23.105-8.982 6.867-23.649 7.061-34.527 8.141-12.421 1.24-24.563 3.073-36.66 6.172-19.079 4.829-19.079 4.829-26.856.902-2.414-1.739-3.273-2.789-4.207-5.59v-4l-2.922.105-3.828.083-3.797.105c-3.624-.308-4.949-.728-7.453-3.293-1.979-5.071-.21-8.507 1.752-13.238 2.067-4.575 4.488-8.917 6.998-13.262l1.6-2.787c3.744-6.416 7.755-12.119 12.65-17.713 3.581-4.549 4.835-8.668 6.223-14.187 3.67-13.281 12.097-22.989 23.277-30.75 18.745-13.36 26.626-36.447 31.17-58.281.608-2.759.608-2.759-.818-4.782l-.852-2c1.336-2.875 1.336-2.875 3.375-6 3.066-4.591 3.066-4.591 3.625-10l3-1-1-3-6 6-3-1c1.1-2.8 2.013-4.01 4.438-5.875 3.023-2.507 4.133-4.481 5.562-8.125l.313-3.562c.919-4.597 3.064-5.612 6.687-8.438 1.869-3.15 1.869-3.15 3-6h-7v-4c5.75-3 5.75-3 8-3l-1-5 2.875-1.687c3.214-2.379 4.081-3.553 5.125-7.313l-3 1c-.845-3.378-1.108-5.675 0-9l-4-1c1.268-3.804 2.645-4.003 6-6 2.753-3.091 3.932-6.209 5.188-10.125l1.042-3.195c.862-2.536.862-2.536.77-4.68l-8 1 2-5h2l1-3h3l1-4h-9v-3l1.898-.586 2.477-.789 2.461-.773c2.329-.751 2.329-.751 4.164-2.852.167-2.584.167-2.584 0-5l-5-1-1-4 3.375-2.125c3.518-2.507 4.866-4.511 5.625-8.875l-1-3c.455-2.738 1.253-5.32 2-8l-1.687 1c-2.616 1.131-4.494 1.157-7.313 1l-1-3 1.875-1.687c2.258-2.181 2.258-2.181 3.188-5L1094 1275l3-1v-8l-3-1v-3l-4-1c.311-4.042 1.342-6.741 3.438-10.125 3.063-5.227 4.401-10.819 4.562-16.875l-2-2c.033-2.729.564-5.297 1-8h-2l-1 5-3-1 3-12c-2.191.822-2.191.822-2.852 3.066l-.773 2.497-.789 2.503L1089 1226h-2l-2 5-6-2 2-5h2c1.112-4.438 1.115-8.77 1.063-13.312l-.014-2.245c-.012-1.814-.03-3.629-.049-5.443h-5l-1 7h-2c-.575-3.735-1-7.213-1-11-1.512-1.564-1.512-1.564-3.5-2.75l-1.969-1.297L1068 1194v2l-3-1-1-7c-3.955 1.283-5.867 2.413-8 6l-1.437 3.625C1053 1201 1053 1201 1050.938 1202.5c-1.938.5-1.938.5-3.938-.5-.625-3.062-.625-3.062-1-6-3.335 2.223-4.005 3.579-5.687 7.125l-1.325 2.758L1038 1208l-3-1 1-7h-4a500.811 500.811 0 0 0-.125 5.75l-.07 3.234c.19 2.941.668 4.54 2.195 7.016h-5v-2l-3 1-2.062-.562L1022 1214c-2.495 2.495-2.359 3.673-2.625 7.125l-.227 2.758L1019 1226c-1.937-.375-1.937-.375-4-1-1.354-2.709-1.065-5.009-1-8l-1 2h-5v3h-3l-.75 2.688c-1.25 3.312-1.25 3.312-3.312 5.875-2.123 2.254-2.123 2.254-2.313 4.937-.938 3.751-3.445 5.572-6.625 7.5-2.34.908-4.537 1.458-7 2-2.458-2.458-2.67-4.653-3.434-7.961-.748-2.693-1.927-4.786-3.566-7.039-4.868-2.434-12.076-1.477-17.187 0l-2.813 1c.752 3.278.752 3.278 4 5v3c-6.015-.354-7.851-1.851-12-6-3.211-.419-3.211-.419-6 0 .23 5.391.23 5.391 2.563 10l1.437 1-1 3c-3.228-.96-4.741-1.661-6.812-4.375C939 1240 939 1240 939 1236h-4v2h2v2c-4.927 1.971-8.78 2.18-14 2v2c-5.728-.234-8.322-1.64-12.422-5.625-1.644-1.611-1.644-1.611-4.578-2.375l1.059 2.703 1.379 3.547 1.371 3.516c.893 2.424 1.649 4.717 2.191 7.234-1.687.688-1.687.688-4 1-4.107-1.895-6.948-4.707-10-8l-1.812-1.875c-1.707-3.054-1.386-5.696-1.188-9.125l-4-1v3h-2l-1 4h-4v4l4 1-2 4c-3.535-1.414-4.377-2.654-6-6a254.071 254.071 0 0 0-4-3v-2c-3.465.729-6.767 1.539-10 3-1.761 3.018-1.761 3.018-2 6-2.875.125-2.875.125-6 0-3.006-3.006-2.596-5.824-3-10-5.787 1.802-8.074 2.567-11 8-3.926 2.29-7.524 2.471-12 2-3.125-1.812-3.125-1.812-6-4-2.443-1.917-2.443-1.917-5-3a78.07 78.07 0 0 0-5 2c-3.125.063-3.125.063-6-1-2.242-3.961-3-6.434-3-11l-7-1 .586 2.125c.811 2.957 1.615 5.915 2.414 8.875l.645 2.371c.884 3.365 1.355 6.119 1.355 9.629-2.564-.383-3.778-.777-5.633-2.637-2.962-4.071-4.834-7.528-6.367-12.363l-3-1-1-3-4-2v9l-3 1v-9l-1.898 1.094-2.477 1.406-2.461 1.406C773 1238 773 1238 771 1238l.688 1.813c.312 2.187.312 2.187-.875 4-1.813 1.187-1.813 1.187-3.938.937C765 1244 765 1244 764 1243a140.101 140.101 0 0 1-1.062-5.562l-.536-3.067L762 1232h3l-2-2.875c-2-3.125-2-3.125-2-5.125h-2l2 11h-4l-1.625-1.75c-3.075-2.913-6.247-3.819-10.23-5.125-2.145-1.125-2.145-1.125-2.946-3.25L742 1223h-4l1.5 2.625c1.548 3.482 1.768 5.623 1.5 9.375h-4l-.594-1.828c-1.69-4.516-2.975-7.457-7.406-9.672-3.232-1.363-6.469-2.5-10-2.5l-2 5h-3l-2-5-2.125.586c-5.61 1.54-11.225 3.028-16.875 4.414-1-2-1-2-1.437-4.437-.449-2.786-.449-2.786-2.563-5.563-2.552-1.205-2.552-1.205-5-2v-3h-6v2h2l-1 4c-2.187.313-2.187.313-5 0a280.61 280.61 0 0 1-5-5c-2.678-.872-2.678-.872-5-1v2l3 1c2.297 4.836 2.619 9.744 2 15-1.312 3.5-1.312 3.5-3 6l-3 1-1 2 2.438-.062C667 1238 667 1238 668 1239c0 3.491-.179 6.028-2.488 8.762-3.066 2.711-5.437 4.464-9.512 5.238l1 4h-4c-1.361 2.242-2.061 3.478-1.75 6.125.687 2.075.687 2.075 2.75 3.875 3.597-.323 3.597-.323 7-1 .766 3.55 1.214 6.217.25 9.75-3.628 3.628-8.311 4.299-13.25 5.25h-2v2h2c-.184 1.828-.184 1.828-1 4-2.285 1.484-2.285 1.484-5.062 2.75l-2.786 1.297L637 1292l.035 2.52.028 3.293.035 3.269C637 1304 637 1304 636 1307c-3 2-3 2-6 2v3.375c-.692 6.128-5.024 10.205-9 14.625l2.75-2c3.25-2 3.25-2 7.25-2-.948 2.912-1.913 5.786-3.062 8.625A41.323 41.323 0 0 0 626 1338h-2v2c-3.287 1.271-6.575 2.54-9.863 3.809-2.03.772-4.077 1.503-6.137 2.191-.296 5.322-.296 5.322 2 10 .125 2.688.125 2.688 0 5-2.076.553-3.844 1-6 1a99.594 99.594 0 0 0-1.43 12.113c-1.778 28.92-8.552 55.891-15.57 83.887l-1 4h2c1.125 4.75 1.125 4.75 0 7-1.376 9.632-1.17 19.295-1 29l.054 3.229c.067 3.383.159 6.764.259 10.146l.067 3.26c.187 5.32.347 8.96 3.62 13.365v3h-2c.343 14.066 1.523 28.568 6 42-.082 1.814-.19 3.626-.312 5.438-.101 6.382 1.918 10.385 4.988 15.867 1.654 3.367 1.551 5.995 1.324 9.695 1.408 2.764 1.408 2.764 3 5v2h-2l1.094 2.457c2.794 6.667 4.225 11.715 3.816 18.914.133 3.874 1.633 6.868 3.211 10.359 1.209 3.122.939 5.948.879 9.27.629 2.247 1.41 4.41 2.199 6.605 2.345 7.012 4.074 14.832 2.051 22.083C614 1683 614 1683 611.938 1685c-2.316 2.39-2.855 3.686-2.938 7 .98 1.348 1.98 2.682 3 4l-1 4h-9l-.437 2.75c-.427 2.465-.914 4.838-1.563 7.25-2.25-.125-2.25-.125-5-1a124.52 124.52 0 0 1-4-6l-3-1c-.916 9.421 1.609 17.275 4.415 26.118 3.095 9.951 2.965 18.462.773 28.507l-.502 2.484c-1.27 5.961-2.504 10.946-7.209 15.141-4.61 2.32-9.041 2.936-14.102 3.75-12.547 2.285-23.394 6.898-34.922 12.16-5.173 2.353-10.368 4.25-15.799 5.917-2.742.954-5.172 2.157-7.716 3.548-7.543 3.904-14.794 5.206-23.063 3.078C488 1802 488 1802 485 1800c-.795-4.409-1.039-8.526-1-13l-2.535.805c-6.459 1.96-12.86 3.645-19.527 4.695l-3.661.594c-3.277-.094-3.277-.094-6.148-1.688-2.611-2.951-3.037-4.485-3.129-8.406 2.395-11.366 8.013-22.258 12.695-32.812l1.206-2.718a627.84 627.84 0 0 1 2.025-4.514 49.454 49.454 0 0 0 3.387-10.581c.557-2.46 1.12-4.918 1.687-7.375l.524-2.324c4.355-18.748 13.175-33.187 24.735-48.368 8.277-11.129 13.885-26.323 13.741-40.308a214.548 214.548 0 0 0-1.125-6.375c-1.199-6.945.051-11.988 2.125-18.625 10.594-36.091 7.2-76.057.625-112.562l-.445-2.496c-1.561-8.673-3.308-16.981-6.298-25.296-.858-2.574-1.422-5.054-1.905-7.72-.996-5.45-2.768-10.522-4.602-15.738-13.333-39.119-13.333-39.119-14.375-59.188l-.19-3.036c-.209-3.425-.39-6.85-.56-10.276l-.174-3.255c-.294-7.578-.55-16.486 2.924-23.433l-3-1 1-6-4-1 .875-3.77c1.983-8.798 3.86-17.146 3.125-26.23l-3-1v-2h-5l-1-5h-3c.966-2.154 1.746-3.767 3.5-5.375 2.09-2.264 2.655-4.702 3.5-7.625l-8-1v-2l-3-1v-2l-4-1c.9-2.83 1.765-5.543 3.125-8.187 1.092-1.928 1.092-1.928.875-4.813h-7v-3a150.253 150.253 0 0 1 6-4c1.322-2.645 1.097-4.678 1.063-7.625l-.028-3.039L467 1247l-3-1v-2l-1.875 2c-2.125 2-2.125 2-4.125 2l-2 6h-5c.654-3.486 2.069-6.003 3.938-9 1.83-2.95 3.561-5.868 5.062-9l-6 2-2-2c.395-2.451 1.213-4.639 2-7h-3v-4l-6 2v-2l-7 1 1 2.063c1.224 3.596 1.398 6.154 1 9.937-.955 1.35-1.916 2.697-2.926 4.008-1.543 2.863-1.964 5.743-2.574 8.93-1.055 5.51-2.323 9.46-5.5 14.062l8-1c-.314 5.187-3.3 8.595-7 12h-2l-.25 1.688c-.75 2.312-.75 2.312-2.875 4.687-2.237 2.539-2.237 2.539-1.625 5.938L424 1291h3v-2h2l1 4-2.437 1.188c-2.794 1.581-2.794 1.581-3.375 4.5L424 1301l2.375-2.375L431 1294h3c-.526 4.377-2.029 6.748-4.812 10.125l-2.083 2.57C425 1309 425 1309 422.758 1310.445c-2.034 1.468-2.034 1.468-2.184 4.227l.114 3.078.097 3.227c.173 2.425.431 4.755.84 7.148L422 1331l-2 2c-1.09 5.938-1.154 11.873-1.291 17.898-.262 11.396-.838 22.039-3.709 33.102-.525 2.249-1.046 4.499-1.562 6.75l-.747 3.23L412 1397l-.598 2.551c-1.797 8.56-1.937 17.234-2.289 25.946-.135 2.986-.332 5.965-.537 8.946-1.318 19.612-.203 39.012 1.16 58.589.183 2.748.353 5.495.503 8.245l.121 2.145c.11 1.962.214 3.925.318 5.887.621 7.126 2.087 14.162 4.451 20.918.871 2.773.871 2.773.371 5.523-1.347 8.759 2.849 17.111 6.16 25.027C423 1564 423 1564 424 1567l-2.312-.062c-2.79-.067-2.79-.067-5.688 1.062.692 5.587 1.386 11.174 2.081 16.76l.707 5.698c.339 2.735.68 5.471 1.021 8.206l.315 2.558A312.545 312.545 0 0 0 422 1614c.335 7.223.002 14.471-.375 21.688l-.093 2.106c-.298 4.972-.298 4.972-2.532 7.206-3.618.381-5.884-.153-9-2-2.043 4.524-3.01 9.164-4 14-1.937-.812-1.937-.812-4-2l-1-3h-3l-.168 1.864c-.253 2.796-.511 5.591-.769 8.386l-.264 2.934-.264 2.832-.238 2.602c-.297 2.382-.297 2.382-.84 4.477-.748 3.121-.234 6.24.043 9.405.515 6.944.459 13.582-.5 20.5l-.34 2.457c-.998 5.58-2.848 10.287-6.66 14.543-5.878 3.627-12.243 4.835-18.992 5.711l-2.837.404c-1.989.284-3.979.562-5.97.836-19.395 2.675-38.413 5.962-57.378 10.872l-3.198.822-2.875.753c-5.955 1.304-10.793 1.563-16.312-1.148-3.24-2.991-3.24-2.991-3.438-6.25a833.335 833.335 0 0 1 0-5l-2.668.141-3.519.109-3.481.141c-4.011-.471-5.591-1.462-8.332-4.391-.594-2.078-.594-2.078-.5-4.25l.031-2.141c1.309-7.285 4.874-13.447 8.594-19.734l1.465-2.516a245.598 245.598 0 0 1 8.143-12.974c4.773-7.093 7.636-14.258 10.267-22.385 3.183-9.196 7.509-15.772 14-23l2.184-2.512c2.683-3.069 5.359-6.054 8.316-8.863 11.922-12.518 15.671-24.608 16.957-41.41l.244-3.156c.154-2.072.297-4.144.426-6.217l.213-2.975.168-2.621c.445-2.939 1.118-5.602 1.929-8.455 5.644-20.152 5.01-41.398 4.886-62.142-.014-3.033-.009-6.066-.004-9.099.05-32.783.05-32.783-6.069-64.862-.361-1.295-.721-2.591-1.08-3.887a301.172 301.172 0 0 0-7.662-23.59c-3.271-8.919-5.843-18.097-8.508-27.211l-1.004-3.395c-3.023-11.062-4.352-22.742-5.453-34.14-.809-8.251-2.328-15.709-4.856-23.616-1.623-5.2-2.178-9.448-1.687-14.849l-1.922-.82C296 1293 296 1293 294.75 1290.125 294 1287 294 1287 294 1283l-9-2-1-4 2-1c2.17-1.759 2.17-1.759 2.23-3.91-.04-2.031-.133-4.061-.23-6.09l1-2-1.5 1.563c-3.747 2.154-6.308 1.205-10.5.437l2-12c-7.272-.909-7.272-.909-14.5-.375-2.5.375-2.5.375-4.437-.812C259 1251 259 1251 259.25 1249.125L260 1247c.876-3.505.94-5.553 0-9-.038-2-.045-4.001 0-6l-2.25.25c-2.75-.25-2.75-.25-5.062-1.875-2.145-3.018-1.762-4.737-1.688-8.375a3633.27 3633.27 0 0 0-1.625-2.562L248 1217c.813-2.812.813-2.812 2-5h-3l-1 4c-2.312.625-2.312.625-5 1l-3-2c.999-2.997 1.651-4.027 4-6h2v-5l-1.898.289-2.477.336-2.461.352L235 1205l-2-2c.309-1.339.65-2.671 1-4 .097-2.673.045-5.324 0-8h-6c0-3.606.817-4.413 3-7.187l1.688-2.168L234 1180l-1.703.961c-2.449 1.108-4.381 1.429-7.047 1.664l-2.422.227L221 1183v-3h2v-2l-11 2 1-4c-3.438.181-3.438.181-7 1l-.859 1.934C204 1181 204 1181 201.32 1182.082l-3.195.731-3.18.769c-2.766.393-4.349.34-6.945-.582v-3h4v-3l-2.687 1.063c-3.375.955-5.01.909-8.313-.063l-1-3c-4.078-.185-6.42.152-10 2-2.625.313-2.625.313-5 0l-2-3 4-2v-3l-2.062 1c-3.506 1.193-6.255 1.273-9.938 1l-3-2v-3l2.938-.875c3.169-.767 3.169-.767 4.062-3.125l-1.754-.855c-5.88-2.997-10.687-6.333-15.246-11.145a97.368 97.368 0 0 0-4-3l-.113 1.898-.199 2.477-.176 2.461C137 1156 137 1156 134 1158c-.982-4.053-1.082-7.839-1-12l-4-1-1.367-5.957c-.613-2.32-.613-2.32-2.633-5.043-3.51.453-6.33 1.565-9.5 3.063-3.321 1.535-5.776 2.417-9.5 1.937v-3l2.875-1.875c3.305-2.247 4.081-3.368 5.125-7.125h-2v-2h4v-3h-3v-2l-1.75 1c-2.25 1-2.25 1-6.25 1l-2-10-3.062.188c-4.493-.214-6.949-1.234-10.938-3.188l1-10c-3.984-1.172-7.921-2.228-12-3-1.335-.325-2.67-.655-4-1-.687-2.312-.687-2.312-1-5l3-3c-.261-2.675-.8-4.601-2-7h3l-1-3c-4.359-1.282-6.789-.491-11 1-2.812.188-2.812.188-5 0-1-1-1-1-1.375-3.25.375-2.75.375-2.75 2.938-4.875 2.71-2.599 2.71-2.599 2.546-5.637A105.242 105.242 0 0 0 63 1056l-9 1c0-5.122 1.794-6.168 5-10 .865-2.721.865-2.721 1-5-1.963-2.048-3.428-2.95-6.27-3.199-2.25.01-4.484.069-6.73.199-.554-3.462-1.013-6.676-.875-10.187-.149-3.362-1.101-4.222-3.125-6.813-1.643-5.614-.661-11.282 0-17h-5l-2 4h-3l-1-3c1.044-1.697 2.089-3.394 3.137-5.09 1.413-3.127.685-5.685-.137-8.91l-1-2c.087-1.879.242-3.755.438-5.625l.308-3.039L35 979l-2.266 1.348-2.984 1.715-2.953 1.722C24 985 24 985 21.641 984.684L20 984c-.684-1.801-.684-1.801-1-4 1.215-1.605 1.215-1.605 2.938-3.187 2.675-2.867 3.466-4.503 3.375-8.438l-.2-2.164C25 964 25 964 26 959l-11-1-1-3 1.863-.34c2.637-.643 4.772-1.316 7.137-2.66 1.711-2.868 2.368-5.744 3-9 .329-1.335.66-2.668 1-4l-4-2c0-3.517.824-4.371 3-7l-2.312 1.5C21 933 21 933 18 933c-.625-2.312-.625-2.312-1-5l2-3h2c.934-4.531.934-4.531 0-9l1-2-2.012-.184c-8.77-.832-8.77-.832-12.988-1.816.418-2.928.852-3.869 3.125-5.875 2.199-2.02 2.199-2.02 1.875-5.062-1.11-3.401-2.722-5.344-5-8.063v-3l-12 1v-3l2.375-1.312C.707 884.546 1.081 882.761 2 879l-6 2-2-4 1.715-1.391 2.223-1.859 2.214-1.828C2.368 869.936 2.368 869.936 3 866l-12 1-2-4 1.934-.805 2.504-1.07 2.496-1.055c2.223-.894 2.223-.894 3.066-3.07l-1.812 1C-5 859-5 859-8 859v-3l3-2c-.45-2.272-.911-4.543-1.375-6.812l-.773-3.833c-.68-3.457-.68-3.457-2.852-6.355l-1.75.438L-18 839c-1.564-3.129-1.28-5.527-1-9 .909-2.168 1.952-4.166 3.125-6.203 1.094-1.913 1.094-1.913.875-4.797-2.585 1.149-4.345 2.302-6.5 4.188C-24 825-24 825-26.312 824.75L-28 824c1.796-4.043 4.44-6.805 7.441-10 1.623-2.082 2.335-3.376 2.559-6l-2-2-.371-1.984c-.45-2.173-.45-2.173-2.477-3.282l-2.214-.984-2.223-1.016L-29 798l-.812 2.438L-31 803l-3 1-4-4c1.393-3.367 2.979-4.986 6-7l-.895-2.172C-36.663 781.188-37.5 773.999-35 764h-11l-1-4 2-3h2l3-11-4 1-2-1c-1.286-6.429-1.286-6.429 0-9h-2c.51-3.773 1.207-5.45 4-8v-2h-5c-1-2-1-2-.258-4.426l1.133-2.886c2.133-5.466 3.266-10.121 3.188-16l-.028-2.676L-45 699c-4.537 1.345-6.051 3.023-8.312 7.125l-1.551 2.758L-56 711l-3-1c.581-3.76 1.652-6.53 3.563-9.812l1.378-2.395L-53 696h2c-2.006-2.758-3.855-3.291-7.062-3.937-3.757-.807-3.757-.807-5.438-3.188L-64 687c1-1 1-1 4.813-1.125 2.876.031 5.435.208 8.187 1.125l1-2h-5c-2.635-7.906-2.18-15.769-2-24-2.432 2.34-4.262 4.4-6.125 7.25L-65 671h-2c-.801-6.942 1.283-10.957 4.531-17.039 3.055-6.159 3.758-12.167 3.469-18.961h-2l-.25 2.188c-.913 3.424-2.292 5.282-4.75 7.812h-3c.458-2.137.947-3.903 2-5.828 1.137-2.47 1.402-4.469 1.625-7.172l.227-2.562c.13-2.143.148-4.292.148-6.438h-3l-.148 2.082-.227 2.731-.211 2.707C-69 633-69 633-71 636h-2c-2.722-5.444-2.012-12.811-.21-18.488a174.103 174.103 0 0 1 4.364-10.406c3.117-6.945 4.158-12.588 1.409-19.981l-.809-2.242c-.741-1.927-.741-1.927-1.754-3.883-2.369.526-4.347 1.161-6.562 2.188L-79 584l-3-2v-3l1.938-.875c2.214-.953 2.214-.953 3.062-3.125.476-5.117-.933-8.369-3-13-.398-1.988-.755-3.987-1-6l-3 1-2-1-.184 2.336-.253 3.039-.247 3.023C-87 567-87 567-88 569l-4-1 .105-2.633c.154-6.521-.063-10.548-3.105-16.367-.017-3.068.441-5.989 1-9l.563-3.062L-93 535l-5-3c.257-1.44.531-2.877.813-4.312l.457-2.426c.827-2.561 1.838-3.408 3.73-5.262l2-5h-13c1-5 1-5 3.438-6.812C-98 507-98 507-96 507l-.875-1.652c-2.396-4.867-3.553-8.579-3.168-14.012.058-3.173-.487-6.202-.957-9.336l-2.617.092c-4.086.14-8.172.275-12.258.408l-2.254.075c-8.952.292-17.876.458-26.834.341-18.571-.233-30.21 3.526-46.224 13.209-13.799 8.301-32.708 16.005-49.278 12.328-1.881-.73-3.711-1.589-5.535-2.453a113.673 113.673 0 0 0-4.625-.937c-4.233-.9-6.887-2.412-10.375-5.063l-2.32-1.582c-5.753-3.983-11.016-8.33-16.18-13.043l-1.816-1.631c-5.023-4.674-7.897-9.101-8.371-16.119l-.2-2.648L-290 463l-1.906-.008c-7.012-.317-11.112-2.052-16.094-6.992-7.208-7.927-9.622-15.24-9.437-25.93.438-5.626 2.041-11.023 3.658-16.409 2.488-8.395 2.086-14.056-1.658-21.911-5.504-11.943-5.504-11.943-4.563-18.75 1.688-2.875 1.688-2.875 4-6 3.706-5.974 5.521-11.815 6.938-18.625 1.448-6.765 3.159-11.33 8.062-16.375l4.375-4.937a763.23 763.23 0 0 1 6.559-7.137c6.007-6.557 11.22-13.665 16.497-20.809 3.021-4.076 6.082-8.122 9.134-12.175a562.832 562.832 0 0 0 7.283-9.895c4.972-6.92 10.062-13.356 15.894-19.582 2.622-2.862 4.948-5.873 7.289-8.965 2.515-3.194 5.178-6.245 7.844-9.312 3.788-4.365 7.39-8.781 10.813-13.438 3.439-4.679 7.122-8.975 11.05-13.246 6.165-6.825 11.838-14.081 17.262-21.504h-4c1.013-3.04 1.408-4.212 4-6 3.188.313 3.188.313 6 1v-3h-2c1-3 1-3 2-4l-1.73-.262c-12.623-2.187-21.674-6.515-31.082-14.968-3.792-3.38-7.965-6.061-12.219-8.821-8.684-5.701-16.263-11.965-23.457-19.406a81.436 81.436 0 0 0-6.449-5.855c-5.578-4.733-10.095-10.558-14.748-16.173-1.319-1.568-1.319-1.568-2.949-3.069-1.885-1.995-1.877-3.757-2.366-6.446l-1.562-3.375c-1.645-4.147-2.273-6.223-1.438-10.625 5.21-9.445 14.289-12.15 24-15l3.082-.926c28.476-7.433 57.169-9.007 83.206 5.469C-157.098 85.866-141.534 92.784-128 91c2.533-1.115 4.656-2.5 7-4h3l1 2c1.65 0 1.094-2.833-.375-3.187-4.255-1.299-4.255-1.299-5.887-3.563-.8-1.937-.8-1.937-1.738-5.25 1.688-1.562 1.688-1.562 4-3 2.889.282 5.243 1.081 8 2l-1-5-5-1v-6l3 1-1 2 7 1-2.25-2.187C-118.216 59.711-121.042 54.217-123 46c3-1 3-1 5.875.063 3.71 2.3 5.577 4.414 8.125 7.937v2c.66 0 1.34-2.64 1-4 6.592-.701 10.494 1.504 16 5v-5l-2.312-.812C-96.89 50.049-98.27 49.186-100 47v-2l-6-2v-2l5-1v-2c3.241.312 4.657.643 6.949 3.031l1.739 2.469c2.189 3.29 2.189 3.29 5.312 5.5l-1-4c3.678-1.226 5.882-.703 9.688-.062l3.574.589L-72 46l-1-4-4 1a395.333 395.333 0 0 1-2.562-4.812l-1.442-2.708C-82 33-82 33-81 30c3.123.486 5.996.999 9 2l-.91-1.68-1.152-2.195-1.161-2.18L-76 24l1-2c5.518.502 5.518.502 7.813 2.875C-62.354 29.57-54.4 30.487-48 32l1-2c1.898.257 3.793.531 5.688.813l3.199.457c3.236.759 5.278.524 3.363-.582l-3.234-1.864C-40.46 27.326-42.701 25.744-45 24a202.068 202.068 0 0 0-6-3l1-3 11 3-2.437-1.812C-44 17-44 17-45 14l3-1c2.023 1.18 2.023 1.18 4.375 2.875C-31.623 19.711-25.991 19.978-19 20c-.618-5.796-.618-5.796-3-11-2.155-1.545-2.155-1.545-4.625-2.75l-2.477-1.297L-31 4V2c7.054.564 10.923 2.675 15.625 7.938a567.038 567.038 0 0 1 4.5 5.875C-9.113 18.248-9.113 18.248-6 19v-2l1.898-.262c5.111-.72 5.111-.72 8.79-3.988C5.083 9.266 4.505 7.153 3 4L0 3V0zm994 322 1 2h2v-2h-3zM-91 531v2h2v-2h-2zm1 11c-1.8 4.904-1.8 4.904-1.125 9.938L-90 554c2.6-3.9 2.151-7.474 2-12h-2zm5 11 2 2v-2h-2zm1559 301-1 3 1 2h2v-2h2l-1-3h-3zm-595 385 1 3 1-3h-2z" transform="translate(461 167)" style="stroke-width:4px"/><path d="m0 0-4 2c2.915.81 4.461 1.218 7.313.063L5 1v2c3.492 1.746 6.681.559 10.438-.062C27.887 1.201 35.836 3.196 47 9l-2 2 3.75.688C52.92 12.701 54.676 14.32 57 18l-2.25-.812C49.56 15.544 44.288 14.284 39 13l3.75 1.188A235.845 235.845 0 0 1 54.5 18.5l3.094 1.219C60 21 60 21 61 24c-3.848-.673-7.374-1.787-11.062-3.062C43.486 18.897 37.717 18.564 31 19l1.906.043c5.772.322 9.292 1.321 13.981 4.656 2.403 1.479 4.657 2.14 7.363 2.926C61.666 29.1 66.621 34.556 72 40l-1 2-11-9c2.621 3.276 5.021 6.127 8 9l-5-1 1.68 1.539C71.875 49.376 71.875 49.376 73 55l-1.609-1.242-2.141-1.633-2.109-1.617C65.153 49.108 63.202 48.021 61 47c2.499 3.213 5.072 6.173 8 9l1 1 1-2c4 5.75 4 5.75 4 8l-2 1 2 1.875C77 68 77 68 77 70h-4l1.5 1.375C76 73 76 73 76 75h-4l-1 9c-4.252-4.123-8.136-8.513-12-13l1-2 8 7c-3.983-5.004-8.015-8.73-13.242-12.422L53 62v-3c2.992 1.364 5.29 2.949 7.75 5.125l1.859 1.633L64 67c-4.066-9.825-14.679-15.321-23.836-19.527C37.303 46.141 34.678 44.661 32 43c-2.884-1.442-5.417-1.094-8.625-1.062l-3.602.027L17 42l-1-2-7 1h5l1 2c3.04.76 5.308 1.17 8.375.418C30.7 42.252 40.082 47.923 46 52c4 4.195 4 4.195 4 7-3.199-1.066-5.207-2.175-7.812-4.375-3.719-2.772-7.813-3.835-12.25-4.937l-2.076-.52C23.839 48.235 20.124 47.826 16 48l3.219.77C31.812 51.815 40.572 54.93 51 63c-2 1-2 1-5.004.109l-3.558-1.359-3.567-1.328L36 59l-1-3c-11.873-2.911-11.873-2.911-23 0l-2 2 .5-2.375c.562-2.507.562-2.507.5-4.625-2.259 3.254-2.259 3.254-3 7l5 1 2-4h9v2l-8 1v3l2.563-1.5c3.81-1.663 6.326-1.733 10.437-1.5h3c4.104 1.786 8.033 3.929 12 6l3.129 1.559 2.934 1.504 2.66 1.347C55.416 70.29 56.427 72.146 58 75c1.557 1.795 1.557 1.795 3.188 3.313L64 81l-1 2-2.344-2.484C52.847 72.356 52.847 72.356 43 67c3.804 3.919 7.816 7.491 12 11-3.924 0-5.733-1.461-9.062-3.5-3.719-2.567-3.719-2.567-7.938-3.5l9 5-1 3 1.68 1.391 2.195 1.859 2.18 1.828C53.971 85.971 54.964 87.537 56 90c-3.112-1.498-6.053-3.199-9-5v2l1.813.75C51.286 89.164 52.434 90.651 54 93l-8-4 1 1 .375 1.75C48.139 94.5 49.47 96.605 51 99l-2 1 2 4-1.285-1.207C45.678 99.146 42.054 97.113 37 95c-2.138-1.554-4.034-3.225-6-5 2-1 2-1 3.945-.441l2.18.879 2.195.871L41 92v-2l-2.375-.562c-4.341-1.722-7.641-4.181-11.355-6.977C25.029 80.729 25.029 80.729 22 81c-1.462-.316-2.92-.652-4.375-1C6.501 77.726-6.111 77.819-16 84l-1 3c-1.531 1.508-1.531 1.508-3.5 3.125-5.341 4.526-10.293 9.445-15.074 14.559-1.091 1.156-.106 14.676.574 13.316 1.938.313 1.938.313 4 1l1 3c2.293.889 2.293.889 5.063 1.438 4.332 1.07 7.923 2.418 11.835 4.519C-7.055 130.958-.41 132.921 6 135v1c-9.831 1.269-17.109-2.75-25.735-6.924-3.139-1.491-6.323-2.874-9.513-4.253C-31 124-31 124-32 123v3l11 5-4 1v2c2.756-.498 2.756-.498 5-2 2.964.972 5.907 1.965 8.824 3.07 9.085 3.347 16.983 4.482 26.176.93 2.327-.375 4.66-.719 7-1-3.674-.6-7.083-.999-10.812-.937C8 134 8 134 6 132l2.711-.48c7.063-1.363 13.11-3.002 19.398-6.532C30 124 30 124 32 124l1-3c.976 2.928 1.082 4.956 1 8l2-2v11h1l2-12h1v5h2v-11h-2l-2 4c.071-3.075.248-6.011 1-9 2.563-2.062 2.563-2.062 5-3v11l2-10h1l1-5c2 2 2 2 2.16 5.047l-.097 3.703c-.113 4.581.047 8.75.937 13.25h2l-1-3a194.46 194.46 0 0 1 0-7l2 1c.401-10.699.401-10.699-2-21 4.631 3.55 5.215 7.51 6 13 .411 3.662.739 7.324 1 11 .027-2.521.047-5.042.063-7.562l.025-2.135c.021-4.543-.34-8.821-1.088-13.303 2.313 2.313 2.496 3.479 3.125 6.625l.508 2.477L62 112c1.207-.988 1.207-.988 1.133-2.891-.014-4.163-.085-8.048-1.133-12.109 2 1 2 1 2.812 2.811 2.221 7.201 2.883 14.188 3.313 21.689.145 2.323.293 4.646.445 6.969l.18 3.076c.104 2.458.104 2.458 1.25 4.455l-.48-3.061c-.486-3.683-.721-7.255-.836-10.966l-.127-3.897-.119-4.013-.131-4.096c-.106-3.322-.208-6.645-.307-9.967 3.693 3.458 5.368 6.796 7.063 11.5 1.558 4.258 3.13 7.9 5.937 11.5.188 2.75.188 2.75 0 5h-2l-1-4 .219 2.859c.583 8.066.917 16.048.781 24.141l-2-1a109.352 109.352 0 0 1-1-7l-1 9h-2l-1-12-1 17-3 1v-9l-.113 2.52-.199 3.293a1954.3 1954.3 0 0 0-.176 3.269c-.543 3.093-1.065 4.048-3.512 5.918v-8l-4 14h-1l-1-5h-1l-.375 2.938L56 171l-2 1c-.467 2.126-.467 2.126-.625 4.563l-.227 2.503L53 181h-2v2h-2l-1 10h-2l-1 4c-2.376-3.704-2.205-6.93-2.125-11.25l.055-3.828L43 179h2v8h2l.113-3.883C47.484 172.739 48.346 163.08 51 153l-4 11h-2c-.348-4.637.505-7.809 2.344-11.973.783-2.42.761-4.499.656-7.027-3.441 7.289-5.628 13.968-6.543 21.992-.726 4.781-2.298 8.691-4.457 13.008l-2-9c-2.097 2.36-2.969 3.546-3.187 6.75L32 180h-1l-1 5-2-1 1-11h-2v13l3 1c.762 1.656 1.514 3.319 2.18 5.016 2.352 5.915 2.352 5.915 6.82 9.984l-1.562-2.875L36 196l1-2c3 4.75 3 4.75 3 7l5 2-1 3h-3c-.335 2.332-.335 2.332 0 5 1.896 2.314 1.896 2.314 4 4l-1 3-4-2v3h-5l1 3-4 1 1 3c3.008 1.225 3.008 1.225 6 2l-6-3c3.957-1.319 6.056-.44 9.902.898C46.028 227.54 46.913 229.74 48 233c-6.816.333-11.921.242-18-3v2c3.924 1.665 7.891 2.872 12 4v1c-6 .5-10.058-.034-15.273-3.125-1.85-1.101-1.85-1.101-4.727-.875 7.845 6.026 15.041 8.524 25 8l1-2 3 1v3c-1.555.562-3.12 1.099-4.687 1.625l-2.637.914c-3.291.567-4.706-.092-7.676-1.539l-2.465-.965C26.546 240.286 20.185 237.271 14 233c2.778 3.601 5.74 6.83 9 10-5.196-.44-8.663-.883-13-4 2.87 2.511 5.617 4.36 9.063 5.938C22.694 246.661 24.74 248.61 27 252c-3.699-.888-7.346-1.946-11-3v2c4.842 1.336 8.934 2.253 14 2v3c-7.694.919-12.703-.878-19.434-4.59C8.001 249.901 8.001 249.901 5 249l-2 2-3-1c2.773 3.081 5.063 4.688 9 6l-1.062 1.875L7 260l1 2c-4.999-.476-7.978-2.032-12-5l-1 1c6.037 4.375 11.973 7.506 19 10v-3h2v-2l4 1 1 5-5-1 2 4c-6.515-.414-11.171-2.91-16.812-6.062-1.693-.932-3.387-1.861-5.083-2.786l-2.245-1.25c-1.815-1.047-1.815-1.047-3.86-.902l1.5 1.313C-7 264-7 264-7 267c5.976 7.171 14.167 12.219 23 15-4.214 2.107-9.64.168-14-1-6.509-3.028-10.853-9.123-15.145-14.681-1.469-1.902-1.469-1.902-3.855-4.319h-4c3.421 5.057 7.91 7.835 13 11l-3 1a533.598 533.598 0 0 1-5-4c-2.685-.789-2.685-.789-5-1v2c2.792 2.094 5.687 3.999 8.594 5.93L-10 279v4c1.939 1.947 1.939 1.947 4.438 3.625 4.48 3.212 4.48 3.212 5.562 5.375h-7c2.732 1.748 4.179 2 7.5 2 4.743 0 6.634 1.422 10.5 4v2c-3.835-.49-7.551-1.103-11.312-2-3.285-.776-6.383-1.132-9.75-1.312-5.186-.438-8.965-2.358-12.938-5.688l-1-2h3l-1.937-.75C-25 287-25 287-25.75 284.875L-26 283c3.995 1.37 6.8 3.257 10 6-3.223-4.835-6.826-6.752-12-9v-2h-7v2c-5.294.504-10.721-2.185-10.062-1.25 1.676 2.642 2.599 4.24 3.062 7.25-4.423-.583-9.834-2.5-6 0l3 2v2c-4.056-.468-7.466-.88-11-3l2 1.375 2 1.625v2c-4.961-.558-14.29-5.639-8.156-2.16 3.197 1.842 5.076 3.039 7.156 6.16-7.198-1.241-14.439-2.34-3 1v2l-1.828-.254-2.422-.308-2.391-.317c-2.349-.244-2.349-.244-4.504.465L-69 299a95.146 95.146 0 0 1-5-4c-2.985-1.421-6.28 1.404 1 6l-1 2c-4.988-1.247-12.023-4.018-9.312-1.875C-81 303-81 303-80 306c2.986 1.991 5.597 2.941 9 4l-1.5 1.375c-1.726 1.501-1.726 1.501-1.5 3.625-2.31-.33-19.819-1.96-5.82 1.727L-78 317l1 2c-5.412 1.909-10.033-.742-15-3-6.717-3.768-6.732-1.795-1 2-3 1-3 1-6.5-.375-5.764-3.032-7.247-1.538-1.5 2.375-3 1-3 1-5.305-.074l-2.57-1.613-2.672-1.676c-2.612-1.743-.242 2.534 4.547 5.363 3.457 1.292 6.868 2.31 10.445 3.211L-94 326l1 2c-10.691-1.545-19.679-2.475-14 0-1.691.668-1.691.668-4 1-2.402-1.074-2.402-1.074-4.937-2.687a2724.15 2724.15 0 0 0-2.653-1.676c-2.581-1.753-5.568-.101-2.097 2.238 6.066 4.239 6.066 4.239 8.375 7.375 2.953 3.512 2.365.64.312-2.25 1.437-.169 2.875-.335 4.313-.5l2.425-.281C-103 331-103 331-100 331v-2l10 1v-3c3.375.75 3.375.75 7 2 1.125 2 1.125 2 2 4a77.259 77.259 0 0 0 5 2c4.244 2.564 7.595 5.405 11 9 2.139 2.139 3.133 2.427 6 3v-2l-1.738-.789c-2.436-1.304-4.355-2.786-6.449-4.586l-2.106-1.773c-1.831-1.987-2.318-3.214-2.707-5.852 4.972 1.764 9.434 4.394 14 7-4.727-4.316-9.458-7.598-15.059-10.703L-75 327v-2l3 1-1-4c2.438.688 2.438.688 5 2 .813 2.625.813 2.625 1 5h7l-2.812-1.812c-2.421-1.662-4.155-3.155-6.188-5.188l-3-1v-2c2.25-.75 2.25-.75 5-1 2.313 1.75 2.313 1.75 4 4v3l2.063.625c3.377 1.581 5.67 3.615 8.386 6.133 1.48 1.45 1.48 1.45 3.551 1.242-5.145-4.751-5.145-4.751-10.937-8.625C-62 323-62 323-62.625 320.438L-63 318l-3-2v-2h5l1 3h2v-3l5 1 1 4 3.188.688c3.972 1.106 6.108 3.198 8.812 6.312l-1 1c1.895.961 3.791 1.919 5.688 2.875l3.199 1.617c2.971 1.494 2.971 1.494 5.582 2.453 3.306 1.378 6.302 3.183 9.344 5.055l1.81 1.078c1.496.916 2.942 1.913 4.377 2.922v2c-5.27.454-8.84-1.048-13.375-3.5l-1.941-1.012A455.456 455.456 0 0 1-31 338v2l1.609.742c3.029 1.594 5.803 3.471 8.641 5.383l3.266 2.195L-15 350c-3.057 1.351-4.22.922-7.453-.215a227.318 227.318 0 0 1-3.797-1.722l-1.969-.881A501.117 501.117 0 0 1-33 345l3.027 1.863 3.911 2.45 1.998 1.224c4.951 3.123 4.951 3.123 6.064 6.463-5.288-.591-9.537-2.368-14.312-4.562-4.239-2.302-4.239-2.302-8.688-3.438 7.404 5.251 14.777 10.054 24 11v2l-9-1v2l-1.641-.836c-2.678-1.321-5.388-2.558-8.109-3.789l-2.984-1.352L-41 356l1.363 1.363L-34 363l-10-2 3 3c-3.567 1.209-6.322.827-10 .188l-3.125-.52C-57 363-57 363-59.187 361.863c-1.971-1.195-1.971-1.195-4.813.137l16 8 1-2 5 5c-7.636-.129-12.549-2.625-19.082-6.504-2.965-1.8-2.965-1.8-6.918-1.496l3.375 1.375C-61 368-61 368-59 370l-7 1v2l-10-2v2l5 2-2 1c-6.514-2.514-6.514-2.514-8-4l-4 1 8 4c-4.473 1.118-5.003.713-9-1-1.992-.376-3.992-.72-6-1v2l1.793.191c6.377.989 6.377.989 8.918 3.5 1.352 1.934 1.352 1.934 3.289 5.309-2.23-.284-4.459-.577-6.687-.875l-3.762-.492c-3.143-.56-5.628-1.415-8.551-2.633-2.621 0-4.509.313-7 1v-2h-3v2l-2.375-.187L-112 383l-2 3h3v2c-5.458.111-10.615-.083-16-1v2h29l-10-1-1-2c8.065-.492 15.217.951 23 3v1c-12.599 2.285-25.228 2.651-38 3l-2.319.071c-7.875.224-7.875.224-10.681-.071l-2-2 7-2-9-2v-3l10 1-4-2c2.583-.195 5.166-.381 7.75-.562l2.211-.17c3.589-.245 6.589-.265 10.039.732v-2l-2.336.035-3.039.028-3.023.035C-126 381-126 381-128 380v-2l-2.875.25c-5.133.042-9.524-2.176-14.125-4.25v-2l2.266.656 2.984.844 2.953.844c2.967.808 2.967.808 6.797.656-1.497-1.497-2.988-1.332-5.062-1.562L-139 373l1-3-2-1 2-1-18-1v2c-5.353 2.734-9.972 4.027-16 3-2.409-1.096-3.95-2.266-6-4v-1l13 1-2-1v-2l12-2-2-1v-2l9 2v-2l-3.687-.062c-9.171-1.003-17.075-6.441-23.313-12.938-2.166-1.295-2.166-1.295-4-2l2 5h-3l3 5-5-2 2 5-4-1 3 4-5-1v2l-1.937-.5c-1.871-.539-1.871-.539-3.063-.5l2 3-5-2-2 2 2 4-2 1c-2.125-.937-2.125-.937-4-2 .645 1.459 1.291 2.917 1.938 4.375l1.089 2.461c.63 1.401 1.286 2.79 1.973 4.164-3.741-1.247-5.258-3.193-8-6a206.402 206.402 0 0 0-5-4l2.313 2.188c2.398 2.51 4.041 4.78 5.687 7.812l-2.125-.875c-2.93-1.146-5.884-2.151-8.875-3.125l2 3a56.53 56.53 0 0 1-7-4v2l1.75.75c2.55 1.417 4.268 3.126 6.25 5.25-3.492-1.111-6.766-2.275-10-4-1.332-.669-2.666-1.336-4-2l1.129 1.68 1.434 2.195 1.441 2.18L-217 383l-1 2-1-3c-2.504-1.219-2.504-1.219-5-2 1.443 3.366 3.333 5.51 6 8l-9-2c2.373 5.025 5.211 6.56 10 9l-1 2-15-9c1.112 3.335 2.474 4.637 5 7l-2 1c-1.691-.777-1.691-.777-3.562-1.937-2.078-1.472-2.078-1.472-4.438-2.063l6 8c-4-2-4-2-6.062-3.625-1.95-1.664-1.95-1.664-4.938-1.375l1 2-2.312-.5c-2.724-.591-2.724-.591-5.688-.5l1.531 1.242 1.969 1.633 1.969 1.617L-243 402v2a56.53 56.53 0 0 1-7-4h-3c-2.187-1.5-2.187-1.5-4-3l3 5h-3l3 2.375 3 2.625v2c-4.483-2.08-8.087-5-12-8l7 7-1 2-1.898-1.969-2.477-2.531-2.461-2.531c-1.923-2.193-1.923-2.193-4.164-1.969 3.684 4.969 7.122 9.157 12 13v3c-3.858-1.572-6.144-4.011-9-7a793.31 793.31 0 0 0-3.75-3.812l-1.797-1.833c-1.244-1.469-1.244-1.469-2.453-1.355h-2c1.182 2.364 2.541 3.434 4.563 5.125l1.941 1.633L-267 411c-3.993 0-5.153-1.478-8.187-4l-2.731-2.25L-280 403l1.395 1.828c1.705 2.307 3.16 4.696 4.605 7.172-3.387-1.439-5.359-3.221-7.75-6a2833 2833 0 0 1-1.859-2.125C-285 402-285 402-285 400l-2 1 4 7c-2 0-2 0-4.625-2.5L-290 403v5l-1.437-2-1.563-2h-1l1 5c-3 0-3 0-5-1a650.71 650.71 0 0 1-2-5l-1.625-2c-1.71-2.488-1.621-4.044-1.375-7l2 2 1-2 2 3 1-2h2v2h3v-2l5 2-1-3 6 2-2-4 6 2-2-5 2.25 1c2.889 1.228 2.889 1.228 6.75 1l-2-3 2.313.625c2.906.709 2.906.709 5.687-1.625l3-1 2 1v-3c2.169.506 4 1 6 2l-3-4c3-1 3-1 4.824-.223L-247 385c-1.933-2.025-3.632-3.421-6-5l3.438-1.25c4.609-1.723 9.086-3.709 13.562-5.75v-2h2v-2l5 1-1-3 10-4-1-2c10.374-3.444 10.374-3.444 16-3v-2l-2-1 2.125-.562c6.537-3.269 11.267-10.742 13.875-17.438l-1-3c-1.975.348-1.975.348-4 1l-1 2c-2.062 1.125-2.062 1.125-4 2v2h-6v2l2 1-2.5 1.188a74.607 74.607 0 0 0-7 4.089c-12.556 7.876-26.585 14.6-41.551 12.098-3.133-.726-3.133-.726-5.949 1.625v3l1.813-.687L-258 365c1.637 1.48 1.637 1.48 3 3-3.394.843-6.79 1.672-10.187 2.5l-2.909.723-2.822.683-2.587.635c-2.554.47-4.903.54-7.495.459v-2h3l-4-2v-3c3.487 1.109 6.775 2.263 10 4v-2h4l-3-1v-2h2v-2l-2.687 1.563c-3.533 1.533-4.763 1.719-8.313.437l-2-2 5-3c-3.623-1.208-4.641-.543-8 1l2 5h-4v1l-2 2c2.139 2.139 3.133 2.427 6 3v2c-4.083.058-8.166.094-12.25.125l-3.512.051-3.379.019-3.11.032c-2.769-.229-4.393-.803-6.749-2.227v-2l8 2v-3c2 1 2 1 3.875 2.125 2.071 1.099 2.071 1.099 4.125.375 2-.5 2-.5 4.25.438L-290 373l-1.437-1.687c-1.687-2.496-2.153-4.358-2.563-7.313l-2 1 1 3c-3.112-1.498-6.053-3.199-9-5 2-1 2-1 3-1l1-4c3.688.498 5.605 1.101 8 4-.776-3.075-.776-3.075-3-5h2l1-5 3-1h-6v-2h-4v-3h-3v3h-2c-.625-1.812-.625-1.812-1-4l2-3c-3.524 2.546-3.524 2.546-6 6h-2l2-7h-3c-1.687-2-1.687-2-3-4l2-4 1 2c4.811-1.526 4.811-1.526 8-5h-2l1-2 4-1 1-2h4v-2l-3-1 3-2 4 2 1-3 3 2 1-5h7l-1-3h2v2l10-4-1-2h-4l1-3 5-1v2h3l-1-4 2-1v-5h2l-2-2.875c-2-3.125-2-3.125-2-5.125h3v-2l-6-2 3-2-7-2v-2c-6.563-1.111-6.563-1.111-13 0l-1 6h-2v-3l-.687 2.438L-291 287c-2.625.813-2.625.813-5 1l-1 3c-2.062 1.188-2.062 1.188-4 2v-2l-6 2v-2l-6 1a701.854 701.854 0 0 1-.062-4.812l-.036-2.708C-313 282-313 282-312 279l-2 1v12c-3.603 1.441-6.306 2.301-10 3l-2 1v-3c-3.118.646-3.118.646-4 3l-2-1v-3l-2 3-1-5h2c-1.842-2.053-1.842-2.053-4-3a101.38 101.38 0 0 1-2-6c.141 1.625.288 3.25.438 4.875l.246 2.742c.186 2.394.186 2.394 1.316 4.383h-2l1 3-2 1 1 3c-1.937-.687-1.937-.687-4-2-.75-2.625-.75-2.625-1-5l4 2c-1.037-2.083-1.037-2.083-3-4-3.605-.813-3.605-.813-7-1-1.264-3.792-.528-4.571 1.125-8.125 2.259-5.122 3.858-10.178 5.313-15.562 2.762-9.868 7.137-16.197 14.542-23.262 2.765-2.807 5.061-5.892 7.379-9.071 1.7-2.051 3.455-3.473 5.641-4.98l-2 6c2.355-2.834 3.435-5.049 4.25-8.625 2.354-8.389 7.706-14.331 13.75-20.375a182.411 182.411 0 0 0 3.125-4.437c6.847-9.982 14.418-19.323 22.684-28.161 2.178-2.388 4.181-4.871 6.191-7.402l1.5-1.375c1.712-1.712 1.712-1.712 3.063-4.625 2.55-4.643 6.212-8.211 9.808-12.059 2.497-2.793 4.691-5.652 6.879-8.691 4.154-5.681 8.81-10.716 13.654-15.812 4.67-4.929 8.963-10.049 13.096-15.438 1.39-1.796 2.786-3.588 4.188-5.375l1.855-2.398c2.119-2.412 4.453-4.226 6.957-6.227 1.637-1.925 1.637-1.925 3-3.937 3.999-5.499 8.232-9.427 14-13.063l3-2-2 5h2l.516-1.977C-184.257 69.989-181.098 64.777-175 59l2-2-1 7c1.472-1.472 1.584-3.054 2.063-5.062l.535-2.223L-171 55h1l1-7a116.924 116.924 0 0 1 4.625 7.563l1.352 2.378C-162 60-162 60-162 62l3-3-4-1a327.415 327.415 0 0 1-1.125-4.875l-.633-2.742L-165 48l2-2 2 8-1-12 5 1c1.363 2.066 1.363 2.066 2.313 4.563l.988 2.503L-153 52c-.528-7.019-.528-7.019-4-13-2.591-.887-2.591-.887-5-1v-2h5l2 4h2v-4h3l3 14-.062-4.562A70.322 70.322 0 0 1-146 33c2.19 3.285 2.998 6.207 4 10h2l1-11 3-1 1 14c.363-2.582.716-5.165 1.063-7.75l.314-2.211c.481-3.65.668-6.516-.377-10.039 3.291 3.61 4.547 6.126 5 11h2l1 2c2.025.652 2.025.652 4 1 1.644 4.933.186 7.54-2 12l1.875-1.5C-120 48-120 48-118 48v-2h-2V31h2c2.296 9.41 2.296 9.41 2 14h2l-1-11h2l2 7h3v3h3l-1.5 1.313c-1.832 1.684-1.832 1.684-1.5 4.687-1.5 1.688-1.5 1.688-3 3l-2-1v-1c-5.451 2.582-10.175 5.381-15 9l1.859-.465L-120 58c-2.53 3.092-5.225 3.909-9 5l1 1c1.691-.09 3.38-.246 5.063-.437l2.785-.309L-118 63c-1.359 2.861-2.645 4.859-5 7 3.648-1.779 3.648-1.779 7-4 .73-2.563.73-2.563 1-5 2.063-1.312 2.063-1.312 4-2h-5c.989-2.569 1.62-3.778 4.031-5.188l2.469-.953 2.688-1.054L-104 50.75l2.813-1.102C-94.337 47-94.337 47-92 47v2c-2.789 2.477-5.659 3.811-9.125 5.125-3.487 1.325-3.487 1.325-6.875 2.875 4.515.239 7.472-.361 11.563-2.25 6.3-2.76 12.721-5.206 19.437-6.75l2 1c-3.012 2.008-5.582 2.884-9 4l-1.875 1C-88 55-88 55-91.625 55.813c-4.463 1.031-8.252 3.01-12.273 5.164C-106 62-106 62-108 62v2l2.75-1.062c3.256-.94 4.177-.893 7.25.062l-1.539.953A395.325 395.325 0 0 0-112 72l1.898-.875 2.477-1.125 2.461-1.125C-103 68-103 68-101 68v-2l3 1a258.15 258.15 0 0 0 5-3l3.188-.812C-82.784 60.998-76.547 56.808-71 52l-3-1 4-5-5-1 3-5-2-1c1.75-1.562 1.75-1.562 4-3 2.25.313 2.25.313 4 1l-3 1-1 5c2.583-2.25 2.583-2.25 5-5v-4c3.133-1.044 3.99-.934 7 0l-.187-2.812C-58 28-58 28-56.5 26.125L-55 25l-1 5c1.673-.651 3.339-1.32 5-2l2-.812c2.774-1.648 4.753-3.885 7-6.188 3.414-3.186 6.399-3.558 11-4v2l-3 1.938L-37 23v3l3-1 1-2a94.793 94.793 0 0 1 6.563-1.625l3.628-.789L-20 20l-1-1a64.362 64.362 0 0 0-4.562.938l-2.504.589L-30 21c1-2 1-2 2-3l-2-1c5.683-4.463 10.43-6.724 17.617-7.676C-9.858 9.056-9.858 9.056-7 8l-2.375.5c-4.565.63-9.026.582-13.625.5 2.501-1.667 4.777-2.9 7.5-4.125l2.344-1.07C-11 3-11 3-8 3V1c5.75-2.125 5.75-2.125 8-1z" transform="translate(499 252)" style="fill:#fff;stroke:#000"/><path d="m0 0 2.07.78C16.614 6.28 27.886 13.049 39 24l1.777 1.738C63.94 50.57 77.185 91.091 86 123l.53 1.917c2.576 9.337 5.137 18.682 7.47 28.083.16.636.32 1.272.483 1.928 1.63 6.848 2.486 13.77 3.357 20.748l.508 3.997c.355 2.795.706 5.59 1.056 8.384.437 3.49.88 6.98 1.324 10.47 6.615 51.943 6.615 51.943 6.96 70.91.031 1.389.064 2.777.096 4.165.078 3.473.137 6.947.187 10.42.028 1.9.062 3.8.095 5.7.5 30.595-1.879 60.807-5.384 91.17a492.004 492.004 0 0 0-1.47 15.08C98.417 429.385 87.995 466.716 65 492l-1.855 2.137C54.58 503.432 42.465 509.966 31 515l-3.203 1.477c-8.238 3.306-15.667 3.983-24.485 4.023l-3.13.019C-20.432 520.181-37.55 511.155-52 497l-2.55-2.465C-64.619 484.085-70.7 471.715-75 458a2112.13 2112.13 0 0 0-1.688-4.813C-78.112 448.85-79.085 444.468-80 440l-.474-2.242c-1.3-6.266-2.267-12.537-3.088-18.883l-.381-2.781c-1.735-13.259-2.208-26.657-2.612-40.012l-.063-2.085c-.514-17.33-.535-34.66-.512-51.995.005-4.463.002-8.925-.004-13.388-.034-31.56-.034-31.56.769-44.408.705-11.86.561-23.757.554-35.633-.002-2.1-.001-4.2 0-6.3-.002-18.822-.39-37.553-1.681-56.335-.68-9.929-.93-19.865-1.166-29.813-.154-6.098-.389-12.16-.862-18.242-.883-11.613-.612-23.246-.48-34.883l.022-3.478c.21-24.586 3.008-48.857 21.255-66.975C-64.969 9.036-61.594 6.325-57 4l1.97-1.017C-37.328-5.88-18.582-7.283 0 0z" transform="translate(1300 654)" style="fill:#fff"/><path d="M0 0c10.575 1.44 24.414 5.856 31.3 14.45 5.645 17.383 1.52 39.28-.08 56.993-.3 3.325-.593 6.65-.881 9.975-.279 3.208-.563 6.414-.847 9.621l-.316 3.601-.303 3.332-.262 2.922c-.276 2.27-.738 4.348-1.31 6.555a284.21 284.21 0 0 0-.649 7.606l-.354 4.632c-.09 1.212-.09 1.212-.184 2.448-.903 11.973-1.89 23.904-3.438 35.814-1.097 8.444-1.726 16.801-2.032 25.31-.233 6.047-.905 11.914-1.87 17.893-.688 4.795-.959 9.6-1.227 14.434-.246 2.863-.246 2.863-1.246 5.863a89.109 89.109 0 0 0-.395 4.278l-.2 2.689-.218 2.97c-1.31 16.732-3.245 33.396-5.187 50.063l-.46 3.94a2384.26 2384.26 0 0 1-1.228 10.248l-.36 3.021-.339 2.71-.288 2.336c-.325 1.745-.325 1.745-1.325 2.745.09 2.357.247 4.712.437 7.063l.309 3.91.254 3.027c3.099-.69 3.099-.69 4.36-3.054 3.553-7.208 6.451-14.511 9.104-22.094a96.224 96.224 0 0 1 5.362-12.355c2.924-6.219 5.189-12.757 7.611-19.184.566-1.492 1.131-2.984 1.698-4.475.835-2.2 1.67-4.402 2.502-6.604a1433.41 1433.41 0 0 1 5.003-13.03c2.39-6.202 4.543-12.472 6.672-18.766 3.608-10.55 7.579-20.891 11.79-31.21 3.629-9.001 6.897-18.147 10.148-27.29l.746-2.093c1.496-4.244 2.776-8.514 4.004-12.845.72-2.128 1.449-4.253 2.187-6.375 4.587-13.52 8.116-27.387 11.864-41.156 6.286-23.044 6.286-23.044 9.933-33.523.943-2.736 1.78-5.478 2.578-8.258.473-1.565.952-3.127 1.438-4.688l.824-2.691c1.401-4.062 2.586-7.458 6.238-9.934 9.37-4.16 20.797-.699 29.938 2.625 4.638 2.107 6.362 4.204 8.116 8.84 2.214 6.423 2.62 12.523 2.825 19.273l.243 5.803c.083 2.053.157 4.106.228 6.16.15 4.29.323 8.578.501 12.867.185 4.465.367 8.93.541 13.397.576 14.754 1.26 29.503 1.974 44.251.131 2.722.26 5.444.386 8.167.176 3.793.356 7.586.537 11.379l.155 3.39.152 3.132.128 2.703c.237 2.919.732 5.75 1.214 8.638.177 1.991.325 3.985.45 5.98l.225 3.522.235 3.795a7322.488 7322.488 0 0 0 .666 10.286c.496 7.606 1.046 15.207 1.607 22.808l.153 2.072c.312 4.21.625 8.42.94 12.629l.491 6.591c1.323 17.761 2.702 35.514 4.348 53.248a463.09 463.09 0 0 1 1.54 23.168c.278 6.067 1.123 11.957 2.345 17.901l3 1c3.489-6.206 4.972-11.747 6.062-18.75.33-1.966.664-3.933 1-5.898l.48-2.823c.711-3.93 1.716-7.762 2.743-11.619 1.182-4.81 2.01-9.686 2.871-14.562.87-4.69 1.974-9.323 3.059-13.967 3.91-16.837 7.308-33.777 10.535-50.756l.45-2.354c1.672-8.768 3.2-17.519 4.373-26.37a82.477 82.477 0 0 1 1.49-7.588c.74-3.12 1.135-6.116 1.374-9.313.377-4.82 1.128-9.5 2-14.25 2.063-11.313 3.55-22.575 4.27-34.057.274-3.451.703-6.827 1.203-10.251 1.544-11.079 2.346-22.236 3.264-33.38.893-10.77 1.888-21.528 3.181-32.257l.298-2.814c.82-6.377.82-6.377 3.47-9.461 2.678-1.596 4.79-2.104 7.877-2.53l3.195-.469c3.281-.34 6.507-.47 9.805-.53l2.734-.153c5.69-.221 11.236.285 16.266 3.152 2.583 2.668 3.9 4.252 4.394 7.976l-.152 3.294-.145 3.668-.222 3.875-.184 3.974c-.4 7.896-1.068 15.664-2.219 23.487-.67 5.28-.913 10.564-1.13 15.88-.14 3.169-.333 5.818-1.342 8.846-.201 1.52-.364 3.044-.5 4.57l-.25 2.72-.25 2.835c-1.752 19.379-1.752 19.379-3 21.875a200.077 200.077 0 0 0-.5 6.5c-.39 6.278-.39 6.278-1.5 8.5-.306 2.688-.57 5.37-.813 8.063-.797 8.195-1.943 16.308-3.25 24.437l-.528 3.31c-1.273 7.782-1.273 7.782-2.41 11.19-.13 1.456-.229 2.916-.312 4.375-.542 6.457-1.782 12.724-3.03 19.073-1.536 7.835-2.924 15.69-4.262 23.561a511.731 511.731 0 0 1-2.9 15.496c-.858 4.32-1.616 8.656-2.37 12.995l-.52 2.978c-1.302 7.556-2.47 15.127-3.605 22.71-1.282 8.533-2.714 17.003-4.518 25.442-1.612 7.623-2.828 15.31-4.09 22.996-.619 3.747-1.256 7.49-1.892 11.234-2.36 13.946-4.698 27.877-6.523 41.906a408.686 408.686 0 0 1-2.602 17.047l-.374 2.178c-.876 4.884-.876 4.884-2.001 6.01a260.667 260.667 0 0 0-1 7.937c-.867 7.796-.867 7.796-2 10.062a138.256 138.256 0 0 0-.684 5.426l-.369 3.333-.385 3.554c-.267 2.397-.537 4.794-.808 7.191l-.365 3.276a286.641 286.641 0 0 1-1.866 12.826 271.72 271.72 0 0 0-1.172 8.632c-3.106 25.19-3.106 25.19-9.351 33.762-4.172 2.493-8.64 2.347-13.375 2.313l-2.396-.013c-12.303-.232-27.236-2.05-36.23-11.3-3.716-6.416-5.306-12.624-6.687-19.875l-.651-3.321a149.394 149.394 0 0 1-2.52-24.16c-.054-3.5-.054-3.5-.612-6.335-.634-3.961-.897-7.886-1.143-11.887a9015.354 9015.354 0 0 0-.515-7.88c-.997-15.16-2.284-30.219-4.195-45.29-1.774-14.06-2.728-28.112-3.443-42.264-.183-2.963-.183-2.963-.722-5.755-.69-4.367-.876-8.715-1.09-13.127l-.322-6.184-.171-3.318c-1.162-22.312-2.662-44.587-4.385-66.862l-.502-6.53c-.314-4.09-.634-8.18-.955-12.27l-.287-3.706-.274-3.429-.235-2.974c-.305-2.973-.797-5.887-1.29-8.833a459.41 459.41 0 0 1-.375-7.812c-.424-8.889-1.89-17.472-3.625-26.188-3.041 1.003-3.886 1.773-5.352 4.676l-1.273 3.637-.737 2.065a760.966 760.966 0 0 0-2.638 7.622c-.788 2.282-1.575 4.563-2.364 6.844a4714.98 4714.98 0 0 0-3.88 11.282c-2.694 7.86-5.459 15.687-8.424 23.45-1.526 4.042-2.855 8.105-4.094 12.245-2.723 8.97-5.974 17.747-9.176 26.554a7126.22 7126.22 0 0 0-3.652 10.086l-.894 2.474a590.908 590.908 0 0 0-5.18 15.03c-2.13 6.459-4.4 12.85-6.774 19.223l-1.254 3.385a1369.379 1369.379 0 0 1-7.93 20.72l-.94 2.406a3033.515 3033.515 0 0 1-4.616 11.728c-2.892 7.339-5.518 14.64-7.758 22.21-2.197 6.944-4.926 13.702-7.564 20.488-1.137 2.94-2.272 5.88-3.406 8.82l-.823 2.126a546.185 546.185 0 0 0-5.405 14.628c-1.285 3.414-2.832 6.693-4.374 9.997-2.335 5.17-4.485 10.419-6.638 15.668-4.398 10.596-4.398 10.596-7.698 12.953-8.75 2.774-18.447-1.355-26.156-5.317a150.04 150.04 0 0 1-22-15l-1.707-1.265c-4.282-3.252-7.25-6.786-9.293-11.735-1.327-10.258.875-21.279 2.081-31.484.359-3.036.707-6.073 1.054-9.11l.673-5.812.316-2.74.303-2.551.263-2.232c.31-2.07.795-4.043 1.31-6.07.177-1.79.316-3.582.43-5.376.07-1.056.142-2.112.216-3.2.075-1.13.15-2.26.229-3.425.565-7.866 1.228-15.652 2.5-23.437 1.494-9.177 2.584-18.388 3.625-27.625l.258-2.29a4518.34 4518.34 0 0 0 2.558-23.202c1.118-10.34 2.274-20.658 3.809-30.946l.373-2.501c.481-3.106 1.006-6.012 2.002-8.999.199-1.42.362-2.846.5-4.273l.25-2.5.25-2.602c.479-4.939 1.008-9.76 2-14.625.15-1.935.272-3.873.375-5.812.854-12.787 2.735-25.482 4.418-38.18l.77-5.82c.187-1.42.187-1.42.38-2.868a565.63 565.63 0 0 0 2.323-20.68c.388-3.977.934-7.881 1.632-11.816 1.637-9.55 2.584-19.198 3.664-28.824.331-2.945.664-5.89.999-8.836.207-1.82.412-3.641.614-5.462l.284-2.49.244-2.18c.297-2.032.297-2.032.82-4.079.607-2.487.638-4.933.717-7.484.309-9.742 1.442-19.32 2.76-28.969 1.277-9.371 2.355-18.665 2.709-28.123.247-6.412.94-12.718 1.76-19.08.394-3.069.715-6.138 1-9.219l.238-2.474c.15-1.572.29-3.144.42-4.717C-10.723 1.73-8.319-.32 0 0z" transform="translate(902.7 600.55)" style="paint-order:fill;fill:#fff"/><path d="M0 0c5 3.646 9.367 7.935 13.755 12.28l2.613 2.43c19.787 18.77 32.817 45.732 42.667 70.785 1.012 2.509 2.14 4.958 3.282 7.41 4.607 10.016 8.489 20 11.375 30.644 1.223 4.293 2.627 8.505 4.063 12.73 4.005 11.857 7.275 23.787 10 36a850.684 850.684 0 0 0 5.854 24.25c5.502 21.52 10.037 42.963 12.715 65.038.748 6.075 1.665 12.023 2.947 18.01 1.738 8.407 2.469 16.782 3.109 25.328l.378 4.838c.298 3.857.582 7.714.857 11.573.12 1.684.243 3.368.367 5.052.423 5.97.652 11.929.773 17.912l.082 3.986c.331 17.874.086 35.63-1.395 53.451l-.178 2.217c-.823 9.963-2.354 19.582-4.51 29.346l-.7 3.245c-3.881 17.491-12.135 36.5-24.3 49.755l-2.046 2.324c-8.463 9.096-19.04 15.262-30.953 18.676l-2.309.68c-14.666 3.61-30.93 2.013-44.25-5.106-26.43-17.042-33.862-45.843-40.113-74.64-1.448-7.105-2.102-14.026-2.223-21.262-.032-3.619-.032-3.619-.59-6.951-.507-3.666-.737-7.231-.872-10.928l-.08-2.073c-.056-1.477-.11-2.954-.163-4.431-.085-2.364-.175-4.728-.267-7.091-.259-6.719-.508-13.437-.755-20.156-.637-17.233-1.324-34.412-2.898-51.59-.519-5.69-.885-11.383-1.226-17.085l-.176-2.884c-.232-3.829-.461-7.658-.68-11.489a451.173 451.173 0 0 0-4.398-41.994l-.348-2.313c-.708-4.693-1.454-9.378-2.215-14.062l-.63-3.977c-1.145-7.326-1.145-7.326-2.788-14.55-1.024-3.816-1.669-7.685-2.316-11.579-.115-.691-.23-1.383-.35-2.095l-.725-4.358c-2.07-12.34-4.51-24.307-8.195-36.281-1.537-5.004-2.755-10.061-3.933-15.16a756.22 756.22 0 0 0-5.563-22.375c-2.467-9.385-4.876-18.767-6.937-28.25l-.688-3.02c-4.37-22.674-2.573-47.107 9.688-66.98 6.034-8.578 14.454-15.293 24.818-17.632C-31.827-15.492-15.361-10.49 0 0z" transform="translate(1496.245 640.72)" style="fill:#fff"/><path d="M0 0c13.571 10.78 21.818 28.054 30.384 42.82 2.105 3.61 4.235 7.206 6.364 10.802 1.685 2.847 3.367 5.696 5.049 8.546 1.683 2.852 3.372 5.7 5.078 8.539 4.74 7.954 8.863 16.169 12.898 24.496l.939 1.92c3.74 7.675 7.084 15.398 9.933 23.451 1.18 3.296 2.482 6.406 4.093 9.516 2.235 4.361 3.839 8.853 5.41 13.488l.91 2.64a1790.318 1790.318 0 0 1 6.45 19.205 1011.127 1011.127 0 0 0 5.64 16.468l.875 2.504c1.569 4.483 3.165 8.953 4.797 13.414 4.113 11.355 7.396 22.585 9.848 34.414a109.865 109.865 0 0 0 2.629 10.043c1.443 4.666 2.413 9.324 3.289 14.125 1.8 9.423 4.137 18.659 6.625 27.921l1.562 5.891.977 3.616c2.485 9.387 4.17 18.768 5.547 28.376.61 4.251 1.25 8.499 1.89 12.746.13.859.26 1.717.392 2.601 1.519 9.96 3.332 19.863 5.19 29.764 2.34 12.496 4.257 24.854 5.127 37.54.432 5.25.932 10.411 4.877 14.357 4.952.754 7.655-.147 11.985-2.637 6.04-3.395 12.188-6.524 18.39-9.613l3.435-1.716a954.392 954.392 0 0 1 20.94-10.096c7.362-3.45 14.512-7.19 21.625-11.125 6.29-3.475 12.574-6.911 19.063-10l3.371-1.606c8.156-3.085 8.156-3.085 12.492-1.215 2.347 2.773 3.097 5.667 3.887 9.133l.507 2.132c1.597 7.208 2.083 14.374 2.245 21.739.058 1.932.189 3.861.322 5.79.422 8.321.422 8.321-2.512 12.152-1.674 1.04-1.674 1.04-3.75 2.062l-2.556 1.33c-7.156 3.625-14.407 6.856-21.819 9.92-23.344 9.723-23.344 9.723-45.727 21.429-4.952 2.863-10.022 5.352-15.21 7.759-8.016 3.723-15.843 7.722-23.64 11.882a816.459 816.459 0 0 1-10.97 5.735l-6.078 3.133-2.981 1.537c-5.001 2.607-9.786 5.302-14.456 8.463-4.348 2.875-7.301 4.084-12.563 3.812-4.121-2.33-5.609-4.568-7-9a139.861 139.861 0 0 1-.562-8.375c-.168-4.053-.349-8.022-.941-12.039-.628-4.532-.733-9.016-.872-13.586-.39-10.373-1.278-20.653-2.33-30.978a15071.436 15071.436 0 0 1-.626-6.17c-.591-5.912-1.11-11.83-1.614-17.75-1.762-20.656-3.706-41.215-6.59-61.748-.492-3.552-.95-7.107-1.41-10.662-1.087-8.16-2.409-16.269-3.805-24.38l-.393-2.29c-2.545-14.767-5.528-29.411-8.857-44.022l-.88-3.875c-.907-3.98-1.823-7.96-2.745-11.937l-.84-3.629c-3.08-13.143-6.64-26.149-10.407-39.111-.565-1.947-1.125-3.894-1.684-5.842-3.622-12.536-7.573-24.915-12.569-36.98-2.25-5.466-4.335-10.92-6.164-16.54-1.03-3.021-2.294-5.919-3.586-8.836-1.888-4.314-3.677-8.644-5.312-13.062-2.557-6.739-5.425-13.335-8.313-19.938l-1.403-3.23a190.576 190.576 0 0 0-9.097-18.02 801.678 801.678 0 0 1-4.375-8.187l-1.173-2.212a496.034 496.034 0 0 1-7.077-13.976c-2.52-5.082-5.303-9.825-8.41-14.566-2.495-3.885-4.863-7.836-7.215-11.809l-1.286-2.15c-7.465-12.66-7.465-12.66-6.464-19.1 2.482-3.775 5.97-5.196 10.165-6.457C-14.133-2.58-6.3-3.509 0 0z" transform="translate(1581.227 601.797)" style="fill:#fff"/><path d="M1299 699c19.747 12.199 26.639 43.624 33 64l1.077 3.42c2.565 8.495 4.082 16.92 5.236 25.705.2 1.478.402 2.955.604 4.432.448 3.289.89 6.578 1.33 9.867.682 5.087 1.396 10.17 2.114 15.252.645 4.576 1.28 9.152 1.915 13.729.311 2.236.625 4.472.943 6.708.452 3.196.891 6.395 1.328 9.594l.4 2.766c2.441 18.247 2.215 36.83 2.221 55.203l.01 6.673c.006 4.64.008 9.28.007 13.92 0 4.661.007 9.324.02 13.986.087 29.304-.285 58.495-2.205 87.745l-.254 3.892c-.613 8.71-.613 8.71-1.746 12.108-.215 1.937-.39 3.878-.543 5.82-1.2 13.882-2.664 26.441-8.457 39.18l-1.371 3.152c-4.037 8.337-10.13 14.047-17.941 18.91-10.656 2.71-19.452.964-28.872-4.277-8.237-5.372-11.585-13.628-13.566-22.973-.315-1.932-.63-3.864-.932-5.798a398.655 398.655 0 0 0-.871-5.238c-2.012-13.387-1.711-26.836-1.643-40.342.014-3.25.01-6.499.01-9.748.02-14.465.271-28.91.682-43.37.565-20.006.725-40.006.744-60.02.005-3.893.019-7.785.041-11.678.269-29.374.269-29.374-2.958-58.522-.514-3.338-.7-6.662-.886-10.034-.304-5.458-.86-10.83-1.564-16.25-2.009-15.509-3.908-30.974-4.387-46.612-.313-7.773-1.429-15.383-2.548-23.075-1.327-9.31-2.337-18.464-2.376-27.875l-.029-2.718c.13-9.958 2.705-17.815 9.233-25.391 9.29-8.901 21.416-7.567 32.234-2.141zm174-21c13.523 4.166 21.516 16.205 28 28l1.22 2.195c5.714 10.347 10.694 20.705 14.78 31.805l1.707 4.555c2.938 7.873 5.79 15.777 8.605 23.695l.735 2.056c1.48 4.195 2.759 8.41 3.953 12.694.588 2.036 1.178 4.07 1.77 6.105 8.068 27.906 15.27 55.983 19.205 84.815.691 5.06 1.545 10.084 2.447 15.111 4.387 24.56 7.396 49.034 8.578 73.969l.17 3.19c1.423 26.573 1.93 53.412-.483 79.935l-.356 3.98c-1.41 13.952-3.47 32.276-14.519 42.207-4.34 3.4-8.13 4.04-13.53 3.97-4.572-.564-7.31-3.183-10.259-6.516-11.68-15.966-12.831-37.73-13.629-56.8-.282-6.489-.804-12.936-1.394-19.404-.773-8.61-1.168-17.171-1.375-25.812-.749-27.218-3.791-54.383-7.25-81.375l-.315-2.469c-.965-7.488-1.992-14.916-3.58-22.302-.615-3.334-.981-6.677-1.367-10.045-.991-8.46-2.626-16.742-4.407-25.068a1153.21 1153.21 0 0 1-1.52-7.27c-1.944-9.263-4.254-18.33-7.032-27.379-1.564-5.113-2.857-10.29-4.162-15.475-.915-3.382-.915-3.382-2.394-6.5-2.365-5.312-3.593-11.002-5.035-16.617-1.88-7.318-3.915-14.433-6.574-21.507-15.94-44.223-15.94-44.223-10.005-62.829A47.757 47.757 0 0 1 1459 682l1.688-2.625c3.982-2.369 7.823-2.093 12.312-1.375z"/><path d="m0 0 2.422 1.504a194.6 194.6 0 0 1 3.691 2.41C9.36 5.783 12.88 6.892 16.414 8.098 19 9 19 9 22.437 10.562c4.222 1.704 8.456 2.696 12.891 3.692C38 15 38 15 41 17c-4.801 1.99-7.927 1.878-13 1l-2 1v-2l-8 1c.893 2.358.893 2.358 4.063 3.125L25 22l-1 3 2 1-2 4c-3.24-1.504-6.036-3.359-8.938-5.438A123.46 123.46 0 0 0 2.25 16.5C0 15 0 15-1 12c-1.706-1.017-3.418-2.027-5.172-2.96C-8 8-8 8-10.5 5.937c-2.15-1.666-3.724-2.552-6.188-3.563C-20 1-20 1-22-1l-1 2c-4.75-.875-4.75-.875-7-2l1 4c-2.972-1.125-5.334-2.223-8-4 1.25 3.75 2.665 4.118 6 6v1c-4.554.37-4.554.37-6.813-1.5L-39 3l1 3c-4-1.333-4.838-3.496-7-7l1 7c-3.436-1.527-6.12-3.6-9-6l1.875 2.75c1.569 2.4 2.93 4.66 4.125 7.25h-2V8l-1.797-.309c-2.565-.805-3.63-1.807-5.453-3.753l-1.578-1.66L-59 1c1.398 3.545 1.398 3.545 3 7l-1.813-.5c-2.3-.611-2.3-.611-5.187-.5-1.688-2.5-1.688-2.5-3-5 .656 3.61.656 3.61 2 7l-5-1 1 3c-4.814.566-7.203-1.174-11-4l2 5-2.375-2c-2.34-2.202-2.34-2.202-4.625-2l3 3-8 1s3.183 3.445 7 5l-1 3c-2.063.688-2.063.688-4 1l1.898.367 2.477.508 2.46.492C-78 23-78 23-76 25l-5 1 11 1v1h-5v2h13v1h-17v2h18l-3 3 2 2h-5l9 3c-4 2-4 2-8 2v2c8.017 1.125 15.921 1.096 24 1v-2l-13 1v-1l8-1v-2l-1.898-.621-2.477-.816-2.46-.81c-3.464-1.205-3.973-1.392-5.79-4.816L-61 31c5.464.896 9.623 2.174 14.438 4.938 6.234 3.574 12.425 5.74 19.562 6.624C-24 43-24 43-22 45c2.323.4 4.657.74 7 1v2c-3.01.934-3.867 1.044-7 0v2h2v2h-6l1 4h-3v-3l-3-1a89.814 89.814 0 0 1 4-4h2v-2c-1.314.476-2.626.956-3.938 1.438l-2.214.808c-1.831.608-1.831.608-2.848 1.754l2 2-12 6h2l4 1-7 5 3-2c2.7-.414 2.7-.414 5.688-.625l3.011-.227L-31 61v2l-4 1v2l-7 1v2l1.828-.473 2.422-.59 2.39-.597c2.464-.355 4.016-.109 6.36.66l-7 3 15-1v2h-3v2h3v2h-9l6.055 1.367C-22 78-22 78-20 80h-4v2l1.941.148C-14.929 82.765-8.614 84.194-2 87l-1 2h-5v-2l-10-1 2.809 1.023 3.629 1.352 3.62 1.336C-5 91-5 91-4 93c-12.624-.743-22.985-6.684-33-14l-2.926-2.129A624.022 624.022 0 0 1-49 70l-1.68-1.277c-8.374-6.372-16.197-13.132-23.832-20.37-1.572-1.43-3.205-2.752-4.863-4.08L-82 42v-2l-3-1c-2.043-2.215-2.043-2.215-4.188-4.938l-2.167-2.714C-93 29-93 29-93 27l-3-3-1-1.625c-1.227-2.914-1.142-5.244-1-8.375l-1-1c.29-3.472.7-4.724 3.313-7.125L-93 4l1.77-1.465C-69.065-12.72-22.426-14.004 0 0z" transform="translate(286 248)" style="fill:#fff"/><path d="M0 0c2.174.029 4.346.02 6.52.008 10.67.016 22.073.518 31.722 5.459h2.813c5.664 0 10.873 2.185 16.187 4l-1 4 2.25-.125c2.995.136 4.428.217 6.75 2.125.913 3.859 1.262 6.216 0 10a995.39 995.39 0 0 1-5.75.062l-3.234.035c-2.567-.083-4.618-.207-7.016-1.097l-1-2-3-1 1.497-1.024 1.941-1.351 1.934-1.336c1.766-1.211 1.766-1.211 2.628-3.29h-2v2l-3.25.376c-3.596.41-3.596.41-6 1.75l-1.75.875-3-1a617.075 617.075 0 0 1 3.875-3l2.18-1.688c1.945-1.312 1.945-1.312 3.945-1.312v-2l-2.082 1.128c-.9.474-1.802.947-2.73 1.434l-2.707 1.441c-2.48.997-2.48.997-5.48-.003l5-4c-2.962.612-4.381 1.253-7 3l-3-1 2-4c-3.077 1.653-3.077 1.653-3.876 4.062-1.125 1.938-1.125 1.938-3.75 2.688l-2.375.25c1.875-4.75 1.875-4.75 3-7-3.399 1.133-4.052 2.125-6 5l-2-1 3-7-1.68 1.128-2.195 1.434-2.18 1.441-1.945.997-2-1v-3l-1.375 2-1.625 2h-2l1-4-1 1a499.397 499.397 0 0 1-4 3l-1-3-1.875 2c-2.125 2-2.125 2-4.125 2l-1-2-3 1v-4l-5 4v-2l-3 1v-2a689.91 689.91 0 0 0-4.937 2.375l-2.777 1.335c-2.415 1.082-2.415 1.082-3.286 3.29-2.562.625-2.562.625-5 1-1.01 3.049-1.01 3.049 0 6l-1.742.816c-2.305 1.208-4.299 2.564-6.383 4.121l-2.07 1.527c-2.043 1.596-2.043 1.596-3.805 4.536l4 1-7 3 5 2c-2.565 2.565-4.476 2.54-8 3v3l7-1-1 2c-2.314.73-4.648 1.4-7 2v2h9c-2.36 2.36-3.779 2.491-7 3l3 2-6 1h9v2c-3.967 1.803-7.682 2.492-12 3v1l10 1v1l-12 1v2l15 1c-2.68 2.68-4.391 2.386-8.125 2.625l-3.32.226-2.555.149c2.918 1.945 4.626 2.452 8 3v2l-6 2 10 3-1 2c-5.99.315-9.635-.318-15-3 2.501 5.834 6.322 8.418 12 11v2c-4.052-1.226-7.443-2.7-11-5l1.063 1.75c1.087 2.608.868 3.644-.063 6.25v-2h-2c-2.034-3.73-3-5.67-3-10l-2-3c-1.52-4.748-2.568-9.137-1-14-3.62 4.019-3.62 4.019-5.285 9.011.462 6.086 2.924 11.52 5.325 17.07.968 2.94 1.093 4.101-.04 6.919l-1-2 1 5h-2l-1 2c-2.822-4.105-3.969-8.197-5-13l-.566-2.516c-.486-2.16-.963-4.321-1.434-6.484l3 3c0-2.536-.183-5.035-.375-7.563l-.21-3.004-.415-2.433-2-1c2.018-4.779 3.65-6.39 8-9l3-6-12 12-1-2 1.313-1.715 1.687-2.223 1.688-2.215c1.409-1.606 1.409-1.606 1.312-2.847l-4 2c1.43-5.24 4.938-8.598 9-12 2.227-1.207 2.227-1.207 4-2-.506 2.168-1 4-2 6 4.135-1.379 4.563-3.332 6.625-7.125.71-1.277 1.421-2.553 2.133-3.829l1.115-2.013C-50.922 22.34-40.82 8.159-22.387 2.228-14.886.22-7.737-.112 0 0z" transform="translate(662.759 247.533)" style="fill:#fff"/><path d="M0 0c6.875.875 6.875.875 8 2 2.522.4 5.03.75 7.563 1.063l2.154.275c1.76.224 3.522.444 5.283.662l-1 1.75c-1.27 2.449-1.27 2.449-1 6.25l-2 2v3h-2c-1.414 2.639-2.372 5.071-3 8h-2l1 3-1.293 1.215C7 34.137 3.415 40.202 0 46.063c-2.41 4.095-5.11 7.752-8.082 11.453-2.265 2.933-4.34 5.98-6.418 9.047C-21.604 76.969-21.604 76.969-26 81h-2l-.754 1.781C-33.11 90.54-42.044 93.411-50 96c-1.84.714-3.673 1.443-5.5 2.188-4.207 1.714-7.605 2.94-12.188 2.874l-2.449-.027L-72 101l-1 2-3-2 1.563 1.75C-73 105-73 105-73.314 107.25L-74 109l-1-3h-2v-4h-2l.691 1.863.871 2.45.88 2.425C-76 111-76 111-77 114l-4-7 1 10h-2l-2-4 .5 2.063c.57 3.353.567 6.54.5 9.937-2.834-3.203-3.52-5.78-4-10l-2 3 .813 1.625L-87 122l1.625 3.063C-84 128-84 128-84 131c-2.993-1.098-3.846-1.677-5.25-4.625L-90 124v5c-2.5-1-2.5-1-5-3-1.459-8.022 2.143-15.79 6.61-22.371 4.174-5.065 9.19-9.848 15.828-11.082a74.745 74.745 0 0 1 4.68-.309c2.126-.074 2.126-.074 3.882-2.238 3.563-.125 3.563-.125 7 0h1l-1-2c4.75 1.875 4.75 1.875 7 3l-3-5 7 2-2-3 9 2v-2l-2.438-.375L-44 84l-1-2 7 1v-2h5v-3l3-1-2-6h6l-5-6 7 1c-1.634-1.708-2.87-2.935-5-4v-2l8 1-6-3v-1l7-1v-2l-1.875-.313C-24 53-24 53-26 50l10 2-5-6c7.429-.143 7.429-.143 11 1v-2l-2.875-.875C-16 43-16 43-18 41h9l-8-4c2-1 2-1 7-1l-13-4v-1c6.625-.125 6.625-.125 10 1 2.638-.394 2.638-.394 5-1l-5-1 1-3 2.313.125c2.914.096 2.914.096 5.687-2.125l-5-4c4.019-1.812 7.611-3.335 12-4v-2l-6-1 4-3C-.933 8.975-2.632 7.579-5 6h9V4l-5-2 1-2z" transform="translate(705 271)" style="fill:#fff"/><path d="m519 427 2 1v2h2l.77 2.773 1.043 3.602 1.019 3.586c.932 3.299.932 3.299 4.168 5.039.984 2.059.984 2.059 1.75 4.438l.797 2.37C533 454 533 454 532 457a935.602 935.602 0 0 1-3.5-5.813l-1.969-3.269C525 445 525 445 525 442h-2c2.167 5.737 5.2 10.496 8.672 15.547L533 460l-1 3c-5.065-6.02-9.463-11.96-13-19 1.743 7.07 3.585 14.126 6 21-3-1-3-1-4.605-3.871l-1.583-3.566-1.605-3.56C516 451 516 451 516 449l-4-1-1 2v-2h-2l2.25 2.5c4.024 4.836 6.901 10.219 7.75 16.5l.563 2.813L520 472c-3.424-3.067-5.273-6.117-7.25-10.25l-1.578-3.266L510 456l-3 2 1.875 3.188c1.64 2.862 2.995 5.704 4.125 8.812-3-1-3-1-5-4.063L506 463h-3l-1-1 3 4-1 2-5-4 1 7c-3.288-3.11-5.837-6.016-8-10l.805 1.723c2.154 4.709 3.914 9.26 5.195 14.277-4.3-1.592-6.35-4.393-9-8v-3h3l-4-2v6a125.024 125.024 0 0 1-6-4v-2h-2l-1.313-1.813c-1.939-2.514-3.914-3.687-6.687-5.187.581 3.913 2.485 6.085 5 9.063 3.897 4.627 3.897 4.627 5 7.937a89.47 89.47 0 0 0 4 2l1 2c-4.755-.576-7.97-2.55-12-5l1.715 1.426 2.222 1.886 2.215 1.864C483 480 483 480 484 483c-3.436-1.527-6.12-3.6-9-6l4 6-1.813-.5c-2.3-.611-2.3-.611-5.187-.5-2.305-1.793-2.305-1.793-4.875-4.188l-2.695-2.496c-2.517-2.4-4.97-4.857-7.43-7.316a436.219 436.219 0 0 0-3.188-2.5c-2.868-2.55-3.999-3.796-4.812-7.5.293-2.006.626-4.007 1-6-.369-2.769-.369-2.769-1-5l3 1c.879 1.926.879 1.926 1.563 4.313 1.307 4.519 1.307 4.519 3.437 8.687a117.39 117.39 0 0 0 4 2 162.091 162.091 0 0 1 5.75 5.125l1.535 1.418A950.215 950.215 0 0 1 472 473l-2.688-2.938c-3.384-3.948-6.334-8.23-8.312-13.062l1-2 2.313 2.813c1.444 1.747 2.837 3.327 4.5 4.875C470 464 470 464 470 467l4 1a2496.33 2496.33 0 0 0-3.875-7.375l-1.105-2.117c-2.123-4.028-2.123-4.028-5.02-7.508l1-3 1.625 1.75c2.602 2.465 5.356 4.33 8.375 6.25l-3-4 1-2 5 4-1.75-2.992-2.25-3.883-1.156-1.973C470 440.227 470 440.227 470 438c3 1 3 1 4.324 3.406l1.364 3.094c2.909 6.129 6.548 10.713 11.312 15.5a108.755 108.755 0 0 0-3.543-6.691l-1.645-2.872-1.667-2.878C479 445 479 445 480 442l1.25 1.758c4.025 5.445 8.105 9.502 13.75 13.242l-1.242-2.266-1.633-2.984-1.617-2.953L489 446l-1.258-2.11c-.922-2.349-.577-3.553.258-5.89l1.61 2.957c.712 1.285 1.426 2.57 2.14 3.855l1.055 1.948c1.978 3.536 3.699 6.122 7.195 8.24l-.91-2.117-1.152-2.758-1.16-2.742C496 445 496 445 497 443l1 2.188c2.684 3.774 6.007 5.583 10 7.812l-1.531-3.43-1.969-4.445-1.012-2.262-.957-2.168-.888-2C501 437 501 437 501 435h2c.672 1.29 1.337 2.581 2 3.875l1.125 2.18C507 443 507 443 507 445h2l-2-5 5 4-1.348-2.555-1.714-3.32-1.723-3.305L506 432l1-2c2.865 3.41 4.347 6.907 6 11l1-4h3l.875 1.938c.953 2.214.953 2.214 3.125 3.062v-2h2l-1-1.75c-1-2.25-1-2.25-1-6.25h-2v6c-2-3-2-3-2-7h2v-4zM397 586c5.982 1.23 10.386 3.087 15.5 6.375 1.307.812 2.616 1.622 3.926 2.43l1.87 1.159c4.285 2.606 8.719 5.143 13.704 6.036l2-1 6 3c1.41.34 2.827.653 4.25.938C448 606 448 606 449.234 608.066L450 610c-8.36-2.732-8.36-2.732-11.688-4.125-2.74-1.037-5.414-1.47-8.312-1.875l4 4h-4l2 1v2l-11 1v2l-15-1 4 3c-4.6-.405-9.032-.927-13.5-2.125L393 613l-1 1 2.375.375C397 615 397 615 399 617l-2 2 4 2-1 2c-3.375.125-3.375.125-7 0l-2-2 3-1-5-2v2l-12-3v-2h12v-2c-.856.01-1.713.02-2.595.032-3.224.034-6.449.06-9.673.078a767.7 767.7 0 0 0-4.16.04c-7.315.09-14.361.066-21.513-1.668-2.124-.497-4.204-.751-6.371-.982-5.84-1.26-10.173-5.384-14.672-9.09-2.893-2.425-2.893-2.425-5.856-4.098C322 596 322 596 321.188 593.938 321 592 321 592 321 590l-1-3a56.54 56.54 0 0 1 7 4 179.61 179.61 0 0 0 4 2l2 1c-.669-3.113-.669-3.113-3.063-4.188L328 589c3 0 3 0 6 2h3l-2-3c3.898.617 6.415 2.505 9.563 4.813l2.878 2.082c2.309 1.898 3.91 3.634 5.559 6.105-2.972-1.125-5.334-2.223-8-4 1.182 1.22 1.182 1.22 3.438 2.938C351 602 351 602 353 604c-3.094.994-4.903.878-8 0l2.117.438 2.758.562 2.742.563c2.307.497 2.307.497 4.383.437l-2-1 1-2 2.625 1.375c5.78 2.525 12.17 2.893 18.375 3.625l-2.098-.707c-9.53-3.554-16.936-9.079-24.902-15.293l2-1c2.02 1.257 3.937 2.563 5.875 3.938C365.232 599.941 377.862 608 387 608l-2-2v-2c5.18.56 9.693 2.287 14.512 4.16 2.524 1 2.524 1 5.488.84l-2.59-1.023-3.348-1.352-3.34-1.336C393 604 393 604 392 602h5l-3-4 1-2 9 6-2 1-3-1v2c1.435.364 2.873.716 4.313 1.063l2.425.597c2.422.54 2.422.54 5.262-.66 2.121.559 2.121.559 4.438 1.438 3.257 1.228 4.945 1.562 8.562 1.562l-2.203-.848C414.243 604.14 406.547 600.9 400 596v-3c3-1 3-1 5.188-.063L407 594l-1 2 4 2v2l2.5.813c3.267 1.108 6.464 2.325 9.668 3.601 1.988.738 1.988.738 4.832.586l-2.09-1.32-2.848-1.805-3.058-1.93c-2.566-1.661-5.028-3.406-7.504-5.195-4.796-3.255-9.88-4.553-15.5-5.75l1-3z"/><path d="M0 0c4.546.574 7.93 2.541 11.813 4.813 6.791 3.825 13.426 5.877 21.019 7.496C36 13 36 13 38 14v2c-5.126.103-9.95.036-15-1 4.963 1.915 9.866 3.61 15 5l-1 2c-2.649.594-5.292.742-8 1v-2l-3.5-.75C20.939 19.126 17.132 17.214 13 15c5.612 4.91 11.504 8.25 19 9v1l-3.313.938A169.836 169.836 0 0 0 22 28l-1-3c-2.015-.733-2.015-.733-4-1 .155 1.922.155 1.922 1 4 2.067 1.565 2.067 1.565 4.563 2.75l2.503 1.297L27 33v2h2v2c-3.748-.505-7.326-1.082-11-2l9 8c-4.936 1.234-6.272.257-10.75-1.938l-3.547-1.714L10 38v-2H8a434.24 434.24 0 0 1-3.445-3.578C2.819 30.834 1.032 29.743-1 28.562-4.925 26.229-7.283 23.65-10 20l1-2 12 6-3.813-2.375A276.294 276.294 0 0 1-8 17l1-4c4.371 1.311 8.252 3.064 12.266 5.195C6.984 19.14 6.984 19.14 9 19v-2l-1.813-.875C5 15 5 15 2 13l1-2 6 3c-1.634-1.708-2.87-2.935-5-4V7L1 8l1 2-5-2V5c-1.438-1.688-1.438-1.688-3-3 3.377.537 6.697 1.11 10 2L0 0z" transform="translate(464 540)" style="fill:#fff"/><path d="M318 547h2v2l4 2v2c7.227 3.949 13.789 6.946 22 8l-2.922-1.172-3.828-1.578-1.922-.766c-3.878-1.616-6.583-3.294-9.328-6.484h6v2l1.73.516c1.73.516 3.457 1.038 5.184 1.562 2.197.656 4.401 1.29 6.61 1.906l3.537 1.016 3.348.938c.855.35 1.71.7 2.59 1.062l1 3-3 1 3 2-2.25.875c-4.763 1.948-8.727 4.436-13 7.313-7.033 3.542-16.419 1.644-23.749-.188l13 5v1c-7.885-.563-13.66-2.524-19.25-8.25-3.26-3.024-5.801-3.135-10.188-3.125-1.855.096-3.71.21-5.562.375l1-4 12 1-12-4v-1c9.116-.846 14.637.527 22 6v-2l16 2-6.625-1.25c-6.7-1.44-10.804-2.664-15.25-8L313 556l-2 3-1.063-1.375c-2.707-2.272-5.544-2.793-8.937-3.625v-1l7 1v-3c3.383 1.607 6.502 3.535 9.688 5.5 5.147 3.038 9.422 4.617 15.312 5.5l-1.828-.918c-6.705-3.515-10.648-6.721-13.172-14.082z"/><path d="M0 0v2l-3 2 4 2-7 2v2l7-1v2a875.282 875.282 0 0 1-4.375 2l-2.46 1.125C-8 15-8 15-10 15v2l6 1-1 2c-3.063.625-3.063.625-6 1 2.139 2.139 3.133 2.427 6 3v2h-8v2h2v2l-4 2 2 2-4 2 6 2v2l-8-1-1 2h5l1 3a84.76 84.76 0 0 1-7-2v2h-2v2l7 2c-3.478 1.16-5.459.708-9 0l-1 2 1.863.113 2.45.2 2.425.175c2.625.594 3.57 1.47 5.262 3.512l-1.617-.5c-2.894-.607-5.553-.558-8.508-.5-5.654.11-5.654.11-7.875-1-.285-5.315.163-8.689 2.147-13.72 1.564-4.18 2.711-8.486 3.916-12.78l.775-2.723c1.164-4.11 2.257-8.195 3.158-12.37L-21 7l3-1 1-3C-11.57.113-6.027-.329 0 0z" transform="translate(982 1908)" style="fill:#fff"/><path d="M438 453c3.462 2.813 6.615 5.526 9.438 9 2.61 3.056 5.23 5.112 8.464 7.445 3.556 2.635 6.81 5.599 10.098 8.555l2.727 2.445A3770.99 3770.99 0 0 1 476 487l-2 1c-2.383-1.215-2.383-1.215-5.125-2.938l-2.758-1.714L464 482l1.75 1.863 2.25 2.45 2.25 2.425C472 491 472 491 472 494l-7-2v2h-6l4 5c-7.539-1.743-12.462-3.462-18-9h-3c-2.41-2.047-2.41-2.047-5.063-4.75l-2.66-2.672c-1.93-2.185-3.174-3.912-4.277-6.578 4.671 1.557 8.087 4.084 12 7-3.864-4.487-7.748-8.877-12-13 3.791 1.45 7.387 3.152 11 5l-6-7c4.49 0 7.58 2.188 11 5 .875 2.5.875 2.5 1 5 1.12 3.794 1.12 3.794 4 6.313 1.963.795 1.963.795 4 .687l-1.496-1.172-1.941-1.578c-.639-.51-1.277-1.02-1.934-1.547-1.817-1.9-2.233-3.139-2.629-5.703l2.336 1.496 3.039 1.942 3.023 1.933c2.46 1.599 2.46 1.599 4.602 2.629-4.436-4.65-9.327-8.263-14.55-12.012L443 469v-2l-1.688-.75c-3.938-2.13-6.868-3.92-8.312-8.25 4.473 1.398 7.695 3.903 11.328 6.758 1.459 1.341 1.459 1.341 2.672 1.242v-2l-1.688-.563c-3.342-2.077-5.36-5.044-7.312-8.437v-2zM518.072 330.827h2c5.317 1.167 8.683 3.918 12.754 7.344 2.335 1.721 4.519 2.698 7.246 3.656v2l-9-2c4.055 3.727 4.055 3.727 9 5.938 4.149 1.469 6.048 3.829 9 7.062l-2-4c1.813.063 1.813.063 4 1 4.361 6.541 3.262 14.455 3 22l-2-1v9h-2c-1.807-4.624-2.218-8.425-2.125-13.375l.055-3.773.07-2.852-1 9-2-2-2 9h-1v-13l-2 4-1-2-1 7 1-2h2v11l-3-1-2 11c-2.136-3.204-2.231-4.019-2.125-7.687l.055-2.45.07-1.863-2 2v-9l-1.609 1.836c-6.041 5.468-15.542 7.471-23.391 9.164l2.266-.07 2.984-.055 2.953-.07c2.817.196 4.406.749 6.797 2.195-1 1-1 1-4.187 1.438-3.7.402-3.7.402-6.563 1.625-11.187 3.226-20.924-.895-31.25-5.063l-1 2-5-1v-2l2-1-10-5v-5l1.168 1.355c2.241 2.013 4.342 2.854 7.145 3.958 3.467 1.377 6.885 2.778 10.273 4.343 6.831 3.142 11.875 5.124 19.414 4.344l-2.527-.734c-5.995-1.786-11.75-3.677-17.418-6.325-5.192-2.378-10.63-4.178-16.055-5.941v-3h-4l-2 4-3-2v2h2c-.557 3.344-1.352 6.033-3 9h-3l-1 14h-1v-7h-2l-1 3-1-5c-.12 5.778.168 11.28 1 17-1.973-1.973-2.771-3.543-4-6l-2-2 2 15c-2.754-2.754-3.474-5.998-4.625-9.625l-.695-2.141a964.938 964.938 0 0 1-1.68-5.234c-.646 9.445 1.303 15.991 5.75 24.25 1.422 3.127 1.493 5.353 1.25 8.75-3.884-1.55-6.03-4.005-8.75-7.125l-2.422-2.758-1.828-2.117-1 9c-5.447-10.894-5.447-10.894-5-17h-2c1.447 7.506 3.237 14.046 6.859 20.789 2.578 4.996 3.413 9.639 3.141 15.211l-1.875-1c-2.035-1.142-2.035-1.142-4.125-1l1 3c-3.669-.706-6.705-2.277-10-4l1.25 1.25 5.75 5.75-2.145-.906c-7.94-3.042-16.518-4.526-24.855-6.094v2h-3l1.617.41c6.625 1.914 12.158 5.063 17.383 9.59v2c-5.169 1.834-9.219.128-14-2-8.752-4.382-13.756-9.841-19-18a110.673 110.673 0 0 0-5-7h-3c-2.181-1.486-4.022-3.242-6-5 3-1 3-1 6 0l1-2-13-5c4.073-1.358 7.219-.204 11.25.813l2.238.541a311.9 311.9 0 0 1 13.512 3.646c-3.644-4.638-8.631-6.074-14-8 3.792-1.264 4.355-.473 8 1 3.317.758 6.653 1.389 10 2l-2-1v-2h2v-2l-2-1 7 1v-2l-12-3v-1c6.111-.099 11.974-.071 18 1-1.469-2.938-3.594-3.329-6.562-4.625l-3.067-1.352-2.371-1.023c4.768-1.829 8.511.452 13.027 2.188 3.175.867 4.881.874 7.973-.188l1-2-1.863-.332-2.449-.48-2.426-.458c-2.496-.806-3.586-1.751-5.262-3.73 4.836.99 9.476 1.957 14 4l5-6-15-5c4.599-1.15 6.326-.522 10.75.938l3.547 1.152 2.703.91v-3l-7-2v-1l8 1v2l6-2v-2l-11-3c4.238-1.059 6.774-.736 10.977-.059l2.023.059 2-2-7-1 1-3h10c2.817-1.412 5.384-3.249 8-5l2.746-1.785 2.754-1.84 2.594-1.727 1.906-1.648v-3c4.222-3 4.222-3 7-3l.801-1.784c1.243-2.297 2.549-3.824 4.387-5.669l1.867-1.875 1.945-1.922 1.945-1.969a35677.484 35677.484 0 0 0 3.575-3.559c1.48-1.222 1.48-1.222 3.48-1.222l.238-1.863c.762-2.137.762-2.137 2.617-3.367l2.333-.957 2.292-.981c9.034-2.983 19.248-2.48 28.52-.832z"/><path d="m0 0 1 2-9 2 9 3c-2.762 2.762-5.207 2.579-9 3l8 2v1h-9v2l9 1v2l-10-1 1 4-2 1 1 3c1.874.802 1.874.802 4.063 1.188l2.222.48L-2 27v1h-9l9 2v2h-12l3 2 2 2-7-1c1.933 2.025 3.632 3.421 6 5h-6l-2 4h-2l3 4c-3.85 2.567-5.586 1.833-10 1l1-4h-2l.875-3.75c1.076-4.788 1.844-9.6 2.563-14.453.56-2.79 1.423-5.196 2.562-7.797l3 1 1-4h-2c.642-4.933 1.253-8.924 4.125-13.063C-10.983-.36-5.775-.18 0 0z" transform="translate(1801 1812)" style="fill:#fff"/><path d="M0 0c2.305.504 2.305.504 5.305 3.504h-10v2l2 1-1 2 5 1-4 2v2h-2l1 3v2l6 2v2l-7-1 1 2-5 1 4 3-7 1 1.875 1.875 4.125 4.125a84.76 84.76 0 0 1-7-2l1.312 1.312 4.688 4.688-3.25-1c-3.748-1.172-3.748-1.172-7.75-1l2.437.875c2.563 1.125 2.563 1.125 3.563 3.125l-5-2v2l3 1-2 1c-2.625-.938-2.625-.938-5-2v2l2.437.875c2.563 1.125 2.563 1.125 3.563 3.125-3.594-1.335-6.755-2.96-10-5l2.375 2.312c2.625 2.688 2.625 2.688 4.625 5.688-3.083-1.2-6.063-2.477-9-4l1.375 1.375 3.625 3.625h-8c-1.592-4.775-.013-7.686 2-12l1.028-2.235a995.362 995.362 0 0 1 3.41-7.265l1.157-2.473c1.76-3.722 3.557-7.372 5.631-10.93 1.865-2.992 1.865-2.992 2.711-6.16C-11.023 1.881-7.685-.175 0 0z" transform="translate(773.695 1850.496)" style="fill:#fff"/><path d="M308 498c4.154 1.668 7.11 4.664 10.313 7.688l1.767 1.64c2.936 2.742 5.758 5.531 8.482 8.485 3.654 3.744 8.073 6.08 12.614 8.609 3.067 1.714 5.94 3.576 8.824 5.578l-2 1a94.594 94.594 0 0 1-6.75-3.188l-1.844-.923c-5.656-2.883-10.887-5.86-14.968-10.826A120.967 120.967 0 0 0 316 507c7.344 10.976 15.763 19.079 27 26-3 1-3 1-5.523-.223-5.443-3.511-9.547-6.656-13.477-11.777l-1.895-.879c-2.728-1.453-4.02-3.276-5.855-5.746l-1.86-2.477L313 510c1.448 3.945 2.982 6.083 6 9v2l3 1a173.788 173.788 0 0 1 4 5l2.563 2.563c2.053 2.054 3.769 4.067 5.437 6.437-3.436-1.527-6.12-3.6-9-6l2 7h-2l3 3-1 2-1.46-1.496-1.915-1.941-1.898-1.934c-1.644-1.709-1.644-1.709-3.727-2.629a301.12 301.12 0 0 0 1.75 4.813l.984 2.707c1.397 2.737 2.788 3.747 5.266 5.48v2c-4.226-1.087-6.505-3.118-8.934-6.727-1.743-3.716-2.193-7.556-2.707-11.601-.287-2.768-.287-2.768-1.359-5.672v-2l-1-3c3.335 1.112 4.637 2.474 7 5l-1-5-1.824-.191c-3.098-1.152-3.595-2.811-4.989-5.747l-1.332-2.714L309 509l1-2 2 1-.875-1.68-1.125-2.195-1.125-2.18C308 500 308 500 308 498zm46.137-73.18c2.86 1.544 2.86 1.544 5.863.18 7.372 1.78 12.707 5.736 18 11l-1-6c2.978 2.5 3.946 5.047 5.188 8.687l1.043 3.012.77 2.3c-3.74-1.68-5.562-3.69-8-7l-2.25.75-2.75.25c-2.063-1.75-2.063-1.75-4-4a156.069 156.069 0 0 0-4-3l1.46 1.723c3.811 4.66 6.294 8.276 7.54 14.278l1.062 3.187A73.9 73.9 0 0 1 375 457c-3.9-3.25-4.725-6.175-6-11l-2-1 2 5-1.875-2c-3.313-3.333-7.019-6.154-10.722-9.035C354 437 354 437 351.957 434.925c-1.956-1.925-3.859-3.267-6.207-4.675l-2.14-1.297L342 428l2-1c2.207.925 2.207.925 4.813 2.312 3.344 1.766 6.654 3.336 10.187 4.688-4.4-6.051-9.557-9.595-17-11a334.59 334.59 0 0 0-9.775-.518c-1.747-.09-3.488-.28-5.225-.482l-1-2c9.708-3.236 19.44.545 28.137 4.82z"/><path d="M547 396h1c-.418 5.043-.977 9.322-3 14a127.16 127.16 0 0 0-1 6h2l.313-2.625c.721-3.542 1.958-6.218 3.687-9.375 1.187 3.562.696 4.598-.375 8.125-1.639 6.086-2.1 11.91-2.333 18.174-.12 3.133-.294 5.707-1.292 8.701h-2v-8h-2c.141 2.25.288 4.5.438 6.75l.246 3.797c.241 2.636.559 4.933 1.316 7.453h-2l-5-15-2 2-1-3h-2c-1.295-2.134-2.033-3.476-1.875-6 1.135-2.595 2.79-4.117 4.875-6l1 9c2.283-5.219 3.453-10.269 4.375-15.875 1.124-6.708 3.06-12.263 6.625-18.125z" fill="#1C1C1C"/><path d="M0 0v2l-3 2 4 2h-6l1 2-3 2 3 1-1 4h-3l-1-3-1 4 2 1v3h-5l-1 4 4 2c-3.053.981-4.947.981-8 0l1 3-2 2 6 2v2l-9-2v2l6 2c-2.49.687-4.379 1-7 1l5 2v2l-6-1-1 5h-3v-4l2-1-2-1c1.573-6.486 3.812-11.782 7.383-17.414 2.245-3.59 4.222-7.312 6.222-11.043C-8.065 0-8.065 0 0 0z" transform="translate(1489 1723)" style="fill:#fff"/><path d="M465 311h1v16l2-10h2c.248 6.57-.676 12.57-2 19l-2-2-2 1v-11h-2c1.316 12.125 1.316 12.125 4 24h-2l-2-6v9a90.488 90.488 0 0 1-4-4v-2h2a103.49 103.49 0 0 0-3-3h-1l-1-6c.115 1.438.242 2.876.375 4.313.07.8.14 1.6.21 2.425.31 2.534.31 2.534 2.415 5.262l-1 3c-6-8.6-6-8.6-6-14h-2l-1-5h2v2h2v-10l3 6 1-6h1l1 10 1-14 3 1 .402-1.934c.177-.826.354-1.652.535-2.504l.528-2.496C464 312 464 312 465 311z"/><path d="M0 0h2v7l2 1H1c.86 4.332.86 4.332 3 8 .04 1.666.043 3.334 0 5l-3 1 2.5 1.313L6 25v3l-4 1 1.938.313L6 30l1 3-5 1 5 2-1 3c-2.853.234-5.204.414-8 0-3.379-3.27-3.678-7.612-4-12.129C-6 17.383-3.595 8.71 0 0z" transform="translate(153 574)" style="fill:#fff"/><path d="M497.527 376.194c-11.733-.304-17.987-5.003-20.588-11.877 6.78 5.004 9.659 6.624 22.013 7.389 8.577.531 18.487-.304 23.856-3.016-6.325 4.766-15.639 7.754-25.281 7.504zm9.283-37.96c12.89.72 18.932 11.185 18.932 11.185s-3.113-3.513-23.278-4.058c-16.304-.44-16.983 1.653-20.799 2.512 3.308-8.879 16.27-10.135 25.145-9.639z" style="fill:#fff"/><path d="M745.355 1847.13c.497.56.497.56.668 3.23-.859-.21-1.719-.42-2.604-.64l-.407 1.66c.104.31.208.63.317.95-.221.52-.442 1.05-.67 1.6.544.56.544.56 1.099 1.14l-1.45 1.4c-.132.54-.268 1.09-.405 1.64l-.521-.12-.353 2.55c-.132.53-.268 1.08-.407 1.65.383.67.765 1.33 1.157 2.03l-.408 1.65c-.534-.42-1.068-.84-1.618-1.28l-.148 1.72c-.496.17-.994.34-1.506.51.141.91.284 1.81.431 2.74-.67.12-1.339.25-2.026.37.033.56.068 1.11.104 1.68.08 1.21.157 2.45.235 3.67-.505-.63-.966-1.31-1.415-2.1l.074 1.17c.087 1.39.177 2.78.267 4.17-.214-.34-.423-.69-.643-1.04-.736-1.21-.736-1.21-1.815-1.32.225.44.225.44.457.88.439 1.09.439 1.09.291 2.81-.297-.65-.591-1.3-.894-1.98l-.408 1.66c.191.34.381.67.579 1.01-.363.36-.363.36-.726.71-.495-.94-.495-.94-.894-1.98l-.408 1.66c.226.43.226.43.455.88.439 1.09.439 1.09.292 2.81-.666-1.33-1.077-3.13-1.025-2.43.136 2.39.136 2.39.048 4.98-.56-1.18-1.48-3.06-1.454-2.64.068 1.08.138 2.15.205 3.23l-2.083-.51c.56-4.06 1.15-6.64 2.555-10.08l.72-1.77c.789-1.94 1.578-3.86 2.37-5.8.265-.64.53-1.29.803-1.95 1.218-2.97 2.429-5.87 3.694-8.68 1.096-2.36 1.096-2.36 1.962-4.92 2.25-6.07 3.539-7.56 5.505-6.92z" style="fill:#fff;transform-origin:741.703px 1868.96px" transform="rotate(8.436 0 0)"/><path d="M932.225 1901.5c.22-1.01 8.267-2.65 8.855-2.13a3441.3 3441.3 0 0 0-3.399 2.76l-.135 1.98c1.649-.88 1.649-.88 3.33-1.77l-.136 1.97c-.724.83-1.449 1.65-2.174 2.47-.404.46-.808.92-1.225 1.4-1.067 1.1-1.067 1.1-1.999 1.32l-.136 1.98c.901.11 1.801.21 2.729.32-.199.68-.398 1.38-.603 2.09-1.469.96-1.469.96-2.864 1.66.852 1.87 1.295 2.05 2.593 2.29l-.136 1.98c-1.23.29-2.461.59-3.728.9l-.136 1.97c.307-.07.615-.15.932-.22l-.136 1.98c-.99 1.2-.99 1.2-2 2.42l.796 1.76c-.66.8-1.32 1.6-2 2.42.878.43 1.756.86 2.661 1.31l-.136 1.97-3.661-.09-.602 2.09c.769-.18 1.539-.37 2.331-.56l.262 2.86a18.658 18.658 0 0 1-3.126-1.2l-.136 1.98c-.308.07-.616.15-.933.23l-.136 1.97c1.032.4 2.064.79 3.127 1.19-1.699 1.54-2.592 1.32-4.194 1.02-.199.68-.398 1.37-.603 2.09.285-.03.569-.07.862-.11.372-.02.744-.05 1.128-.07l1.118-.1c1.183.29 1.564 1.05 2.214 2.88-.237-.11-.475-.2-.72-.31-1.307-.28-2.55.07-3.931.46-2.643.74-2.643.74-3.603-.1.228-5.22.667-8.62 1.933-13.81 1.013-4.31 1.84-8.7 2.693-13.08l.546-2.77c.821-4.2 1.608-8.36 2.312-12.59l.7-3.48c.483-.44.967-.88 1.466-1.33z" style="fill:#fff;transform-origin:931.948px 1921.94px" transform="rotate(12.162 0 0)"/><path d="M1469.68 1715.55c-.1.53-.22 1.06-.34 1.61-.73.51-1.45 1.03-2.21 1.56.71.55 1.42 1.11 2.15 1.68l-3.73-.12c.09.54.18 1.09.28 1.65-.73.51-1.46 1.01-2.21 1.54.56.29 1.12.57 1.69.87-.43 1.07-.87 2.12-1.31 3.2l-1.87-.06c-.03-.81-.07-1.6-.11-2.43-.43 1.05-.87 2.12-1.29 3.21.35.28.69.55 1.06.85-.17.78-.34 1.58-.52 2.4-1.02-.03-2.05-.06-3.11-.1-.43 1.07-.86 2.13-1.3 3.23.69.54 1.41 1.1 2.14 1.69-2.07.72-3.24.68-4.97-.17.03.8.07 1.61.1 2.44-.54.52-1.04 1.03-1.59 1.56 1.11.6 2.23 1.16 3.38 1.75-.1.52-.22 1.05-.34 1.6-1.73-.58-3.46-1.17-5.25-1.78-.11.53-.23 1.06-.34 1.59 1.12.59 2.24 1.15 3.38 1.76-1.66.5-2.9.72-4.51.66.91.56 1.82 1.13 2.76 1.71-.11.53-.23 1.07-.35 1.61-1.17-.3-2.34-.6-3.56-.93-.73 2.01-.73 2.01-1.48 4.04-.62-.03-1.23-.05-1.87-.06.23-1.09.46-2.15.69-3.25.71-.38.71-.38 1.41-.77-.34-.27-.69-.55-1.06-.85 2.09-5.2 4.4-9.41 7.58-13.89 2.02-2.84 3.88-5.81 5.77-8.78 5.92-9.19 5.92-9.19 10.93-9.02z" style="fill:#fff;transform-origin:1457.99px 1736.18px"/><path d="M1747.26 1809.05c2.63-2.72 7.82-.6 6.18-.04-2.13 2.12.1 5.53-1.94 5.89-.74.97.72 1.18-.53 2.48v1.64c1.59.27 1.28 1.94-.54 1.66.16 1.08.34 2.18.54 3.3-.38.27-.73.54-1.09.82.18.83.36 1.64.55 2.48.98.67.98.67 2.17.98.6.2-1.07 1.5-2.72 1.5 1.61.54.58 3.3-1.61 3.3.54.56 1.07 1.1 1.61 1.66.36.54.71 1.08 1.09 1.65-1.86-.4-1.86-.4-3.77-.83 1.03 1.68 1.95 2.83 3.23 4.14h-3.23c-.36 1.08-.72 2.18-1.09 3.3h-1.07c.54 1.08 1.07 2.18 1.62 3.3-2.08 2.13-3.02 1.51-5.38.83.17-1.1.35-2.18.53-3.31h-1.07c.22-1.54.22-1.54.48-3.09.58-3.97.99-7.94 1.37-11.95.31-2.29.75-4.28 1.38-6.44.54.27 1.06.56 1.61.84.18-1.1.35-2.18.53-3.32h-1.07c.34-4.07.67-7.36 2.22-10.79z" style="fill:#fff;transform-box:fill-box;transform-origin:50% 50%" transform="rotate(13.015 0 0)"/><circle style="fill:#fff" cx="499.079" cy="347.54" r="4.879"/></svg>