<?xml version="1.0" encoding="utf-8"?>
<svg xmlns="http://www.w3.org/2000/svg" viewBox="0 0 500 500" xmlns:bx="https://boxy-svg.com" width="500px" height="500px"><defs><bx:export><bx:file format="svg"/><bx:file format="svg" href="#object-0" path="Untitled 2.svg"/></bx:export></defs><g transform="matrix(0.049232, 0, 0, -0.049232, -83.186928, 1429.90979)" fill="#000000" stroke="none" style=""><g><path d="M 9543 22288 C 9637 22093 9642 22000 9573 21670 C 9565 21629 9552 21573 9545 21545 C 9526 21472 9500 21372 9484 21315 C 9476 21288 9463 21240 9454 21210 C 9346 20822 9339 20808 9214 20693 C 9125 20611 9080 20550 9080 20513 C 9080 20495 9032 20413 8989 20359 C 8974 20340 8950 20302 8937 20275 C 8906 20216 8916 20180 8961 20180 C 8992 20180 9017 20209 9103 20344 C 9136 20396 9157 20420 9171 20420 C 9181 20420 9190 20416 9190 20410 C 9190 20405 9159 20350 9120 20287 C 9079 20221 9050 20162 9050 20147 C 9050 20120 9051 20120 9123 20120 C 9162 20121 9222 20127 9255 20135 C 9288 20143 9337 20150 9363 20150 C 9419 20150 9549 20177 9568 20193 C 9600 20218 9614 20266 9615 20350 C 9616 20484 9650 20524 9754 20513 C 9847 20503 9866 20530 9885 20695 C 9888 20723 9898 20772 9906 20805 C 9944 20955 9974 21061 9995 21120 C 10002 21139 10015 21180 10024 21210 C 10046 21286 10073 21367 10115 21485 C 10135 21540 10155 21596 10160 21610 C 10165 21624 10178 21660 10190 21690 C 10202 21720 10215 21756 10220 21770 C 10224 21784 10238 21818 10250 21845 C 10262 21873 10276 21906 10280 21920 C 10291 21951 10318 22021 10362 22130 C 10414 22258 10425 22321 10406 22395 C 10398 22428 10382 22480 10370 22510 C 10358 22540 10345 22576 10340 22590 C 10335 22604 10322 22640 10310 22670 C 10285 22735 10233 22882 10219 22926 C 10215.085 22939.31 10206.266 22955.686 10197.343 22966.967 C 10222.637 22988.892 10265.54 23017.604 10284 22980 C 10288 22972 10296 22956 10303 22945 C 10310 22934 10333 22893 10355 22855 C 10377 22816 10400 22776 10406 22765 C 10421 22740 10457 22666 10476 22623 C 10484 22605 10497 22573 10506 22553 C 10515 22532 10529 22503 10536 22488 C 10544 22474 10550 22457 10550 22450 C 10550 22439 10669 22194 10698 22146 C 10705 22135 10733 22091 10760 22050 C 10828 21947 10854 21890 10893 21765 C 10965 21531 10984 21280 10956 20943 C 10934 20681 10899 20454 10868 20365 C 10863 20349 10856 20324 10853 20310 C 10846 20281 10791 20194 10757 20159 C 10727 20128 10694 20059 10680 19995 C 10673 19968 10661 19929 10652 19910 C 10644 19891 10631 19862 10624 19845 C 10618 19829 10605 19798 10596 19777 C 10573 19724 10575 19663 10599 19650 C 10651 19623 10704 19659 10739 19746 C 10797 19893 10821 19940 10838 19940 C 10849 19940 10851 19930 10847 19898 C 10843 19857 10791 19700 10769 19659 C 10755 19631 10766 19604 10798 19591 C 10821 19581 10837 19584 10895 19605 C 11026 19653 11079 19670 11102 19670 C 11115 19670 11143 19679 11166 19689 C 11231 19719 11244 19757 11242 19919 C 11241 20061 11246 20085 11292 20126 C 11304 20138 11329 20151 11346 20154 C 11363 20158 11386 20171 11396 20183 C 11445 20240 11445 20238 11446 20555 C 11446 20757 11452 20907 11463 21015 C 11499 21361 11510 21488 11510 21560 C 11510 21635 11531 21796 11551 21880 C 11557 21905 11566 21941 11570 21960 C 11575 21979 11590 22027 11605 22065 C 11628 22127 11631 22146 11627 22235 C 11625 22311 11618 22348 11601 22390 C 11562 22483 11554 22543 11574 22588 C 11592 22627 11592 22628 11564 22681 C 11541 22727 11537 22748 11536 22825 C 11535 22904 11538 22919 11557 22944 C 11579 22971 11580 22979 11574 23084 C 11568 23184 11570 23203 11589 23260 C 11603 23300 11613 23360 11617 23424 C 11623 23529 11630 23550 11660 23550 C 11692 23550 11698 23615 11678 23772 C 11668 23851 11669 23880 11679 23922 C 11687 23951 11696 23980 11700 23985 C 11705 23991 11718 24023 11730 24058 C 11753 24123 11752 24149 11729 24227 C 11717 24266 11718 24273 11738 24308 C 11756 24341 11758 24356 11753 24418 C 11748 24484 11749 24493 11770 24515 L 11793 24539 L 11771 24632 C 11759 24683 11750 24751 11750 24782 C 11750 24836 11752 24841 11780 24855 C 11814 24873 11815 24877 11795 24944 C 11787 24971 11780 25025 11780 25064 C 11779 25103 11773 25162 11765 25195 C 11747 25267 11746 25351 11761 25422 C 11770 25463 11770 25490 11760 25540 C 11753 25576 11744 25610 11739 25615 C 11708 25655 11697 25722 11691 25900 L 11685 26085 L 11641 26175 C 11616 26225 11577 26295 11553 26332 C 11529 26369 11510 26401 11510 26404 C 11510 26422 11291 26708 11243 26751 C 11228 26765 11188 26793 11155 26813 C 11122 26833 11068 26872 11035 26900 C 10971 26955 10786 27050 10744 27050 C 10727 27050 10592 27115 10576 27131 C 10570 27136 10557 27140 10546 27140 C 10524 27140 10450 27162 10385 27189 C 10354 27202 10314 27205 10200 27203 L 10055 27201 L 10023 27232 C 9992 27262 9989 27263 9951 27250 C 9929 27243 9896 27240 9874 27244 C 9852 27247 9783 27255 9720 27260 C 9657 27266 9562 27275 9510 27282 C 9428 27291 9406 27290 9358 27276 C 9319 27265 9262 27260 9173 27260 C 9049 27260 8967 27246 8877 27211 C 8837 27196 8804 27197 8767 27217 C 8711 27246 8664 27238 8575 27187 C 8483 27133 8442 27128 8359 27160 L 8307 27181 L 8231 27159 C 8134 27131 8043 27102 8022 27091 C 8013 27087 7991 27075 7973 27066 C 7936 27047 7868 27045 7840 27062 C 7823 27073 7815 27072 7792 27058 C 7777 27049 7747 27031 7726 27019 L 7687 26998 L 7591 27050 L 7541 27025 C 7430 26969 7368 26957 7185 26956 L 7015 26955 L 6917 27002 C 6828 27045 6813 27050 6754 27048 C 6695 27047 6687 27049 6659 27076 C 6630 27104 6626 27105 6527 27105 L 6425 27105 L 6356 27149 C 6296 27186 6282 27191 6251 27185 C 6188 27173 6136 27176 6090 27194 C 6064 27204 5997 27216 5933 27221 C 5831 27229 5815 27233 5750 27267 C 5651 27320 5614 27353 5580 27421 C 5562 27456 5523 27505 5484 27543 C 5431 27595 5421 27610 5432 27619 C 5439 27625 5456 27639 5470 27650 L 5495 27670 L 5472 27689 C 5460 27700 5426 27713 5398 27720 C 5316 27737 5300 27752 5300 27809 C 5300 27854 5280 27890 5256 27890 C 5233 27890 5180 27946 5166 27986 C 5149 28036 5082 28127 5008 28201 C 4960 28249 4958 28253 4964 28292 C 4968 28314 4978 28346 4986 28362 C 5003 28394 5008 28469 4996 28489 C 4980 28514 4912 28547 4845 28563 C 4738 28588 4609 28610 4569 28610 C 4539 28610 4526 28618 4492 28655 C 4450 28702 4399 28730 4358 28730 C 4335 28730 4281 28762 4216 28814 C 4180 28843 4160 28846 4102 28834 C 4076 28829 4061 28833 4030 28854 C 4000 28874 3978 28880 3936 28880 C 3907 28880 3865 28888 3844 28897 C 3817 28908 3780 28913 3725 28912 C 3671 28911 3638 28915 3623 28925 C 3611 28933 3584 28942 3563 28946 C 3531 28951 3520 28948 3497 28926 C 3463 28894 3448 28891 3336 28887 C 3248 28885 3246 28885 3230 28855 C 3210 28818 3174 28812 3115 28834 C 3092 28843 3066 28848 3057 28844 C 3048 28841 3034 28816 3025 28789 C 3008 28737 3004 28735 2937 28740 C 2890 28742 2870 28727 2870 28687 C 2870 28666 2860 28647 2836 28624 C 2817 28606 2774 28520 2745 28520 C 2726 28520 2696 28526 2678 28534 C 2507 28608 2411 28640 2367 28640 C 2328 28640 2182 28616 2083 28593 C 1995 28573 1940 28533 1940 28490 C 1940 28453 2035 28324 2121 28246 C 2205 28169 2318 28083 2393 28040 C 2426 28021 2455 28000 2457 27994 C 2459 27987 2425 27938 2380 27884 C 2312 27800 2246 27718 2070 27500 C 1910 27302 1794 27145 1777 27103 C 1768 27079 1753 27043 1744 27021 C 1732 26992 1730 26966 1735 26919 C 1743 26830 1744 26758 1735 26669 C 1729 26605 1730 26589 1746 26564 C 1772 26522 1812 26480 1826 26480 C 1833 26480 1858 26459 1882 26434 C 2026 26283 2073 26251 2184 26229 C 2263 26214 2338 26230 2455 26286 C 2505 26310 2572 26336 2605 26345 C 2670 26361 2885 26366 2909 26351 C 2924 26341 2960 26185 2960 26124 C 2960 26055 2989 25985 3035 25938 C 3115 25856 3130 25797 3111 25632 C 3098 25522 3105 25490 3141 25490 C 3171 25490 3175 25464 3156 25390 C 3136 25315 3140 25289 3174 25263 C 3223 25224 3230 25201 3236 25054 C 3242 24883 3253 24834 3289 24817 C 3314 24805 3315 24801 3318 24706 L 3321 24607 L 3364 24564 C 3388 24541 3411 24509 3414 24494 C 3418 24478 3439 24428 3461 24382 C 3482 24336 3500 24286 3500 24271 C 3500 24223 3520 24137 3539 24100 C 3621 23945 3650 23863 3650 23791 C 3650 23739 3677 23603 3695 23570 C 3712 23537 3740 23443 3740 23418 C 3740 23385 3771 23327 3812 23285 C 3843 23252 3854 23229 3871 23160 C 3883 23113 3902 23062 3913 23045 C 3963 22973 4016 22918 4069 22885 C 4102 22864 4141 22826 4165 22793 C 4217 22721 4274 22670 4303 22670 C 4316 22670 4335 22661 4346 22649 C 4371 22622 4453 22562 4499 22538 C 4526 22523 4563 22517 4645 22513 C 4781 22507 4803 22499 4831 22446 C 4842 22424 4865 22386 4881 22362 C 4897 22338 4910 22317 4910 22315 C 4910 22312 4927 22282 4948 22248 C 5046 22088 5141 21899 5163 21820 C 5182 21756 5210 21587 5210 21544 C 5210 21527 5216 21494 5224 21469 C 5366 21016 5360 21045 5360 20728 C 5360 20542 5356 20450 5345 20393 C 5337 20350 5330 20292 5330 20265 C 5330 20202 5299 20090 5269 20048 C 5256 20030 5220 19986 5187 19950 C 5152 19912 5112 19853 5089 19805 C 5068 19761 5028 19691 5000 19650 C 4941 19561 4918 19513 4922 19485 C 4924 19469 4932 19465 4964 19465 L 5003 19465 L 5071 19579 C 5153 19717 5155 19719 5176 19698 C 5192 19682 5186 19665 5120 19554 C 5079 19484 5050 19424 5050 19410 C 5050 19368 5102 19359 5199 19384 C 5277 19404 5423 19428 5501 19435 C 5661 19448 5682 19474 5690 19665 C 5696 19812 5705 19834 5768 19866 C 5840 19903 5840 19902 5840 20024 C 5840 20085 5833 20185 5825 20245 C 5770 20639 5760 20747 5760 20925 C 5760 21049 5780 21260 5799 21345 C 5804 21367 5815 21464 5824 21560 C 5834 21656 5848 21785 5856 21846 C 5864 21907 5870 21978 5870 22004 C 5870 22030 5875 22094 5882 22146 C 5892 22232 5886.507 22222.175 5906.948 22236.145 C 5920.156 22245.172 6062 22191 6080 22125 C 6085 22109 6093 22082 6098 22065 C 6110 22032 6131 21958 6156 21860 C 6169 21812 6175 21726 6181 21525 C 6188 21266 6193 21218 6218 21140 C 6274 20968 6298 20889 6330 20775 C 6336 20753 6347 20666 6355 20581 C 6370 20420 6369 20405 6330 19970 C 6318 19834 6299 19777 6227 19670 C 6170 19585 6144 19535 6126 19475 C 6103 19402 6084 19351 6054 19285 C 5979 19117 5978 19070 6051 19070 C 6124 19070 6129 19077 6222 19305 C 6241 19350 6253 19366 6270 19368 C 6290 19371 6292 19369 6287 19333 C 6285 19312 6273 19270 6261 19240 C 6201 19088 6191 19043 6212 19022 C 6229 19005 6293 19007 6337 19026 C 6422 19062 6438 19069 6510 19098 C 6551 19115 6619 19137 6660 19146 C 6701 19156 6742 19171 6751 19179 C 6797 19224 6815 19362 6784 19435 C 6776 19455 6770 19490 6772 19513 C 6775 19551 6778 19555 6808 19561 C 6897 19579 6944 19709 6906 19831 C 6899 19855 6885 19911 6875 19955 C 6839 20126 6827 20177 6815 20235 C 6780 20391 6750 20655 6750 20801 C 6750 20885 6769 21042 6789 21117 C 6818 21228 6830 21296 6841 21405 C 6848 21471 6857 21535 6861 21546 C 6865 21558 6887 21581 6909 21596 C 6931 21612 6955 21641 6963 21660 C 6971 21679 6992 21728 7009 21769 C 7026 21809 7040 21848 7040 21856 C 7040 21863 7060 21883 7085 21901 L 7130 21933 L 7130 21996 C 7130 22054 7132 22060 7169 22097 C 7204 22132 7209 22142 7215 22205 C 7222 22270 7247.2 22313.542 7290.828 22315.843 C 7327.777 22317.792 7342 22311 7383 22296 C 7406 22288 7458 22278 7499 22275 C 7587 22267 7698 22247 7725 22233 C 7771 22210 7859 22196 7885 22208 C 7931 22229 7989 22223 8029 22193 C 8087 22149 8126 22130 8160 22130 C 8186 22130 8193 22135 8201 22160 C 8211 22187 8217 22190 8251 22190 C 8273 22190 8303 22184 8318 22176 C 8333 22168 8362 22159 8382 22155 C 8413 22149 8422 22152 8449 22179 C 8466 22196 8485 22210 8491 22210 C 8497 22210 8532 22198 8568 22183 C 8644 22152 8703 22150 8752 22176 C 8814 22208 8823 22212 8867 22225 C 8917 22240 8906 22246 8980 22162 C 9006 22132 9022 22143 9082 22230 C 9125 22293 9130 22297 9264 22365 C 9322.369 22394.953 9434.492 22380.336 9504.664 22386.891 C 9508.542 22367.536 9523.283 22329.012 9543 22288 Z M 2472 28564 C 2496 28555 2542 28535 2575 28520 C 2608 28505 2648 28490 2663 28486 C 2699 28478 2697 28446 2659 28418 L 2633 28398 L 2564 28436 C 2526 28456 2491 28476 2485 28480 C 2480 28484 2445 28495 2408 28504 C 2346 28519 2334 28519 2233 28504 C 2127 28487 2100 28478 2100 28458 C 2100 28442 2228 28314 2340 28217 C 2460 28114 2482 28091 2474 28079 C 2466 28065 2424 28069 2410 28085 C 2403 28093 2393 28100 2388 28100 C 2372 28100 2240 28204 2154 28283 C 2061 28370 1997 28457 2002 28490 C 2012 28555 2354 28609 2472 28564 Z M 4745 28529 C 4855 28506 4930 28479 4941 28458 C 4965 28414 4921 28309 4804 28130 C 4732 28020 4673 27961 4610 27936 C 4585 27926 4550 27912 4532 27904 C 4514 27896 4495 27890 4489 27890 C 4464 27890 4417 27844 4400 27805 C 4377 27752 4361 27741 4343 27766 C 4322 27794 4336 27867 4370 27910 C 4398 27946 4476 27980 4529 27980 C 4559 27980 4622 28014 4657 28049 C 4736 28128 4858 28358 4845 28401 C 4829 28450 4648 28491 4542 28469 C 4477 28456 4420 28416 4394 28367 C 4371 28321 4340 28202 4340 28154 C 4340 28132 4333 28091 4325 28064 C 4317 28037 4310 28006 4310 27994 C 4310 27965 4287 27938 4269 27945 C 4260 27948 4238 27980 4221 28016 C 4194 28071 4189 28094 4187 28161 L 4185 28241 L 4231 28283 C 4257 28306 4295 28351 4315 28383 C 4411 28532 4534 28574 4745 28529 Z M 3839 28503 C 3911 28481 3992 28429 4034 28376 C 4107 28286 4121 28242 4130 28065 C 4135 27983 4142 27894 4146 27868 C 4156 27798 4135 27739 4071 27651 C 3992 27544 3969 27483 3951 27339 C 3941 27263 3910 27195 3847 27112 C 3791 27037 3764 26978 3725 26845 C 3672 26665 3657 26632 3601 26568 C 3547 26508 3449 26460 3340 26442 C 3290 26434 3121 26425 2935 26420 C 2585 26412 2585 26412 2450 26344 C 2270 26252 2152 26259 2013 26368 C 1950 26417 1955 26459 2021 26440 C 2093 26419 2202 26417 2275 26435 C 2314 26445 2350 26456 2355 26460 C 2361 26464 2401 26486 2445 26510 C 2605 26595 2632 26613 2660 26652 C 2708 26718 2677 26743 2611 26692 C 2569 26659 2492 26613 2435 26586 C 2413 26576 2387 26564 2378 26559 C 2306 26522 2230 26507 2120 26506 C 1964 26506 1938 26520 1916 26623 C 1907 26660 1940 26732 1976 26756 C 2014 26782 2077 26810 2096 26810 C 2120 26810 2202 26858 2229 26887 C 2247 26908 2251 26921 2246 26949 C 2240 26988 2209 27020 2178 27020 C 2167 27020 2144 27009 2127 26996 C 2109 26983 2055 26955 2005 26934 C 1895 26887 1838 26883 1810 26920 C 1786 26951 1785 26972 1807 27035 C 1831 27104 1870 27164 1991 27316 C 2048 27388 2133 27496 2180 27555 C 2227 27615 2281 27682 2300 27705 C 2319 27728 2353 27768 2375 27795 C 2397 27822 2429 27860 2445 27879 C 2538 27987 2555 28021 2570 28129 C 2582 28218 2624 28296 2696 28368 C 2731 28402 2766 28430 2774 28430 C 2783 28430 2810 28410 2834 28385 L 2879 28340 L 2973 28340 C 3031 28340 3084 28334 3110 28325 C 3134 28317 3187 28310 3232 28310 C 3300 28310 3320 28314 3371 28340 C 3404 28356 3456 28389 3488 28412 C 3625 28514 3720 28539 3839 28503 Z M 1833 26680 C 1842 26655 1851 26615 1852 26590 C 1855 26551 1852 26545 1835 26545 C 1802 26545 1778 26605 1785 26669 C 1794 26757 1805 26759 1833 26680 Z M 9779 26633 C 9808 26597 9873 26497 9950 26368 C 9983 26311 10015 26258 10020 26250 C 10034 26227 10105 26081 10132 26020 C 10161 25956 10196 25867 10235 25760 C 10242 25741 10254 25707 10262 25685 C 10286 25620 10300 25578 10316 25525 C 10324 25498 10335 25462 10340 25445 C 10348 25417 10382 25291 10415 25160 C 10464 24963 10482 24883 10505 24750 C 10514 24698 10528 24627 10536 24593 C 10544 24559 10550 24514 10550 24493 C 10550 24472 10557 24420 10565 24377 C 10573 24334 10580 24296 10580 24294 C 10580 24286 10656 24290 10665 24299 C 10687 24321 11181 24562 11194 24557 C 11223 24546 11240 24483 11243 24380 C 11245 24300 11242 24278 11230 24270 C 11222 24265 11150 24232 11070 24198 C 10946 24145 10610 23980 10459 23898 C 10362 23845 10310 23859 10310 23938 C 10311 24051 10261 24580 10235 24731 C 10227 24778 10220 24828 10220 24841 C 10220 24854 10213 24899 10205 24940 C 10196 24981 10182 25049 10174 25090 C 10129 25308 10060 25567 10024 25648 C 10016 25666 10010 25687 10010 25694 C 10010 25701 9996 25741 9979 25781 C 9962 25822 9941 25873 9933 25895 C 9925 25917 9911 25951 9903 25970 C 9895 25989 9882 26019 9875 26035 C 9852 26090 9729 26335 9709 26365 C 9699 26382 9687 26402 9683 26410 C 9680 26418 9657 26455 9633 26492 C 9578 26577 9571 26611 9599 26639 C 9616 26656 9632 26660 9688 26660 C 9750 26660 9758 26658 9779 26633 Z M 5995 26634 C 6040 26624 6092 26595 6119 26566 C 6143 26541 6143 26538 6137 26398 C 6131 26256 6119 26122 6098 25960 C 6092 25913 6084 25835 6080 25785 C 6076 25736 6067 25650 6061 25595 C 6055 25540 6043 25432 6034 25355 C 6026 25278 6013 25166 6005 25105 C 5985 24962 5985 24850 6004 24850 C 6011 24850 6027 24874 6039 24903 C 6051 24931 6065 24964 6069 24975 C 6074 24986 6084 25013 6093 25035 C 6108 25075 6138 25151 6200 25305 C 6218 25349 6239 25403 6247 25425 C 6255 25447 6267 25476 6272 25490 C 6278 25504 6286 25526 6291 25540 C 6295 25554 6315 25610 6335 25665 C 6354 25720 6380 25794 6391 25830 C 6403 25866 6418 25913 6425 25935 C 6432 25957 6445 26002 6455 26035 C 6465 26068 6478 26111 6485 26130 C 6492 26149 6505 26192 6515 26225 C 6563 26391 6582 26420 6639 26420 C 6688 26420 6744 26403 6771 26381 C 6793 26364 6795 26350 6807 26184 C 6814 26085 6824 25915 6829 25805 C 6834 25695 6844 25544 6850 25470 C 6856 25396 6867 25250 6875 25145 C 6915 24623 6911 24650 6935 24650 C 6950 24650 6980 24730 6980 24769 C 6980 24782 6986 24819 6994 24849 C 7012 24920 7034 25022 7055 25130 C 7064 25177 7078 25241 7086 25272 C 7094 25304 7100 25340 7100 25352 C 7100 25365 7106 25407 7114 25445 C 7128 25511 7137 25573 7174 25860 C 7191 25992 7210 26152 7217 26225 C 7224 26311 7229 26320 7265 26336 C 7335 26365 7455 26347 7466 26306 C 7476 26265 7451 25994 7415 25745 C 7407 25690 7400 25632 7400 25615 C 7400 25599 7394 25549 7386 25505 C 7378 25461 7364 25380 7355 25325 C 7345 25270 7332 25194 7325 25155 C 7318 25117 7305 25040 7295 24985 C 7286 24930 7272 24851 7265 24810 C 7258 24769 7244 24690 7235 24635 C 7219 24534 7202 24440 7179 24320 C 7172 24284 7164 24230 7160 24200 C 7149 24114 7130 23992 7114 23905 C 7106 23861 7100 23811 7100 23793 C 7100 23775 7092 23726 7083 23684 C 7069 23619 7063 23607 7041 23598 C 7006 23585 6877 23602 6825 23626 C 6775 23650 6740 23701 6740 23750 C 6740 23771 6735 23812 6730 23841 C 6724 23871 6715 23949 6710 24015 C 6705 24081 6696 24189 6691 24255 C 6676 24414 6654 24673 6636 24895 C 6627 24994 6615 25136 6609 25210 C 6602 25284 6594 25377 6591 25415 C 6585 25480 6583 25485 6562 25485 C 6538 25485 6525 25462 6500 25375 C 6495 25359 6475 25300 6455 25245 C 6435 25190 6415 25132 6410 25115 C 6401 25085 6391 25055 6350 24950 C 6338 24920 6325 24881 6321 24865 C 6317 24848 6308 24826 6303 24815 C 6297 24804 6285 24776 6276 24753 C 6267 24729 6253 24691 6244 24668 C 6235 24644 6222 24608 6214 24588 C 6206 24567 6193 24531 6184 24508 C 6175 24484 6162 24449 6155 24430 C 6148 24411 6128 24359 6110 24315 C 6080 24240 6070 24215 6036 24123 C 5962 23921 5949 23900 5898 23900 C 5859 23900 5750 23952 5683 24002 C 5608 24059 5597 24092 5615 24216 C 5634 24352 5656 24529 5675 24695 C 5693 24855 5715 25028 5735 25180 C 5756 25336 5777 25498 5795 25655 C 5804 25732 5818 25845 5825 25905 C 5848 26082 5869 26279 5875 26365 C 5891 26607 5904 26659 5949 26646 C 5958 26643 5979 26638 5995 26634 Z M 9212 26467 C 9284 26433 9409 26311 9472 26215 C 9540 26112 9611 25966 9665 25820 C 9672 25801 9684 25767 9693 25745 C 9735 25630 9796 25391 9844 25150 C 9912 24808 9920 24728 9920 24392 C 9921 24088 9917 24052 9873 23910 C 9808 23704 9663 23582 9481 23580 C 9382 23580 9309 23614 9233 23699 C 9199 23737 9140 23849 9140 23875 C 9140 23884 9135 23900 9129 23912 C 9111 23946 9080 24189 9080 24310 C 9079 24373 9075 24472 9070 24530 C 9065 24588 9058 24689 9055 24755 C 9048 24911 9023 25144 9004 25245 C 8971 25421 8958 25478 8915 25650 C 8907 25683 8893 25737 8885 25770 C 8851 25907 8841 25949 8826 26020 C 8781 26229 8837 26412 8964 26475 C 9034 26510 9130 26506 9212 26467 Z M 8180 26342 C 8330 26295 8431 26204 8519 26037 C 8614 25857 8694 25618 8720 25435 C 8724 25408 8733 25351 8739 25310 C 8773 25081 8780 24966 8780 24640 C 8780 24456 8775 24274 8770 24235 C 8765 24197 8758 24138 8755 24105 C 8751 24072 8742 24011 8733 23970 C 8679 23706 8575 23547 8402 23462 C 8327 23426 8323 23425 8210 23425 C 8104 23425 8091 23427 8037 23454 C 7913 23514 7816 23635 7777 23775 C 7723 23973 7716 24090 7719 24771 C 7720 25052 7716 25309 7710 25401 C 7703 25486 7697 25668 7697 25805 L 7695 26055 L 7723 26126 C 7768 26241 7820 26296 7925 26339 C 7989 26365 8104 26366 8180 26342 Z" style="stroke: rgb(0, 0, 0); stroke-width: 10px;" id="object-0"/></g><path d="M9104 26213 c-50 -10 -71 -125 -40 -224 7 -24 21 -71 31 -104 22 -76 38 -128 74 -240 44 -140 81 -285 105 -410 33 -178 70 -459 81 -620 2 -44 9 -120 15 -170 5 -49 10 -125 10 -169 0 -101 26 -271 47 -316 9 -19 28 -47 42 -62 45 -51 119 -29 156 45 75 149 64 767 -21 1172 -8 39 -14 81 -14 93 0 13 -7 54 -16 90 -39 164 -46 190 -59 233 -8 26 -15 54 -15 63 0 8 -6 30 -14 48 -7 18 -22 60 -32 93 -20 67 -81 213 -121 290 -72 140 -150 204 -229 188z"/><path d="M8044 26096 c-17 -8 -42 -29 -55 -47 -22 -31 -24 -43 -22 -144 1 -104 7 -171 50 -555 14 -129 17 -257 18 -760 1 -440 4 -621 14 -665 25 -124 60 -168 143 -180 93 -14 163 29 205 127 82 187 102 988 37 1503 -29 233 -55 361 -90 443 -8 18 -14 37 -14 42 0 5 -16 43 -35 84 -40 86 -88 138 -144 154 -49 15 -68 15 -107 -2z"/></g></svg>